%TF.GenerationSoftware,KiCad,Pcbnew,9.0.7-9.0.7~ubuntu24.04.1*%
%TF.CreationDate,2026-02-08T23:26:00-06:00*%
%TF.ProjectId,Backplane_v2,4261636b-706c-4616-9e65-5f76322e6b69,rev?*%
%TF.SameCoordinates,Original*%
%TF.FileFunction,Legend,Top*%
%TF.FilePolarity,Positive*%
%FSLAX46Y46*%
G04 Gerber Fmt 4.6, Leading zero omitted, Abs format (unit mm)*
G04 Created by KiCad (PCBNEW 9.0.7-9.0.7~ubuntu24.04.1) date 2026-02-08 23:26:00*
%MOMM*%
%LPD*%
G01*
G04 APERTURE LIST*
%ADD10C,0.300000*%
%ADD11C,0.150000*%
%ADD12C,0.120000*%
%ADD13C,0.100000*%
G04 APERTURE END LIST*
D10*
X375847368Y-577920828D02*
X375847368Y-578920828D01*
X375490225Y-577349400D02*
X375133082Y-578420828D01*
X375133082Y-578420828D02*
X376061653Y-578420828D01*
X377275939Y-577920828D02*
X377275939Y-578920828D01*
X376918796Y-577349400D02*
X376561653Y-578420828D01*
X376561653Y-578420828D02*
X377490224Y-578420828D01*
X378347367Y-577420828D02*
X378490224Y-577420828D01*
X378490224Y-577420828D02*
X378633081Y-577492257D01*
X378633081Y-577492257D02*
X378704510Y-577563685D01*
X378704510Y-577563685D02*
X378775938Y-577706542D01*
X378775938Y-577706542D02*
X378847367Y-577992257D01*
X378847367Y-577992257D02*
X378847367Y-578349400D01*
X378847367Y-578349400D02*
X378775938Y-578635114D01*
X378775938Y-578635114D02*
X378704510Y-578777971D01*
X378704510Y-578777971D02*
X378633081Y-578849400D01*
X378633081Y-578849400D02*
X378490224Y-578920828D01*
X378490224Y-578920828D02*
X378347367Y-578920828D01*
X378347367Y-578920828D02*
X378204510Y-578849400D01*
X378204510Y-578849400D02*
X378133081Y-578777971D01*
X378133081Y-578777971D02*
X378061652Y-578635114D01*
X378061652Y-578635114D02*
X377990224Y-578349400D01*
X377990224Y-578349400D02*
X377990224Y-577992257D01*
X377990224Y-577992257D02*
X378061652Y-577706542D01*
X378061652Y-577706542D02*
X378133081Y-577563685D01*
X378133081Y-577563685D02*
X378204510Y-577492257D01*
X378204510Y-577492257D02*
X378347367Y-577420828D01*
X379418795Y-577563685D02*
X379490223Y-577492257D01*
X379490223Y-577492257D02*
X379633081Y-577420828D01*
X379633081Y-577420828D02*
X379990223Y-577420828D01*
X379990223Y-577420828D02*
X380133081Y-577492257D01*
X380133081Y-577492257D02*
X380204509Y-577563685D01*
X380204509Y-577563685D02*
X380275938Y-577706542D01*
X380275938Y-577706542D02*
X380275938Y-577849400D01*
X380275938Y-577849400D02*
X380204509Y-578063685D01*
X380204509Y-578063685D02*
X379347366Y-578920828D01*
X379347366Y-578920828D02*
X380275938Y-578920828D01*
X380561652Y-579063685D02*
X381704509Y-579063685D01*
X382061651Y-578920828D02*
X382061651Y-577420828D01*
X382061651Y-577420828D02*
X382418794Y-577420828D01*
X382418794Y-577420828D02*
X382633080Y-577492257D01*
X382633080Y-577492257D02*
X382775937Y-577635114D01*
X382775937Y-577635114D02*
X382847366Y-577777971D01*
X382847366Y-577777971D02*
X382918794Y-578063685D01*
X382918794Y-578063685D02*
X382918794Y-578277971D01*
X382918794Y-578277971D02*
X382847366Y-578563685D01*
X382847366Y-578563685D02*
X382775937Y-578706542D01*
X382775937Y-578706542D02*
X382633080Y-578849400D01*
X382633080Y-578849400D02*
X382418794Y-578920828D01*
X382418794Y-578920828D02*
X382061651Y-578920828D01*
X383561651Y-578920828D02*
X383561651Y-577420828D01*
X383561651Y-577420828D02*
X384133080Y-577420828D01*
X384133080Y-577420828D02*
X384275937Y-577492257D01*
X384275937Y-577492257D02*
X384347366Y-577563685D01*
X384347366Y-577563685D02*
X384418794Y-577706542D01*
X384418794Y-577706542D02*
X384418794Y-577920828D01*
X384418794Y-577920828D02*
X384347366Y-578063685D01*
X384347366Y-578063685D02*
X384275937Y-578135114D01*
X384275937Y-578135114D02*
X384133080Y-578206542D01*
X384133080Y-578206542D02*
X383561651Y-578206542D01*
X385918794Y-578920828D02*
X385418794Y-578206542D01*
X385061651Y-578920828D02*
X385061651Y-577420828D01*
X385061651Y-577420828D02*
X385633080Y-577420828D01*
X385633080Y-577420828D02*
X385775937Y-577492257D01*
X385775937Y-577492257D02*
X385847366Y-577563685D01*
X385847366Y-577563685D02*
X385918794Y-577706542D01*
X385918794Y-577706542D02*
X385918794Y-577920828D01*
X385918794Y-577920828D02*
X385847366Y-578063685D01*
X385847366Y-578063685D02*
X385775937Y-578135114D01*
X385775937Y-578135114D02*
X385633080Y-578206542D01*
X385633080Y-578206542D02*
X385061651Y-578206542D01*
X375847368Y-537280828D02*
X375847368Y-538280828D01*
X375490225Y-536709400D02*
X375133082Y-537780828D01*
X375133082Y-537780828D02*
X376061653Y-537780828D01*
X377275939Y-537280828D02*
X377275939Y-538280828D01*
X376918796Y-536709400D02*
X376561653Y-537780828D01*
X376561653Y-537780828D02*
X377490224Y-537780828D01*
X377990224Y-536923685D02*
X378061652Y-536852257D01*
X378061652Y-536852257D02*
X378204510Y-536780828D01*
X378204510Y-536780828D02*
X378561652Y-536780828D01*
X378561652Y-536780828D02*
X378704510Y-536852257D01*
X378704510Y-536852257D02*
X378775938Y-536923685D01*
X378775938Y-536923685D02*
X378847367Y-537066542D01*
X378847367Y-537066542D02*
X378847367Y-537209400D01*
X378847367Y-537209400D02*
X378775938Y-537423685D01*
X378775938Y-537423685D02*
X377918795Y-538280828D01*
X377918795Y-538280828D02*
X378847367Y-538280828D01*
X380204509Y-536780828D02*
X379490223Y-536780828D01*
X379490223Y-536780828D02*
X379418795Y-537495114D01*
X379418795Y-537495114D02*
X379490223Y-537423685D01*
X379490223Y-537423685D02*
X379633081Y-537352257D01*
X379633081Y-537352257D02*
X379990223Y-537352257D01*
X379990223Y-537352257D02*
X380133081Y-537423685D01*
X380133081Y-537423685D02*
X380204509Y-537495114D01*
X380204509Y-537495114D02*
X380275938Y-537637971D01*
X380275938Y-537637971D02*
X380275938Y-537995114D01*
X380275938Y-537995114D02*
X380204509Y-538137971D01*
X380204509Y-538137971D02*
X380133081Y-538209400D01*
X380133081Y-538209400D02*
X379990223Y-538280828D01*
X379990223Y-538280828D02*
X379633081Y-538280828D01*
X379633081Y-538280828D02*
X379490223Y-538209400D01*
X379490223Y-538209400D02*
X379418795Y-538137971D01*
X380561652Y-538423685D02*
X381704509Y-538423685D01*
X381847366Y-536780828D02*
X382704509Y-536780828D01*
X382275937Y-538280828D02*
X382275937Y-536780828D01*
X383204508Y-538280828D02*
X383204508Y-536780828D01*
X383204508Y-536780828D02*
X383704508Y-537852257D01*
X383704508Y-537852257D02*
X384204508Y-536780828D01*
X384204508Y-536780828D02*
X384204508Y-538280828D01*
X375847368Y-563950828D02*
X375847368Y-564950828D01*
X375490225Y-563379400D02*
X375133082Y-564450828D01*
X375133082Y-564450828D02*
X376061653Y-564450828D01*
X377275939Y-563950828D02*
X377275939Y-564950828D01*
X376918796Y-563379400D02*
X376561653Y-564450828D01*
X376561653Y-564450828D02*
X377490224Y-564450828D01*
X377990224Y-563593685D02*
X378061652Y-563522257D01*
X378061652Y-563522257D02*
X378204510Y-563450828D01*
X378204510Y-563450828D02*
X378561652Y-563450828D01*
X378561652Y-563450828D02*
X378704510Y-563522257D01*
X378704510Y-563522257D02*
X378775938Y-563593685D01*
X378775938Y-563593685D02*
X378847367Y-563736542D01*
X378847367Y-563736542D02*
X378847367Y-563879400D01*
X378847367Y-563879400D02*
X378775938Y-564093685D01*
X378775938Y-564093685D02*
X377918795Y-564950828D01*
X377918795Y-564950828D02*
X378847367Y-564950828D01*
X380133081Y-563450828D02*
X379847366Y-563450828D01*
X379847366Y-563450828D02*
X379704509Y-563522257D01*
X379704509Y-563522257D02*
X379633081Y-563593685D01*
X379633081Y-563593685D02*
X379490223Y-563807971D01*
X379490223Y-563807971D02*
X379418795Y-564093685D01*
X379418795Y-564093685D02*
X379418795Y-564665114D01*
X379418795Y-564665114D02*
X379490223Y-564807971D01*
X379490223Y-564807971D02*
X379561652Y-564879400D01*
X379561652Y-564879400D02*
X379704509Y-564950828D01*
X379704509Y-564950828D02*
X379990223Y-564950828D01*
X379990223Y-564950828D02*
X380133081Y-564879400D01*
X380133081Y-564879400D02*
X380204509Y-564807971D01*
X380204509Y-564807971D02*
X380275938Y-564665114D01*
X380275938Y-564665114D02*
X380275938Y-564307971D01*
X380275938Y-564307971D02*
X380204509Y-564165114D01*
X380204509Y-564165114D02*
X380133081Y-564093685D01*
X380133081Y-564093685D02*
X379990223Y-564022257D01*
X379990223Y-564022257D02*
X379704509Y-564022257D01*
X379704509Y-564022257D02*
X379561652Y-564093685D01*
X379561652Y-564093685D02*
X379490223Y-564165114D01*
X379490223Y-564165114D02*
X379418795Y-564307971D01*
X380561652Y-565093685D02*
X381704509Y-565093685D01*
X382561651Y-564165114D02*
X382061651Y-564165114D01*
X382061651Y-564950828D02*
X382061651Y-563450828D01*
X382061651Y-563450828D02*
X382775937Y-563450828D01*
X383347365Y-564950828D02*
X383347365Y-563450828D01*
X383347365Y-563450828D02*
X383847365Y-564522257D01*
X383847365Y-564522257D02*
X384347365Y-563450828D01*
X384347365Y-563450828D02*
X384347365Y-564950828D01*
X375593368Y-453714828D02*
X375593368Y-454714828D01*
X375236225Y-453143400D02*
X374879082Y-454214828D01*
X374879082Y-454214828D02*
X375807653Y-454214828D01*
X377021939Y-453714828D02*
X377021939Y-454714828D01*
X376664796Y-453143400D02*
X376307653Y-454214828D01*
X376307653Y-454214828D02*
X377236224Y-454214828D01*
X377736224Y-453357685D02*
X377807652Y-453286257D01*
X377807652Y-453286257D02*
X377950510Y-453214828D01*
X377950510Y-453214828D02*
X378307652Y-453214828D01*
X378307652Y-453214828D02*
X378450510Y-453286257D01*
X378450510Y-453286257D02*
X378521938Y-453357685D01*
X378521938Y-453357685D02*
X378593367Y-453500542D01*
X378593367Y-453500542D02*
X378593367Y-453643400D01*
X378593367Y-453643400D02*
X378521938Y-453857685D01*
X378521938Y-453857685D02*
X377664795Y-454714828D01*
X377664795Y-454714828D02*
X378593367Y-454714828D01*
X379307652Y-454714828D02*
X379593366Y-454714828D01*
X379593366Y-454714828D02*
X379736223Y-454643400D01*
X379736223Y-454643400D02*
X379807652Y-454571971D01*
X379807652Y-454571971D02*
X379950509Y-454357685D01*
X379950509Y-454357685D02*
X380021938Y-454071971D01*
X380021938Y-454071971D02*
X380021938Y-453500542D01*
X380021938Y-453500542D02*
X379950509Y-453357685D01*
X379950509Y-453357685D02*
X379879081Y-453286257D01*
X379879081Y-453286257D02*
X379736223Y-453214828D01*
X379736223Y-453214828D02*
X379450509Y-453214828D01*
X379450509Y-453214828D02*
X379307652Y-453286257D01*
X379307652Y-453286257D02*
X379236223Y-453357685D01*
X379236223Y-453357685D02*
X379164795Y-453500542D01*
X379164795Y-453500542D02*
X379164795Y-453857685D01*
X379164795Y-453857685D02*
X379236223Y-454000542D01*
X379236223Y-454000542D02*
X379307652Y-454071971D01*
X379307652Y-454071971D02*
X379450509Y-454143400D01*
X379450509Y-454143400D02*
X379736223Y-454143400D01*
X379736223Y-454143400D02*
X379879081Y-454071971D01*
X379879081Y-454071971D02*
X379950509Y-454000542D01*
X379950509Y-454000542D02*
X380021938Y-453857685D01*
X380307652Y-454857685D02*
X381450509Y-454857685D01*
X382307651Y-453929114D02*
X381807651Y-453929114D01*
X381807651Y-454714828D02*
X381807651Y-453214828D01*
X381807651Y-453214828D02*
X382521937Y-453214828D01*
X383093365Y-454714828D02*
X383093365Y-453214828D01*
X383093365Y-453214828D02*
X383593365Y-454286257D01*
X383593365Y-454286257D02*
X384093365Y-453214828D01*
X384093365Y-453214828D02*
X384093365Y-454714828D01*
X384593366Y-453214828D02*
X385450509Y-453214828D01*
X385021937Y-454714828D02*
X385021937Y-453214828D01*
X375847368Y-607130828D02*
X375847368Y-608130828D01*
X375490225Y-606559400D02*
X375133082Y-607630828D01*
X375133082Y-607630828D02*
X376061653Y-607630828D01*
X377275939Y-607130828D02*
X377275939Y-608130828D01*
X376918796Y-606559400D02*
X376561653Y-607630828D01*
X376561653Y-607630828D02*
X377490224Y-607630828D01*
X378347367Y-606630828D02*
X378490224Y-606630828D01*
X378490224Y-606630828D02*
X378633081Y-606702257D01*
X378633081Y-606702257D02*
X378704510Y-606773685D01*
X378704510Y-606773685D02*
X378775938Y-606916542D01*
X378775938Y-606916542D02*
X378847367Y-607202257D01*
X378847367Y-607202257D02*
X378847367Y-607559400D01*
X378847367Y-607559400D02*
X378775938Y-607845114D01*
X378775938Y-607845114D02*
X378704510Y-607987971D01*
X378704510Y-607987971D02*
X378633081Y-608059400D01*
X378633081Y-608059400D02*
X378490224Y-608130828D01*
X378490224Y-608130828D02*
X378347367Y-608130828D01*
X378347367Y-608130828D02*
X378204510Y-608059400D01*
X378204510Y-608059400D02*
X378133081Y-607987971D01*
X378133081Y-607987971D02*
X378061652Y-607845114D01*
X378061652Y-607845114D02*
X377990224Y-607559400D01*
X377990224Y-607559400D02*
X377990224Y-607202257D01*
X377990224Y-607202257D02*
X378061652Y-606916542D01*
X378061652Y-606916542D02*
X378133081Y-606773685D01*
X378133081Y-606773685D02*
X378204510Y-606702257D01*
X378204510Y-606702257D02*
X378347367Y-606630828D01*
X380275938Y-608130828D02*
X379418795Y-608130828D01*
X379847366Y-608130828D02*
X379847366Y-606630828D01*
X379847366Y-606630828D02*
X379704509Y-606845114D01*
X379704509Y-606845114D02*
X379561652Y-606987971D01*
X379561652Y-606987971D02*
X379418795Y-607059400D01*
X380561652Y-608273685D02*
X381704509Y-608273685D01*
X382561651Y-607345114D02*
X382061651Y-607345114D01*
X382061651Y-608130828D02*
X382061651Y-606630828D01*
X382061651Y-606630828D02*
X382775937Y-606630828D01*
X383275937Y-607702257D02*
X383990223Y-607702257D01*
X383133080Y-608130828D02*
X383633080Y-606630828D01*
X383633080Y-606630828D02*
X384133080Y-608130828D01*
X375847368Y-587445828D02*
X375847368Y-588445828D01*
X375490225Y-586874400D02*
X375133082Y-587945828D01*
X375133082Y-587945828D02*
X376061653Y-587945828D01*
X377275939Y-587445828D02*
X377275939Y-588445828D01*
X376918796Y-586874400D02*
X376561653Y-587945828D01*
X376561653Y-587945828D02*
X377490224Y-587945828D01*
X378347367Y-586945828D02*
X378490224Y-586945828D01*
X378490224Y-586945828D02*
X378633081Y-587017257D01*
X378633081Y-587017257D02*
X378704510Y-587088685D01*
X378704510Y-587088685D02*
X378775938Y-587231542D01*
X378775938Y-587231542D02*
X378847367Y-587517257D01*
X378847367Y-587517257D02*
X378847367Y-587874400D01*
X378847367Y-587874400D02*
X378775938Y-588160114D01*
X378775938Y-588160114D02*
X378704510Y-588302971D01*
X378704510Y-588302971D02*
X378633081Y-588374400D01*
X378633081Y-588374400D02*
X378490224Y-588445828D01*
X378490224Y-588445828D02*
X378347367Y-588445828D01*
X378347367Y-588445828D02*
X378204510Y-588374400D01*
X378204510Y-588374400D02*
X378133081Y-588302971D01*
X378133081Y-588302971D02*
X378061652Y-588160114D01*
X378061652Y-588160114D02*
X377990224Y-587874400D01*
X377990224Y-587874400D02*
X377990224Y-587517257D01*
X377990224Y-587517257D02*
X378061652Y-587231542D01*
X378061652Y-587231542D02*
X378133081Y-587088685D01*
X378133081Y-587088685D02*
X378204510Y-587017257D01*
X378204510Y-587017257D02*
X378347367Y-586945828D01*
X379418795Y-587088685D02*
X379490223Y-587017257D01*
X379490223Y-587017257D02*
X379633081Y-586945828D01*
X379633081Y-586945828D02*
X379990223Y-586945828D01*
X379990223Y-586945828D02*
X380133081Y-587017257D01*
X380133081Y-587017257D02*
X380204509Y-587088685D01*
X380204509Y-587088685D02*
X380275938Y-587231542D01*
X380275938Y-587231542D02*
X380275938Y-587374400D01*
X380275938Y-587374400D02*
X380204509Y-587588685D01*
X380204509Y-587588685D02*
X379347366Y-588445828D01*
X379347366Y-588445828D02*
X380275938Y-588445828D01*
X380561652Y-588588685D02*
X381704509Y-588588685D01*
X382061651Y-588445828D02*
X382061651Y-586945828D01*
X382061651Y-586945828D02*
X382418794Y-586945828D01*
X382418794Y-586945828D02*
X382633080Y-587017257D01*
X382633080Y-587017257D02*
X382775937Y-587160114D01*
X382775937Y-587160114D02*
X382847366Y-587302971D01*
X382847366Y-587302971D02*
X382918794Y-587588685D01*
X382918794Y-587588685D02*
X382918794Y-587802971D01*
X382918794Y-587802971D02*
X382847366Y-588088685D01*
X382847366Y-588088685D02*
X382775937Y-588231542D01*
X382775937Y-588231542D02*
X382633080Y-588374400D01*
X382633080Y-588374400D02*
X382418794Y-588445828D01*
X382418794Y-588445828D02*
X382061651Y-588445828D01*
X383561651Y-588445828D02*
X383561651Y-586945828D01*
X383561651Y-586945828D02*
X384133080Y-586945828D01*
X384133080Y-586945828D02*
X384275937Y-587017257D01*
X384275937Y-587017257D02*
X384347366Y-587088685D01*
X384347366Y-587088685D02*
X384418794Y-587231542D01*
X384418794Y-587231542D02*
X384418794Y-587445828D01*
X384418794Y-587445828D02*
X384347366Y-587588685D01*
X384347366Y-587588685D02*
X384275937Y-587660114D01*
X384275937Y-587660114D02*
X384133080Y-587731542D01*
X384133080Y-587731542D02*
X383561651Y-587731542D01*
X385775937Y-588445828D02*
X385061651Y-588445828D01*
X385061651Y-588445828D02*
X385061651Y-586945828D01*
X375847368Y-495370828D02*
X375847368Y-496370828D01*
X375490225Y-494799400D02*
X375133082Y-495870828D01*
X375133082Y-495870828D02*
X376061653Y-495870828D01*
X377275939Y-495370828D02*
X377275939Y-496370828D01*
X376918796Y-494799400D02*
X376561653Y-495870828D01*
X376561653Y-495870828D02*
X377490224Y-495870828D01*
X378347367Y-494870828D02*
X378490224Y-494870828D01*
X378490224Y-494870828D02*
X378633081Y-494942257D01*
X378633081Y-494942257D02*
X378704510Y-495013685D01*
X378704510Y-495013685D02*
X378775938Y-495156542D01*
X378775938Y-495156542D02*
X378847367Y-495442257D01*
X378847367Y-495442257D02*
X378847367Y-495799400D01*
X378847367Y-495799400D02*
X378775938Y-496085114D01*
X378775938Y-496085114D02*
X378704510Y-496227971D01*
X378704510Y-496227971D02*
X378633081Y-496299400D01*
X378633081Y-496299400D02*
X378490224Y-496370828D01*
X378490224Y-496370828D02*
X378347367Y-496370828D01*
X378347367Y-496370828D02*
X378204510Y-496299400D01*
X378204510Y-496299400D02*
X378133081Y-496227971D01*
X378133081Y-496227971D02*
X378061652Y-496085114D01*
X378061652Y-496085114D02*
X377990224Y-495799400D01*
X377990224Y-495799400D02*
X377990224Y-495442257D01*
X377990224Y-495442257D02*
X378061652Y-495156542D01*
X378061652Y-495156542D02*
X378133081Y-495013685D01*
X378133081Y-495013685D02*
X378204510Y-494942257D01*
X378204510Y-494942257D02*
X378347367Y-494870828D01*
X379704509Y-495513685D02*
X379561652Y-495442257D01*
X379561652Y-495442257D02*
X379490223Y-495370828D01*
X379490223Y-495370828D02*
X379418795Y-495227971D01*
X379418795Y-495227971D02*
X379418795Y-495156542D01*
X379418795Y-495156542D02*
X379490223Y-495013685D01*
X379490223Y-495013685D02*
X379561652Y-494942257D01*
X379561652Y-494942257D02*
X379704509Y-494870828D01*
X379704509Y-494870828D02*
X379990223Y-494870828D01*
X379990223Y-494870828D02*
X380133081Y-494942257D01*
X380133081Y-494942257D02*
X380204509Y-495013685D01*
X380204509Y-495013685D02*
X380275938Y-495156542D01*
X380275938Y-495156542D02*
X380275938Y-495227971D01*
X380275938Y-495227971D02*
X380204509Y-495370828D01*
X380204509Y-495370828D02*
X380133081Y-495442257D01*
X380133081Y-495442257D02*
X379990223Y-495513685D01*
X379990223Y-495513685D02*
X379704509Y-495513685D01*
X379704509Y-495513685D02*
X379561652Y-495585114D01*
X379561652Y-495585114D02*
X379490223Y-495656542D01*
X379490223Y-495656542D02*
X379418795Y-495799400D01*
X379418795Y-495799400D02*
X379418795Y-496085114D01*
X379418795Y-496085114D02*
X379490223Y-496227971D01*
X379490223Y-496227971D02*
X379561652Y-496299400D01*
X379561652Y-496299400D02*
X379704509Y-496370828D01*
X379704509Y-496370828D02*
X379990223Y-496370828D01*
X379990223Y-496370828D02*
X380133081Y-496299400D01*
X380133081Y-496299400D02*
X380204509Y-496227971D01*
X380204509Y-496227971D02*
X380275938Y-496085114D01*
X380275938Y-496085114D02*
X380275938Y-495799400D01*
X380275938Y-495799400D02*
X380204509Y-495656542D01*
X380204509Y-495656542D02*
X380133081Y-495585114D01*
X380133081Y-495585114D02*
X379990223Y-495513685D01*
X380561652Y-496513685D02*
X381704509Y-496513685D01*
X382061651Y-496370828D02*
X382061651Y-494870828D01*
X382061651Y-494870828D02*
X382633080Y-494870828D01*
X382633080Y-494870828D02*
X382775937Y-494942257D01*
X382775937Y-494942257D02*
X382847366Y-495013685D01*
X382847366Y-495013685D02*
X382918794Y-495156542D01*
X382918794Y-495156542D02*
X382918794Y-495370828D01*
X382918794Y-495370828D02*
X382847366Y-495513685D01*
X382847366Y-495513685D02*
X382775937Y-495585114D01*
X382775937Y-495585114D02*
X382633080Y-495656542D01*
X382633080Y-495656542D02*
X382061651Y-495656542D01*
X383418794Y-494870828D02*
X384347366Y-494870828D01*
X384347366Y-494870828D02*
X383847366Y-495442257D01*
X383847366Y-495442257D02*
X384061651Y-495442257D01*
X384061651Y-495442257D02*
X384204509Y-495513685D01*
X384204509Y-495513685D02*
X384275937Y-495585114D01*
X384275937Y-495585114D02*
X384347366Y-495727971D01*
X384347366Y-495727971D02*
X384347366Y-496085114D01*
X384347366Y-496085114D02*
X384275937Y-496227971D01*
X384275937Y-496227971D02*
X384204509Y-496299400D01*
X384204509Y-496299400D02*
X384061651Y-496370828D01*
X384061651Y-496370828D02*
X383633080Y-496370828D01*
X383633080Y-496370828D02*
X383490223Y-496299400D01*
X383490223Y-496299400D02*
X383418794Y-496227971D01*
X375847368Y-523310828D02*
X375847368Y-524310828D01*
X375490225Y-522739400D02*
X375133082Y-523810828D01*
X375133082Y-523810828D02*
X376061653Y-523810828D01*
X377275939Y-523310828D02*
X377275939Y-524310828D01*
X376918796Y-522739400D02*
X376561653Y-523810828D01*
X376561653Y-523810828D02*
X377490224Y-523810828D01*
X377990224Y-522953685D02*
X378061652Y-522882257D01*
X378061652Y-522882257D02*
X378204510Y-522810828D01*
X378204510Y-522810828D02*
X378561652Y-522810828D01*
X378561652Y-522810828D02*
X378704510Y-522882257D01*
X378704510Y-522882257D02*
X378775938Y-522953685D01*
X378775938Y-522953685D02*
X378847367Y-523096542D01*
X378847367Y-523096542D02*
X378847367Y-523239400D01*
X378847367Y-523239400D02*
X378775938Y-523453685D01*
X378775938Y-523453685D02*
X377918795Y-524310828D01*
X377918795Y-524310828D02*
X378847367Y-524310828D01*
X379347366Y-522810828D02*
X380275938Y-522810828D01*
X380275938Y-522810828D02*
X379775938Y-523382257D01*
X379775938Y-523382257D02*
X379990223Y-523382257D01*
X379990223Y-523382257D02*
X380133081Y-523453685D01*
X380133081Y-523453685D02*
X380204509Y-523525114D01*
X380204509Y-523525114D02*
X380275938Y-523667971D01*
X380275938Y-523667971D02*
X380275938Y-524025114D01*
X380275938Y-524025114D02*
X380204509Y-524167971D01*
X380204509Y-524167971D02*
X380133081Y-524239400D01*
X380133081Y-524239400D02*
X379990223Y-524310828D01*
X379990223Y-524310828D02*
X379561652Y-524310828D01*
X379561652Y-524310828D02*
X379418795Y-524239400D01*
X379418795Y-524239400D02*
X379347366Y-524167971D01*
X380561652Y-524453685D02*
X381704509Y-524453685D01*
X382061651Y-524310828D02*
X382061651Y-522810828D01*
X382061651Y-522810828D02*
X382633080Y-522810828D01*
X382633080Y-522810828D02*
X382775937Y-522882257D01*
X382775937Y-522882257D02*
X382847366Y-522953685D01*
X382847366Y-522953685D02*
X382918794Y-523096542D01*
X382918794Y-523096542D02*
X382918794Y-523310828D01*
X382918794Y-523310828D02*
X382847366Y-523453685D01*
X382847366Y-523453685D02*
X382775937Y-523525114D01*
X382775937Y-523525114D02*
X382633080Y-523596542D01*
X382633080Y-523596542D02*
X382061651Y-523596542D01*
X383490223Y-522953685D02*
X383561651Y-522882257D01*
X383561651Y-522882257D02*
X383704509Y-522810828D01*
X383704509Y-522810828D02*
X384061651Y-522810828D01*
X384061651Y-522810828D02*
X384204509Y-522882257D01*
X384204509Y-522882257D02*
X384275937Y-522953685D01*
X384275937Y-522953685D02*
X384347366Y-523096542D01*
X384347366Y-523096542D02*
X384347366Y-523239400D01*
X384347366Y-523239400D02*
X384275937Y-523453685D01*
X384275937Y-523453685D02*
X383418794Y-524310828D01*
X383418794Y-524310828D02*
X384347366Y-524310828D01*
X377117368Y-439744828D02*
X377117368Y-440744828D01*
X376760225Y-439173400D02*
X376403082Y-440244828D01*
X376403082Y-440244828D02*
X377331653Y-440244828D01*
X378545939Y-439744828D02*
X378545939Y-440744828D01*
X378188796Y-439173400D02*
X377831653Y-440244828D01*
X377831653Y-440244828D02*
X378760224Y-440244828D01*
X379260224Y-439387685D02*
X379331652Y-439316257D01*
X379331652Y-439316257D02*
X379474510Y-439244828D01*
X379474510Y-439244828D02*
X379831652Y-439244828D01*
X379831652Y-439244828D02*
X379974510Y-439316257D01*
X379974510Y-439316257D02*
X380045938Y-439387685D01*
X380045938Y-439387685D02*
X380117367Y-439530542D01*
X380117367Y-439530542D02*
X380117367Y-439673400D01*
X380117367Y-439673400D02*
X380045938Y-439887685D01*
X380045938Y-439887685D02*
X379188795Y-440744828D01*
X379188795Y-440744828D02*
X380117367Y-440744828D01*
X381545938Y-440744828D02*
X380688795Y-440744828D01*
X381117366Y-440744828D02*
X381117366Y-439244828D01*
X381117366Y-439244828D02*
X380974509Y-439459114D01*
X380974509Y-439459114D02*
X380831652Y-439601971D01*
X380831652Y-439601971D02*
X380688795Y-439673400D01*
X381831652Y-440887685D02*
X382974509Y-440887685D01*
X383331651Y-440744828D02*
X383331651Y-439244828D01*
X384545937Y-439959114D02*
X384045937Y-439959114D01*
X384045937Y-440744828D02*
X384045937Y-439244828D01*
X384045937Y-439244828D02*
X384760223Y-439244828D01*
X375847368Y-551250828D02*
X375847368Y-552250828D01*
X375490225Y-550679400D02*
X375133082Y-551750828D01*
X375133082Y-551750828D02*
X376061653Y-551750828D01*
X377275939Y-551250828D02*
X377275939Y-552250828D01*
X376918796Y-550679400D02*
X376561653Y-551750828D01*
X376561653Y-551750828D02*
X377490224Y-551750828D01*
X377990224Y-550893685D02*
X378061652Y-550822257D01*
X378061652Y-550822257D02*
X378204510Y-550750828D01*
X378204510Y-550750828D02*
X378561652Y-550750828D01*
X378561652Y-550750828D02*
X378704510Y-550822257D01*
X378704510Y-550822257D02*
X378775938Y-550893685D01*
X378775938Y-550893685D02*
X378847367Y-551036542D01*
X378847367Y-551036542D02*
X378847367Y-551179400D01*
X378847367Y-551179400D02*
X378775938Y-551393685D01*
X378775938Y-551393685D02*
X377918795Y-552250828D01*
X377918795Y-552250828D02*
X378847367Y-552250828D01*
X380133081Y-551250828D02*
X380133081Y-552250828D01*
X379775938Y-550679400D02*
X379418795Y-551750828D01*
X379418795Y-551750828D02*
X380347366Y-551750828D01*
X380561652Y-552393685D02*
X381704509Y-552393685D01*
X382061651Y-552250828D02*
X382061651Y-550750828D01*
X382061651Y-550750828D02*
X382561651Y-551822257D01*
X382561651Y-551822257D02*
X383061651Y-550750828D01*
X383061651Y-550750828D02*
X383061651Y-552250828D01*
X383775937Y-552250828D02*
X383775937Y-550750828D01*
X383775937Y-550750828D02*
X384133080Y-550750828D01*
X384133080Y-550750828D02*
X384347366Y-550822257D01*
X384347366Y-550822257D02*
X384490223Y-550965114D01*
X384490223Y-550965114D02*
X384561652Y-551107971D01*
X384561652Y-551107971D02*
X384633080Y-551393685D01*
X384633080Y-551393685D02*
X384633080Y-551607971D01*
X384633080Y-551607971D02*
X384561652Y-551893685D01*
X384561652Y-551893685D02*
X384490223Y-552036542D01*
X384490223Y-552036542D02*
X384347366Y-552179400D01*
X384347366Y-552179400D02*
X384133080Y-552250828D01*
X384133080Y-552250828D02*
X383775937Y-552250828D01*
X375847368Y-509340828D02*
X375847368Y-510340828D01*
X375490225Y-508769400D02*
X375133082Y-509840828D01*
X375133082Y-509840828D02*
X376061653Y-509840828D01*
X377275939Y-509340828D02*
X377275939Y-510340828D01*
X376918796Y-508769400D02*
X376561653Y-509840828D01*
X376561653Y-509840828D02*
X377490224Y-509840828D01*
X377990224Y-508983685D02*
X378061652Y-508912257D01*
X378061652Y-508912257D02*
X378204510Y-508840828D01*
X378204510Y-508840828D02*
X378561652Y-508840828D01*
X378561652Y-508840828D02*
X378704510Y-508912257D01*
X378704510Y-508912257D02*
X378775938Y-508983685D01*
X378775938Y-508983685D02*
X378847367Y-509126542D01*
X378847367Y-509126542D02*
X378847367Y-509269400D01*
X378847367Y-509269400D02*
X378775938Y-509483685D01*
X378775938Y-509483685D02*
X377918795Y-510340828D01*
X377918795Y-510340828D02*
X378847367Y-510340828D01*
X379418795Y-508983685D02*
X379490223Y-508912257D01*
X379490223Y-508912257D02*
X379633081Y-508840828D01*
X379633081Y-508840828D02*
X379990223Y-508840828D01*
X379990223Y-508840828D02*
X380133081Y-508912257D01*
X380133081Y-508912257D02*
X380204509Y-508983685D01*
X380204509Y-508983685D02*
X380275938Y-509126542D01*
X380275938Y-509126542D02*
X380275938Y-509269400D01*
X380275938Y-509269400D02*
X380204509Y-509483685D01*
X380204509Y-509483685D02*
X379347366Y-510340828D01*
X379347366Y-510340828D02*
X380275938Y-510340828D01*
X380561652Y-510483685D02*
X381704509Y-510483685D01*
X382061651Y-510340828D02*
X382061651Y-508840828D01*
X382061651Y-508840828D02*
X382633080Y-508840828D01*
X382633080Y-508840828D02*
X382775937Y-508912257D01*
X382775937Y-508912257D02*
X382847366Y-508983685D01*
X382847366Y-508983685D02*
X382918794Y-509126542D01*
X382918794Y-509126542D02*
X382918794Y-509340828D01*
X382918794Y-509340828D02*
X382847366Y-509483685D01*
X382847366Y-509483685D02*
X382775937Y-509555114D01*
X382775937Y-509555114D02*
X382633080Y-509626542D01*
X382633080Y-509626542D02*
X382061651Y-509626542D01*
X384347366Y-510340828D02*
X383490223Y-510340828D01*
X383918794Y-510340828D02*
X383918794Y-508840828D01*
X383918794Y-508840828D02*
X383775937Y-509055114D01*
X383775937Y-509055114D02*
X383633080Y-509197971D01*
X383633080Y-509197971D02*
X383490223Y-509269400D01*
D11*
X552661847Y-449151904D02*
X551995180Y-449151904D01*
X553042800Y-448913809D02*
X552328514Y-448675714D01*
X552328514Y-448675714D02*
X552328514Y-449294761D01*
X552661847Y-450104285D02*
X551995180Y-450104285D01*
X553042800Y-449866190D02*
X552328514Y-449628095D01*
X552328514Y-449628095D02*
X552328514Y-450247142D01*
X552899942Y-450580476D02*
X552947561Y-450628095D01*
X552947561Y-450628095D02*
X552995180Y-450723333D01*
X552995180Y-450723333D02*
X552995180Y-450961428D01*
X552995180Y-450961428D02*
X552947561Y-451056666D01*
X552947561Y-451056666D02*
X552899942Y-451104285D01*
X552899942Y-451104285D02*
X552804704Y-451151904D01*
X552804704Y-451151904D02*
X552709466Y-451151904D01*
X552709466Y-451151904D02*
X552566609Y-451104285D01*
X552566609Y-451104285D02*
X551995180Y-450532857D01*
X551995180Y-450532857D02*
X551995180Y-451151904D01*
X551995180Y-451628095D02*
X551995180Y-451818571D01*
X551995180Y-451818571D02*
X552042800Y-451913809D01*
X552042800Y-451913809D02*
X552090419Y-451961428D01*
X552090419Y-451961428D02*
X552233276Y-452056666D01*
X552233276Y-452056666D02*
X552423752Y-452104285D01*
X552423752Y-452104285D02*
X552804704Y-452104285D01*
X552804704Y-452104285D02*
X552899942Y-452056666D01*
X552899942Y-452056666D02*
X552947561Y-452009047D01*
X552947561Y-452009047D02*
X552995180Y-451913809D01*
X552995180Y-451913809D02*
X552995180Y-451723333D01*
X552995180Y-451723333D02*
X552947561Y-451628095D01*
X552947561Y-451628095D02*
X552899942Y-451580476D01*
X552899942Y-451580476D02*
X552804704Y-451532857D01*
X552804704Y-451532857D02*
X552566609Y-451532857D01*
X552566609Y-451532857D02*
X552471371Y-451580476D01*
X552471371Y-451580476D02*
X552423752Y-451628095D01*
X552423752Y-451628095D02*
X552376133Y-451723333D01*
X552376133Y-451723333D02*
X552376133Y-451913809D01*
X552376133Y-451913809D02*
X552423752Y-452009047D01*
X552423752Y-452009047D02*
X552471371Y-452056666D01*
X552471371Y-452056666D02*
X552566609Y-452104285D01*
X551899942Y-452294762D02*
X551899942Y-453056666D01*
X552518990Y-453628095D02*
X552518990Y-453294762D01*
X551995180Y-453294762D02*
X552995180Y-453294762D01*
X552995180Y-453294762D02*
X552995180Y-453770952D01*
X551995180Y-454151905D02*
X552995180Y-454151905D01*
X552995180Y-454151905D02*
X552280895Y-454485238D01*
X552280895Y-454485238D02*
X552995180Y-454818571D01*
X552995180Y-454818571D02*
X551995180Y-454818571D01*
X552995180Y-455151905D02*
X552995180Y-455723333D01*
X551995180Y-455437619D02*
X552995180Y-455437619D01*
X551899942Y-455818572D02*
X551899942Y-456580476D01*
X552995180Y-457104286D02*
X552280895Y-457104286D01*
X552280895Y-457104286D02*
X552138038Y-457056667D01*
X552138038Y-457056667D02*
X552042800Y-456961429D01*
X552042800Y-456961429D02*
X551995180Y-456818572D01*
X551995180Y-456818572D02*
X551995180Y-456723334D01*
X551995180Y-458104286D02*
X551995180Y-457532858D01*
X551995180Y-457818572D02*
X552995180Y-457818572D01*
X552995180Y-457818572D02*
X552852323Y-457723334D01*
X552852323Y-457723334D02*
X552757085Y-457628096D01*
X552757085Y-457628096D02*
X552709466Y-457532858D01*
X301316190Y-423634819D02*
X301316190Y-424444342D01*
X301316190Y-424444342D02*
X301363809Y-424539580D01*
X301363809Y-424539580D02*
X301411428Y-424587200D01*
X301411428Y-424587200D02*
X301506666Y-424634819D01*
X301506666Y-424634819D02*
X301697142Y-424634819D01*
X301697142Y-424634819D02*
X301792380Y-424587200D01*
X301792380Y-424587200D02*
X301839999Y-424539580D01*
X301839999Y-424539580D02*
X301887618Y-424444342D01*
X301887618Y-424444342D02*
X301887618Y-423634819D01*
X302363809Y-424634819D02*
X302363809Y-423634819D01*
X302363809Y-423634819D02*
X302935237Y-424634819D01*
X302935237Y-424634819D02*
X302935237Y-423634819D01*
X303411428Y-424634819D02*
X303411428Y-423634819D01*
X304220951Y-424111009D02*
X304363808Y-424158628D01*
X304363808Y-424158628D02*
X304411427Y-424206247D01*
X304411427Y-424206247D02*
X304459046Y-424301485D01*
X304459046Y-424301485D02*
X304459046Y-424444342D01*
X304459046Y-424444342D02*
X304411427Y-424539580D01*
X304411427Y-424539580D02*
X304363808Y-424587200D01*
X304363808Y-424587200D02*
X304268570Y-424634819D01*
X304268570Y-424634819D02*
X303887618Y-424634819D01*
X303887618Y-424634819D02*
X303887618Y-423634819D01*
X303887618Y-423634819D02*
X304220951Y-423634819D01*
X304220951Y-423634819D02*
X304316189Y-423682438D01*
X304316189Y-423682438D02*
X304363808Y-423730057D01*
X304363808Y-423730057D02*
X304411427Y-423825295D01*
X304411427Y-423825295D02*
X304411427Y-423920533D01*
X304411427Y-423920533D02*
X304363808Y-424015771D01*
X304363808Y-424015771D02*
X304316189Y-424063390D01*
X304316189Y-424063390D02*
X304220951Y-424111009D01*
X304220951Y-424111009D02*
X303887618Y-424111009D01*
X304887618Y-423634819D02*
X304887618Y-424444342D01*
X304887618Y-424444342D02*
X304935237Y-424539580D01*
X304935237Y-424539580D02*
X304982856Y-424587200D01*
X304982856Y-424587200D02*
X305078094Y-424634819D01*
X305078094Y-424634819D02*
X305268570Y-424634819D01*
X305268570Y-424634819D02*
X305363808Y-424587200D01*
X305363808Y-424587200D02*
X305411427Y-424539580D01*
X305411427Y-424539580D02*
X305459046Y-424444342D01*
X305459046Y-424444342D02*
X305459046Y-423634819D01*
X305887618Y-424587200D02*
X306030475Y-424634819D01*
X306030475Y-424634819D02*
X306268570Y-424634819D01*
X306268570Y-424634819D02*
X306363808Y-424587200D01*
X306363808Y-424587200D02*
X306411427Y-424539580D01*
X306411427Y-424539580D02*
X306459046Y-424444342D01*
X306459046Y-424444342D02*
X306459046Y-424349104D01*
X306459046Y-424349104D02*
X306411427Y-424253866D01*
X306411427Y-424253866D02*
X306363808Y-424206247D01*
X306363808Y-424206247D02*
X306268570Y-424158628D01*
X306268570Y-424158628D02*
X306078094Y-424111009D01*
X306078094Y-424111009D02*
X305982856Y-424063390D01*
X305982856Y-424063390D02*
X305935237Y-424015771D01*
X305935237Y-424015771D02*
X305887618Y-423920533D01*
X305887618Y-423920533D02*
X305887618Y-423825295D01*
X305887618Y-423825295D02*
X305935237Y-423730057D01*
X305935237Y-423730057D02*
X305982856Y-423682438D01*
X305982856Y-423682438D02*
X306078094Y-423634819D01*
X306078094Y-423634819D02*
X306316189Y-423634819D01*
X306316189Y-423634819D02*
X306459046Y-423682438D01*
X306649523Y-424730057D02*
X307411427Y-424730057D01*
X307554285Y-423634819D02*
X308220951Y-424634819D01*
X308220951Y-423634819D02*
X307554285Y-424634819D01*
X308935237Y-424111009D02*
X308601904Y-424111009D01*
X308601904Y-424634819D02*
X308601904Y-423634819D01*
X308601904Y-423634819D02*
X309078094Y-423634819D01*
X309459047Y-424111009D02*
X309792380Y-424111009D01*
X309935237Y-424634819D02*
X309459047Y-424634819D01*
X309459047Y-424634819D02*
X309459047Y-423634819D01*
X309459047Y-423634819D02*
X309935237Y-423634819D01*
X310935237Y-424634819D02*
X310601904Y-424158628D01*
X310363809Y-424634819D02*
X310363809Y-423634819D01*
X310363809Y-423634819D02*
X310744761Y-423634819D01*
X310744761Y-423634819D02*
X310839999Y-423682438D01*
X310839999Y-423682438D02*
X310887618Y-423730057D01*
X310887618Y-423730057D02*
X310935237Y-423825295D01*
X310935237Y-423825295D02*
X310935237Y-423968152D01*
X310935237Y-423968152D02*
X310887618Y-424063390D01*
X310887618Y-424063390D02*
X310839999Y-424111009D01*
X310839999Y-424111009D02*
X310744761Y-424158628D01*
X310744761Y-424158628D02*
X310363809Y-424158628D01*
X311125714Y-424730057D02*
X311887618Y-424730057D01*
X312411428Y-423634819D02*
X312411428Y-424349104D01*
X312411428Y-424349104D02*
X312363809Y-424491961D01*
X312363809Y-424491961D02*
X312268571Y-424587200D01*
X312268571Y-424587200D02*
X312125714Y-424634819D01*
X312125714Y-424634819D02*
X312030476Y-424634819D01*
X313411428Y-424634819D02*
X312840000Y-424634819D01*
X313125714Y-424634819D02*
X313125714Y-423634819D01*
X313125714Y-423634819D02*
X313030476Y-423777676D01*
X313030476Y-423777676D02*
X312935238Y-423872914D01*
X312935238Y-423872914D02*
X312840000Y-423920533D01*
X207221847Y-533400475D02*
X206555180Y-533400475D01*
X207602800Y-533162380D02*
X206888514Y-532924285D01*
X206888514Y-532924285D02*
X206888514Y-533543332D01*
X207221847Y-534352856D02*
X206555180Y-534352856D01*
X207602800Y-534114761D02*
X206888514Y-533876666D01*
X206888514Y-533876666D02*
X206888514Y-534495713D01*
X207459942Y-534829047D02*
X207507561Y-534876666D01*
X207507561Y-534876666D02*
X207555180Y-534971904D01*
X207555180Y-534971904D02*
X207555180Y-535209999D01*
X207555180Y-535209999D02*
X207507561Y-535305237D01*
X207507561Y-535305237D02*
X207459942Y-535352856D01*
X207459942Y-535352856D02*
X207364704Y-535400475D01*
X207364704Y-535400475D02*
X207269466Y-535400475D01*
X207269466Y-535400475D02*
X207126609Y-535352856D01*
X207126609Y-535352856D02*
X206555180Y-534781428D01*
X206555180Y-534781428D02*
X206555180Y-535400475D01*
X207555180Y-536305237D02*
X207555180Y-535829047D01*
X207555180Y-535829047D02*
X207078990Y-535781428D01*
X207078990Y-535781428D02*
X207126609Y-535829047D01*
X207126609Y-535829047D02*
X207174228Y-535924285D01*
X207174228Y-535924285D02*
X207174228Y-536162380D01*
X207174228Y-536162380D02*
X207126609Y-536257618D01*
X207126609Y-536257618D02*
X207078990Y-536305237D01*
X207078990Y-536305237D02*
X206983752Y-536352856D01*
X206983752Y-536352856D02*
X206745657Y-536352856D01*
X206745657Y-536352856D02*
X206650419Y-536305237D01*
X206650419Y-536305237D02*
X206602800Y-536257618D01*
X206602800Y-536257618D02*
X206555180Y-536162380D01*
X206555180Y-536162380D02*
X206555180Y-535924285D01*
X206555180Y-535924285D02*
X206602800Y-535829047D01*
X206602800Y-535829047D02*
X206650419Y-535781428D01*
X206459942Y-536543333D02*
X206459942Y-537305237D01*
X207555180Y-537400476D02*
X207555180Y-537971904D01*
X206555180Y-537686190D02*
X207555180Y-537686190D01*
X206555180Y-538305238D02*
X207555180Y-538305238D01*
X207555180Y-538305238D02*
X206840895Y-538638571D01*
X206840895Y-538638571D02*
X207555180Y-538971904D01*
X207555180Y-538971904D02*
X206555180Y-538971904D01*
X206459942Y-539210000D02*
X206459942Y-539971904D01*
X207555180Y-540495714D02*
X206840895Y-540495714D01*
X206840895Y-540495714D02*
X206698038Y-540448095D01*
X206698038Y-540448095D02*
X206602800Y-540352857D01*
X206602800Y-540352857D02*
X206555180Y-540210000D01*
X206555180Y-540210000D02*
X206555180Y-540114762D01*
X207459942Y-540924286D02*
X207507561Y-540971905D01*
X207507561Y-540971905D02*
X207555180Y-541067143D01*
X207555180Y-541067143D02*
X207555180Y-541305238D01*
X207555180Y-541305238D02*
X207507561Y-541400476D01*
X207507561Y-541400476D02*
X207459942Y-541448095D01*
X207459942Y-541448095D02*
X207364704Y-541495714D01*
X207364704Y-541495714D02*
X207269466Y-541495714D01*
X207269466Y-541495714D02*
X207126609Y-541448095D01*
X207126609Y-541448095D02*
X206555180Y-540876667D01*
X206555180Y-540876667D02*
X206555180Y-541495714D01*
X207221847Y-603345713D02*
X206555180Y-603345713D01*
X207602800Y-603107618D02*
X206888514Y-602869523D01*
X206888514Y-602869523D02*
X206888514Y-603488570D01*
X207221847Y-604298094D02*
X206555180Y-604298094D01*
X207602800Y-604059999D02*
X206888514Y-603821904D01*
X206888514Y-603821904D02*
X206888514Y-604440951D01*
X207555180Y-605012380D02*
X207555180Y-605107618D01*
X207555180Y-605107618D02*
X207507561Y-605202856D01*
X207507561Y-605202856D02*
X207459942Y-605250475D01*
X207459942Y-605250475D02*
X207364704Y-605298094D01*
X207364704Y-605298094D02*
X207174228Y-605345713D01*
X207174228Y-605345713D02*
X206936133Y-605345713D01*
X206936133Y-605345713D02*
X206745657Y-605298094D01*
X206745657Y-605298094D02*
X206650419Y-605250475D01*
X206650419Y-605250475D02*
X206602800Y-605202856D01*
X206602800Y-605202856D02*
X206555180Y-605107618D01*
X206555180Y-605107618D02*
X206555180Y-605012380D01*
X206555180Y-605012380D02*
X206602800Y-604917142D01*
X206602800Y-604917142D02*
X206650419Y-604869523D01*
X206650419Y-604869523D02*
X206745657Y-604821904D01*
X206745657Y-604821904D02*
X206936133Y-604774285D01*
X206936133Y-604774285D02*
X207174228Y-604774285D01*
X207174228Y-604774285D02*
X207364704Y-604821904D01*
X207364704Y-604821904D02*
X207459942Y-604869523D01*
X207459942Y-604869523D02*
X207507561Y-604917142D01*
X207507561Y-604917142D02*
X207555180Y-605012380D01*
X206555180Y-606298094D02*
X206555180Y-605726666D01*
X206555180Y-606012380D02*
X207555180Y-606012380D01*
X207555180Y-606012380D02*
X207412323Y-605917142D01*
X207412323Y-605917142D02*
X207317085Y-605821904D01*
X207317085Y-605821904D02*
X207269466Y-605726666D01*
X206459942Y-606488571D02*
X206459942Y-607250475D01*
X207078990Y-607821904D02*
X207078990Y-607488571D01*
X206555180Y-607488571D02*
X207555180Y-607488571D01*
X207555180Y-607488571D02*
X207555180Y-607964761D01*
X206840895Y-608298095D02*
X206840895Y-608774285D01*
X206555180Y-608202857D02*
X207555180Y-608536190D01*
X207555180Y-608536190D02*
X206555180Y-608869523D01*
X206459942Y-608964762D02*
X206459942Y-609726666D01*
X207555180Y-610250476D02*
X206840895Y-610250476D01*
X206840895Y-610250476D02*
X206698038Y-610202857D01*
X206698038Y-610202857D02*
X206602800Y-610107619D01*
X206602800Y-610107619D02*
X206555180Y-609964762D01*
X206555180Y-609964762D02*
X206555180Y-609869524D01*
X207459942Y-610679048D02*
X207507561Y-610726667D01*
X207507561Y-610726667D02*
X207555180Y-610821905D01*
X207555180Y-610821905D02*
X207555180Y-611060000D01*
X207555180Y-611060000D02*
X207507561Y-611155238D01*
X207507561Y-611155238D02*
X207459942Y-611202857D01*
X207459942Y-611202857D02*
X207364704Y-611250476D01*
X207364704Y-611250476D02*
X207269466Y-611250476D01*
X207269466Y-611250476D02*
X207126609Y-611202857D01*
X207126609Y-611202857D02*
X206555180Y-610631429D01*
X206555180Y-610631429D02*
X206555180Y-611250476D01*
X552534847Y-505436666D02*
X551868180Y-505436666D01*
X552915800Y-505198571D02*
X552201514Y-504960476D01*
X552201514Y-504960476D02*
X552201514Y-505579523D01*
X552534847Y-506389047D02*
X551868180Y-506389047D01*
X552915800Y-506150952D02*
X552201514Y-505912857D01*
X552201514Y-505912857D02*
X552201514Y-506531904D01*
X552772942Y-506865238D02*
X552820561Y-506912857D01*
X552820561Y-506912857D02*
X552868180Y-507008095D01*
X552868180Y-507008095D02*
X552868180Y-507246190D01*
X552868180Y-507246190D02*
X552820561Y-507341428D01*
X552820561Y-507341428D02*
X552772942Y-507389047D01*
X552772942Y-507389047D02*
X552677704Y-507436666D01*
X552677704Y-507436666D02*
X552582466Y-507436666D01*
X552582466Y-507436666D02*
X552439609Y-507389047D01*
X552439609Y-507389047D02*
X551868180Y-506817619D01*
X551868180Y-506817619D02*
X551868180Y-507436666D01*
X552772942Y-507817619D02*
X552820561Y-507865238D01*
X552820561Y-507865238D02*
X552868180Y-507960476D01*
X552868180Y-507960476D02*
X552868180Y-508198571D01*
X552868180Y-508198571D02*
X552820561Y-508293809D01*
X552820561Y-508293809D02*
X552772942Y-508341428D01*
X552772942Y-508341428D02*
X552677704Y-508389047D01*
X552677704Y-508389047D02*
X552582466Y-508389047D01*
X552582466Y-508389047D02*
X552439609Y-508341428D01*
X552439609Y-508341428D02*
X551868180Y-507770000D01*
X551868180Y-507770000D02*
X551868180Y-508389047D01*
X551772942Y-508579524D02*
X551772942Y-509341428D01*
X551868180Y-509579524D02*
X552868180Y-509579524D01*
X552868180Y-509579524D02*
X552868180Y-509960476D01*
X552868180Y-509960476D02*
X552820561Y-510055714D01*
X552820561Y-510055714D02*
X552772942Y-510103333D01*
X552772942Y-510103333D02*
X552677704Y-510150952D01*
X552677704Y-510150952D02*
X552534847Y-510150952D01*
X552534847Y-510150952D02*
X552439609Y-510103333D01*
X552439609Y-510103333D02*
X552391990Y-510055714D01*
X552391990Y-510055714D02*
X552344371Y-509960476D01*
X552344371Y-509960476D02*
X552344371Y-509579524D01*
X551868180Y-511103333D02*
X551868180Y-510531905D01*
X551868180Y-510817619D02*
X552868180Y-510817619D01*
X552868180Y-510817619D02*
X552725323Y-510722381D01*
X552725323Y-510722381D02*
X552630085Y-510627143D01*
X552630085Y-510627143D02*
X552582466Y-510531905D01*
X551772942Y-511293810D02*
X551772942Y-512055714D01*
X552868180Y-512579524D02*
X552153895Y-512579524D01*
X552153895Y-512579524D02*
X552011038Y-512531905D01*
X552011038Y-512531905D02*
X551915800Y-512436667D01*
X551915800Y-512436667D02*
X551868180Y-512293810D01*
X551868180Y-512293810D02*
X551868180Y-512198572D01*
X552868180Y-512960477D02*
X552868180Y-513579524D01*
X552868180Y-513579524D02*
X552487228Y-513246191D01*
X552487228Y-513246191D02*
X552487228Y-513389048D01*
X552487228Y-513389048D02*
X552439609Y-513484286D01*
X552439609Y-513484286D02*
X552391990Y-513531905D01*
X552391990Y-513531905D02*
X552296752Y-513579524D01*
X552296752Y-513579524D02*
X552058657Y-513579524D01*
X552058657Y-513579524D02*
X551963419Y-513531905D01*
X551963419Y-513531905D02*
X551915800Y-513484286D01*
X551915800Y-513484286D02*
X551868180Y-513389048D01*
X551868180Y-513389048D02*
X551868180Y-513103334D01*
X551868180Y-513103334D02*
X551915800Y-513008096D01*
X551915800Y-513008096D02*
X551963419Y-512960477D01*
X207221847Y-574762856D02*
X206555180Y-574762856D01*
X207602800Y-574524761D02*
X206888514Y-574286666D01*
X206888514Y-574286666D02*
X206888514Y-574905713D01*
X207221847Y-575715237D02*
X206555180Y-575715237D01*
X207602800Y-575477142D02*
X206888514Y-575239047D01*
X206888514Y-575239047D02*
X206888514Y-575858094D01*
X207555180Y-576429523D02*
X207555180Y-576524761D01*
X207555180Y-576524761D02*
X207507561Y-576619999D01*
X207507561Y-576619999D02*
X207459942Y-576667618D01*
X207459942Y-576667618D02*
X207364704Y-576715237D01*
X207364704Y-576715237D02*
X207174228Y-576762856D01*
X207174228Y-576762856D02*
X206936133Y-576762856D01*
X206936133Y-576762856D02*
X206745657Y-576715237D01*
X206745657Y-576715237D02*
X206650419Y-576667618D01*
X206650419Y-576667618D02*
X206602800Y-576619999D01*
X206602800Y-576619999D02*
X206555180Y-576524761D01*
X206555180Y-576524761D02*
X206555180Y-576429523D01*
X206555180Y-576429523D02*
X206602800Y-576334285D01*
X206602800Y-576334285D02*
X206650419Y-576286666D01*
X206650419Y-576286666D02*
X206745657Y-576239047D01*
X206745657Y-576239047D02*
X206936133Y-576191428D01*
X206936133Y-576191428D02*
X207174228Y-576191428D01*
X207174228Y-576191428D02*
X207364704Y-576239047D01*
X207364704Y-576239047D02*
X207459942Y-576286666D01*
X207459942Y-576286666D02*
X207507561Y-576334285D01*
X207507561Y-576334285D02*
X207555180Y-576429523D01*
X207459942Y-577143809D02*
X207507561Y-577191428D01*
X207507561Y-577191428D02*
X207555180Y-577286666D01*
X207555180Y-577286666D02*
X207555180Y-577524761D01*
X207555180Y-577524761D02*
X207507561Y-577619999D01*
X207507561Y-577619999D02*
X207459942Y-577667618D01*
X207459942Y-577667618D02*
X207364704Y-577715237D01*
X207364704Y-577715237D02*
X207269466Y-577715237D01*
X207269466Y-577715237D02*
X207126609Y-577667618D01*
X207126609Y-577667618D02*
X206555180Y-577096190D01*
X206555180Y-577096190D02*
X206555180Y-577715237D01*
X206459942Y-577905714D02*
X206459942Y-578667618D01*
X206555180Y-578905714D02*
X207555180Y-578905714D01*
X207555180Y-578905714D02*
X207555180Y-579143809D01*
X207555180Y-579143809D02*
X207507561Y-579286666D01*
X207507561Y-579286666D02*
X207412323Y-579381904D01*
X207412323Y-579381904D02*
X207317085Y-579429523D01*
X207317085Y-579429523D02*
X207126609Y-579477142D01*
X207126609Y-579477142D02*
X206983752Y-579477142D01*
X206983752Y-579477142D02*
X206793276Y-579429523D01*
X206793276Y-579429523D02*
X206698038Y-579381904D01*
X206698038Y-579381904D02*
X206602800Y-579286666D01*
X206602800Y-579286666D02*
X206555180Y-579143809D01*
X206555180Y-579143809D02*
X206555180Y-578905714D01*
X206555180Y-579905714D02*
X207555180Y-579905714D01*
X207555180Y-579905714D02*
X207555180Y-580286666D01*
X207555180Y-580286666D02*
X207507561Y-580381904D01*
X207507561Y-580381904D02*
X207459942Y-580429523D01*
X207459942Y-580429523D02*
X207364704Y-580477142D01*
X207364704Y-580477142D02*
X207221847Y-580477142D01*
X207221847Y-580477142D02*
X207126609Y-580429523D01*
X207126609Y-580429523D02*
X207078990Y-580381904D01*
X207078990Y-580381904D02*
X207031371Y-580286666D01*
X207031371Y-580286666D02*
X207031371Y-579905714D01*
X206555180Y-581477142D02*
X207031371Y-581143809D01*
X206555180Y-580905714D02*
X207555180Y-580905714D01*
X207555180Y-580905714D02*
X207555180Y-581286666D01*
X207555180Y-581286666D02*
X207507561Y-581381904D01*
X207507561Y-581381904D02*
X207459942Y-581429523D01*
X207459942Y-581429523D02*
X207364704Y-581477142D01*
X207364704Y-581477142D02*
X207221847Y-581477142D01*
X207221847Y-581477142D02*
X207126609Y-581429523D01*
X207126609Y-581429523D02*
X207078990Y-581381904D01*
X207078990Y-581381904D02*
X207031371Y-581286666D01*
X207031371Y-581286666D02*
X207031371Y-580905714D01*
X206459942Y-581667619D02*
X206459942Y-582429523D01*
X207555180Y-582953333D02*
X206840895Y-582953333D01*
X206840895Y-582953333D02*
X206698038Y-582905714D01*
X206698038Y-582905714D02*
X206602800Y-582810476D01*
X206602800Y-582810476D02*
X206555180Y-582667619D01*
X206555180Y-582667619D02*
X206555180Y-582572381D01*
X207459942Y-583381905D02*
X207507561Y-583429524D01*
X207507561Y-583429524D02*
X207555180Y-583524762D01*
X207555180Y-583524762D02*
X207555180Y-583762857D01*
X207555180Y-583762857D02*
X207507561Y-583858095D01*
X207507561Y-583858095D02*
X207459942Y-583905714D01*
X207459942Y-583905714D02*
X207364704Y-583953333D01*
X207364704Y-583953333D02*
X207269466Y-583953333D01*
X207269466Y-583953333D02*
X207126609Y-583905714D01*
X207126609Y-583905714D02*
X206555180Y-583334286D01*
X206555180Y-583334286D02*
X206555180Y-583953333D01*
X552661847Y-574762856D02*
X551995180Y-574762856D01*
X553042800Y-574524761D02*
X552328514Y-574286666D01*
X552328514Y-574286666D02*
X552328514Y-574905713D01*
X552661847Y-575715237D02*
X551995180Y-575715237D01*
X553042800Y-575477142D02*
X552328514Y-575239047D01*
X552328514Y-575239047D02*
X552328514Y-575858094D01*
X552995180Y-576429523D02*
X552995180Y-576524761D01*
X552995180Y-576524761D02*
X552947561Y-576619999D01*
X552947561Y-576619999D02*
X552899942Y-576667618D01*
X552899942Y-576667618D02*
X552804704Y-576715237D01*
X552804704Y-576715237D02*
X552614228Y-576762856D01*
X552614228Y-576762856D02*
X552376133Y-576762856D01*
X552376133Y-576762856D02*
X552185657Y-576715237D01*
X552185657Y-576715237D02*
X552090419Y-576667618D01*
X552090419Y-576667618D02*
X552042800Y-576619999D01*
X552042800Y-576619999D02*
X551995180Y-576524761D01*
X551995180Y-576524761D02*
X551995180Y-576429523D01*
X551995180Y-576429523D02*
X552042800Y-576334285D01*
X552042800Y-576334285D02*
X552090419Y-576286666D01*
X552090419Y-576286666D02*
X552185657Y-576239047D01*
X552185657Y-576239047D02*
X552376133Y-576191428D01*
X552376133Y-576191428D02*
X552614228Y-576191428D01*
X552614228Y-576191428D02*
X552804704Y-576239047D01*
X552804704Y-576239047D02*
X552899942Y-576286666D01*
X552899942Y-576286666D02*
X552947561Y-576334285D01*
X552947561Y-576334285D02*
X552995180Y-576429523D01*
X552899942Y-577143809D02*
X552947561Y-577191428D01*
X552947561Y-577191428D02*
X552995180Y-577286666D01*
X552995180Y-577286666D02*
X552995180Y-577524761D01*
X552995180Y-577524761D02*
X552947561Y-577619999D01*
X552947561Y-577619999D02*
X552899942Y-577667618D01*
X552899942Y-577667618D02*
X552804704Y-577715237D01*
X552804704Y-577715237D02*
X552709466Y-577715237D01*
X552709466Y-577715237D02*
X552566609Y-577667618D01*
X552566609Y-577667618D02*
X551995180Y-577096190D01*
X551995180Y-577096190D02*
X551995180Y-577715237D01*
X551899942Y-577905714D02*
X551899942Y-578667618D01*
X551995180Y-578905714D02*
X552995180Y-578905714D01*
X552995180Y-578905714D02*
X552995180Y-579143809D01*
X552995180Y-579143809D02*
X552947561Y-579286666D01*
X552947561Y-579286666D02*
X552852323Y-579381904D01*
X552852323Y-579381904D02*
X552757085Y-579429523D01*
X552757085Y-579429523D02*
X552566609Y-579477142D01*
X552566609Y-579477142D02*
X552423752Y-579477142D01*
X552423752Y-579477142D02*
X552233276Y-579429523D01*
X552233276Y-579429523D02*
X552138038Y-579381904D01*
X552138038Y-579381904D02*
X552042800Y-579286666D01*
X552042800Y-579286666D02*
X551995180Y-579143809D01*
X551995180Y-579143809D02*
X551995180Y-578905714D01*
X551995180Y-579905714D02*
X552995180Y-579905714D01*
X552995180Y-579905714D02*
X552995180Y-580286666D01*
X552995180Y-580286666D02*
X552947561Y-580381904D01*
X552947561Y-580381904D02*
X552899942Y-580429523D01*
X552899942Y-580429523D02*
X552804704Y-580477142D01*
X552804704Y-580477142D02*
X552661847Y-580477142D01*
X552661847Y-580477142D02*
X552566609Y-580429523D01*
X552566609Y-580429523D02*
X552518990Y-580381904D01*
X552518990Y-580381904D02*
X552471371Y-580286666D01*
X552471371Y-580286666D02*
X552471371Y-579905714D01*
X551995180Y-581477142D02*
X552471371Y-581143809D01*
X551995180Y-580905714D02*
X552995180Y-580905714D01*
X552995180Y-580905714D02*
X552995180Y-581286666D01*
X552995180Y-581286666D02*
X552947561Y-581381904D01*
X552947561Y-581381904D02*
X552899942Y-581429523D01*
X552899942Y-581429523D02*
X552804704Y-581477142D01*
X552804704Y-581477142D02*
X552661847Y-581477142D01*
X552661847Y-581477142D02*
X552566609Y-581429523D01*
X552566609Y-581429523D02*
X552518990Y-581381904D01*
X552518990Y-581381904D02*
X552471371Y-581286666D01*
X552471371Y-581286666D02*
X552471371Y-580905714D01*
X551899942Y-581667619D02*
X551899942Y-582429523D01*
X552995180Y-582953333D02*
X552280895Y-582953333D01*
X552280895Y-582953333D02*
X552138038Y-582905714D01*
X552138038Y-582905714D02*
X552042800Y-582810476D01*
X552042800Y-582810476D02*
X551995180Y-582667619D01*
X551995180Y-582667619D02*
X551995180Y-582572381D01*
X551995180Y-583953333D02*
X551995180Y-583381905D01*
X551995180Y-583667619D02*
X552995180Y-583667619D01*
X552995180Y-583667619D02*
X552852323Y-583572381D01*
X552852323Y-583572381D02*
X552757085Y-583477143D01*
X552757085Y-583477143D02*
X552709466Y-583381905D01*
X552042800Y-477687142D02*
X551995180Y-477829999D01*
X551995180Y-477829999D02*
X551995180Y-478068094D01*
X551995180Y-478068094D02*
X552042800Y-478163332D01*
X552042800Y-478163332D02*
X552090419Y-478210951D01*
X552090419Y-478210951D02*
X552185657Y-478258570D01*
X552185657Y-478258570D02*
X552280895Y-478258570D01*
X552280895Y-478258570D02*
X552376133Y-478210951D01*
X552376133Y-478210951D02*
X552423752Y-478163332D01*
X552423752Y-478163332D02*
X552471371Y-478068094D01*
X552471371Y-478068094D02*
X552518990Y-477877618D01*
X552518990Y-477877618D02*
X552566609Y-477782380D01*
X552566609Y-477782380D02*
X552614228Y-477734761D01*
X552614228Y-477734761D02*
X552709466Y-477687142D01*
X552709466Y-477687142D02*
X552804704Y-477687142D01*
X552804704Y-477687142D02*
X552899942Y-477734761D01*
X552899942Y-477734761D02*
X552947561Y-477782380D01*
X552947561Y-477782380D02*
X552995180Y-477877618D01*
X552995180Y-477877618D02*
X552995180Y-478115713D01*
X552995180Y-478115713D02*
X552947561Y-478258570D01*
X552661847Y-478687142D02*
X551661847Y-478687142D01*
X552614228Y-478687142D02*
X552661847Y-478782380D01*
X552661847Y-478782380D02*
X552661847Y-478972856D01*
X552661847Y-478972856D02*
X552614228Y-479068094D01*
X552614228Y-479068094D02*
X552566609Y-479115713D01*
X552566609Y-479115713D02*
X552471371Y-479163332D01*
X552471371Y-479163332D02*
X552185657Y-479163332D01*
X552185657Y-479163332D02*
X552090419Y-479115713D01*
X552090419Y-479115713D02*
X552042800Y-479068094D01*
X552042800Y-479068094D02*
X551995180Y-478972856D01*
X551995180Y-478972856D02*
X551995180Y-478782380D01*
X551995180Y-478782380D02*
X552042800Y-478687142D01*
X551995180Y-480020475D02*
X552518990Y-480020475D01*
X552518990Y-480020475D02*
X552614228Y-479972856D01*
X552614228Y-479972856D02*
X552661847Y-479877618D01*
X552661847Y-479877618D02*
X552661847Y-479687142D01*
X552661847Y-479687142D02*
X552614228Y-479591904D01*
X552042800Y-480020475D02*
X551995180Y-479925237D01*
X551995180Y-479925237D02*
X551995180Y-479687142D01*
X551995180Y-479687142D02*
X552042800Y-479591904D01*
X552042800Y-479591904D02*
X552138038Y-479544285D01*
X552138038Y-479544285D02*
X552233276Y-479544285D01*
X552233276Y-479544285D02*
X552328514Y-479591904D01*
X552328514Y-479591904D02*
X552376133Y-479687142D01*
X552376133Y-479687142D02*
X552376133Y-479925237D01*
X552376133Y-479925237D02*
X552423752Y-480020475D01*
X551995180Y-480496666D02*
X552661847Y-480496666D01*
X552471371Y-480496666D02*
X552566609Y-480544285D01*
X552566609Y-480544285D02*
X552614228Y-480591904D01*
X552614228Y-480591904D02*
X552661847Y-480687142D01*
X552661847Y-480687142D02*
X552661847Y-480782380D01*
X552042800Y-481496666D02*
X551995180Y-481401428D01*
X551995180Y-481401428D02*
X551995180Y-481210952D01*
X551995180Y-481210952D02*
X552042800Y-481115714D01*
X552042800Y-481115714D02*
X552138038Y-481068095D01*
X552138038Y-481068095D02*
X552518990Y-481068095D01*
X552518990Y-481068095D02*
X552614228Y-481115714D01*
X552614228Y-481115714D02*
X552661847Y-481210952D01*
X552661847Y-481210952D02*
X552661847Y-481401428D01*
X552661847Y-481401428D02*
X552614228Y-481496666D01*
X552614228Y-481496666D02*
X552518990Y-481544285D01*
X552518990Y-481544285D02*
X552423752Y-481544285D01*
X552423752Y-481544285D02*
X552328514Y-481068095D01*
X551995180Y-482496666D02*
X551995180Y-481925238D01*
X551995180Y-482210952D02*
X552995180Y-482210952D01*
X552995180Y-482210952D02*
X552852323Y-482115714D01*
X552852323Y-482115714D02*
X552757085Y-482020476D01*
X552757085Y-482020476D02*
X552709466Y-481925238D01*
X551899942Y-482687143D02*
X551899942Y-483449047D01*
X552995180Y-483972857D02*
X552280895Y-483972857D01*
X552280895Y-483972857D02*
X552138038Y-483925238D01*
X552138038Y-483925238D02*
X552042800Y-483830000D01*
X552042800Y-483830000D02*
X551995180Y-483687143D01*
X551995180Y-483687143D02*
X551995180Y-483591905D01*
X551995180Y-484972857D02*
X551995180Y-484401429D01*
X551995180Y-484687143D02*
X552995180Y-484687143D01*
X552995180Y-484687143D02*
X552852323Y-484591905D01*
X552852323Y-484591905D02*
X552757085Y-484496667D01*
X552757085Y-484496667D02*
X552709466Y-484401429D01*
X207221847Y-491466666D02*
X206555180Y-491466666D01*
X207602800Y-491228571D02*
X206888514Y-490990476D01*
X206888514Y-490990476D02*
X206888514Y-491609523D01*
X207221847Y-492419047D02*
X206555180Y-492419047D01*
X207602800Y-492180952D02*
X206888514Y-491942857D01*
X206888514Y-491942857D02*
X206888514Y-492561904D01*
X207555180Y-493133333D02*
X207555180Y-493228571D01*
X207555180Y-493228571D02*
X207507561Y-493323809D01*
X207507561Y-493323809D02*
X207459942Y-493371428D01*
X207459942Y-493371428D02*
X207364704Y-493419047D01*
X207364704Y-493419047D02*
X207174228Y-493466666D01*
X207174228Y-493466666D02*
X206936133Y-493466666D01*
X206936133Y-493466666D02*
X206745657Y-493419047D01*
X206745657Y-493419047D02*
X206650419Y-493371428D01*
X206650419Y-493371428D02*
X206602800Y-493323809D01*
X206602800Y-493323809D02*
X206555180Y-493228571D01*
X206555180Y-493228571D02*
X206555180Y-493133333D01*
X206555180Y-493133333D02*
X206602800Y-493038095D01*
X206602800Y-493038095D02*
X206650419Y-492990476D01*
X206650419Y-492990476D02*
X206745657Y-492942857D01*
X206745657Y-492942857D02*
X206936133Y-492895238D01*
X206936133Y-492895238D02*
X207174228Y-492895238D01*
X207174228Y-492895238D02*
X207364704Y-492942857D01*
X207364704Y-492942857D02*
X207459942Y-492990476D01*
X207459942Y-492990476D02*
X207507561Y-493038095D01*
X207507561Y-493038095D02*
X207555180Y-493133333D01*
X207126609Y-494038095D02*
X207174228Y-493942857D01*
X207174228Y-493942857D02*
X207221847Y-493895238D01*
X207221847Y-493895238D02*
X207317085Y-493847619D01*
X207317085Y-493847619D02*
X207364704Y-493847619D01*
X207364704Y-493847619D02*
X207459942Y-493895238D01*
X207459942Y-493895238D02*
X207507561Y-493942857D01*
X207507561Y-493942857D02*
X207555180Y-494038095D01*
X207555180Y-494038095D02*
X207555180Y-494228571D01*
X207555180Y-494228571D02*
X207507561Y-494323809D01*
X207507561Y-494323809D02*
X207459942Y-494371428D01*
X207459942Y-494371428D02*
X207364704Y-494419047D01*
X207364704Y-494419047D02*
X207317085Y-494419047D01*
X207317085Y-494419047D02*
X207221847Y-494371428D01*
X207221847Y-494371428D02*
X207174228Y-494323809D01*
X207174228Y-494323809D02*
X207126609Y-494228571D01*
X207126609Y-494228571D02*
X207126609Y-494038095D01*
X207126609Y-494038095D02*
X207078990Y-493942857D01*
X207078990Y-493942857D02*
X207031371Y-493895238D01*
X207031371Y-493895238D02*
X206936133Y-493847619D01*
X206936133Y-493847619D02*
X206745657Y-493847619D01*
X206745657Y-493847619D02*
X206650419Y-493895238D01*
X206650419Y-493895238D02*
X206602800Y-493942857D01*
X206602800Y-493942857D02*
X206555180Y-494038095D01*
X206555180Y-494038095D02*
X206555180Y-494228571D01*
X206555180Y-494228571D02*
X206602800Y-494323809D01*
X206602800Y-494323809D02*
X206650419Y-494371428D01*
X206650419Y-494371428D02*
X206745657Y-494419047D01*
X206745657Y-494419047D02*
X206936133Y-494419047D01*
X206936133Y-494419047D02*
X207031371Y-494371428D01*
X207031371Y-494371428D02*
X207078990Y-494323809D01*
X207078990Y-494323809D02*
X207126609Y-494228571D01*
X206459942Y-494609524D02*
X206459942Y-495371428D01*
X206555180Y-495609524D02*
X207555180Y-495609524D01*
X207555180Y-495609524D02*
X207555180Y-495990476D01*
X207555180Y-495990476D02*
X207507561Y-496085714D01*
X207507561Y-496085714D02*
X207459942Y-496133333D01*
X207459942Y-496133333D02*
X207364704Y-496180952D01*
X207364704Y-496180952D02*
X207221847Y-496180952D01*
X207221847Y-496180952D02*
X207126609Y-496133333D01*
X207126609Y-496133333D02*
X207078990Y-496085714D01*
X207078990Y-496085714D02*
X207031371Y-495990476D01*
X207031371Y-495990476D02*
X207031371Y-495609524D01*
X207555180Y-496514286D02*
X207555180Y-497133333D01*
X207555180Y-497133333D02*
X207174228Y-496800000D01*
X207174228Y-496800000D02*
X207174228Y-496942857D01*
X207174228Y-496942857D02*
X207126609Y-497038095D01*
X207126609Y-497038095D02*
X207078990Y-497085714D01*
X207078990Y-497085714D02*
X206983752Y-497133333D01*
X206983752Y-497133333D02*
X206745657Y-497133333D01*
X206745657Y-497133333D02*
X206650419Y-497085714D01*
X206650419Y-497085714D02*
X206602800Y-497038095D01*
X206602800Y-497038095D02*
X206555180Y-496942857D01*
X206555180Y-496942857D02*
X206555180Y-496657143D01*
X206555180Y-496657143D02*
X206602800Y-496561905D01*
X206602800Y-496561905D02*
X206650419Y-496514286D01*
X206459942Y-497323810D02*
X206459942Y-498085714D01*
X207555180Y-498609524D02*
X206840895Y-498609524D01*
X206840895Y-498609524D02*
X206698038Y-498561905D01*
X206698038Y-498561905D02*
X206602800Y-498466667D01*
X206602800Y-498466667D02*
X206555180Y-498323810D01*
X206555180Y-498323810D02*
X206555180Y-498228572D01*
X207459942Y-499038096D02*
X207507561Y-499085715D01*
X207507561Y-499085715D02*
X207555180Y-499180953D01*
X207555180Y-499180953D02*
X207555180Y-499419048D01*
X207555180Y-499419048D02*
X207507561Y-499514286D01*
X207507561Y-499514286D02*
X207459942Y-499561905D01*
X207459942Y-499561905D02*
X207364704Y-499609524D01*
X207364704Y-499609524D02*
X207269466Y-499609524D01*
X207269466Y-499609524D02*
X207126609Y-499561905D01*
X207126609Y-499561905D02*
X206555180Y-498990477D01*
X206555180Y-498990477D02*
X206555180Y-499609524D01*
X552407847Y-434015237D02*
X551741180Y-434015237D01*
X552788800Y-433777142D02*
X552074514Y-433539047D01*
X552074514Y-433539047D02*
X552074514Y-434158094D01*
X552407847Y-434967618D02*
X551741180Y-434967618D01*
X552788800Y-434729523D02*
X552074514Y-434491428D01*
X552074514Y-434491428D02*
X552074514Y-435110475D01*
X552645942Y-435443809D02*
X552693561Y-435491428D01*
X552693561Y-435491428D02*
X552741180Y-435586666D01*
X552741180Y-435586666D02*
X552741180Y-435824761D01*
X552741180Y-435824761D02*
X552693561Y-435919999D01*
X552693561Y-435919999D02*
X552645942Y-435967618D01*
X552645942Y-435967618D02*
X552550704Y-436015237D01*
X552550704Y-436015237D02*
X552455466Y-436015237D01*
X552455466Y-436015237D02*
X552312609Y-435967618D01*
X552312609Y-435967618D02*
X551741180Y-435396190D01*
X551741180Y-435396190D02*
X551741180Y-436015237D01*
X551741180Y-436967618D02*
X551741180Y-436396190D01*
X551741180Y-436681904D02*
X552741180Y-436681904D01*
X552741180Y-436681904D02*
X552598323Y-436586666D01*
X552598323Y-436586666D02*
X552503085Y-436491428D01*
X552503085Y-436491428D02*
X552455466Y-436396190D01*
X551645942Y-437158095D02*
X551645942Y-437919999D01*
X551741180Y-438158095D02*
X552741180Y-438158095D01*
X552741180Y-438158095D02*
X552741180Y-438539047D01*
X552741180Y-438539047D02*
X552693561Y-438634285D01*
X552693561Y-438634285D02*
X552645942Y-438681904D01*
X552645942Y-438681904D02*
X552550704Y-438729523D01*
X552550704Y-438729523D02*
X552407847Y-438729523D01*
X552407847Y-438729523D02*
X552312609Y-438681904D01*
X552312609Y-438681904D02*
X552264990Y-438634285D01*
X552264990Y-438634285D02*
X552217371Y-438539047D01*
X552217371Y-438539047D02*
X552217371Y-438158095D01*
X551741180Y-439158095D02*
X552741180Y-439158095D01*
X552741180Y-439158095D02*
X552741180Y-439396190D01*
X552741180Y-439396190D02*
X552693561Y-439539047D01*
X552693561Y-439539047D02*
X552598323Y-439634285D01*
X552598323Y-439634285D02*
X552503085Y-439681904D01*
X552503085Y-439681904D02*
X552312609Y-439729523D01*
X552312609Y-439729523D02*
X552169752Y-439729523D01*
X552169752Y-439729523D02*
X551979276Y-439681904D01*
X551979276Y-439681904D02*
X551884038Y-439634285D01*
X551884038Y-439634285D02*
X551788800Y-439539047D01*
X551788800Y-439539047D02*
X551741180Y-439396190D01*
X551741180Y-439396190D02*
X551741180Y-439158095D01*
X551741180Y-440158095D02*
X552741180Y-440158095D01*
X552741180Y-440158095D02*
X552741180Y-440539047D01*
X552741180Y-440539047D02*
X552693561Y-440634285D01*
X552693561Y-440634285D02*
X552645942Y-440681904D01*
X552645942Y-440681904D02*
X552550704Y-440729523D01*
X552550704Y-440729523D02*
X552407847Y-440729523D01*
X552407847Y-440729523D02*
X552312609Y-440681904D01*
X552312609Y-440681904D02*
X552264990Y-440634285D01*
X552264990Y-440634285D02*
X552217371Y-440539047D01*
X552217371Y-440539047D02*
X552217371Y-440158095D01*
X551645942Y-440920000D02*
X551645942Y-441681904D01*
X551741180Y-441920000D02*
X552741180Y-441920000D01*
X552264990Y-442729523D02*
X552264990Y-442396190D01*
X551741180Y-442396190D02*
X552741180Y-442396190D01*
X552741180Y-442396190D02*
X552741180Y-442872380D01*
X551645942Y-443015238D02*
X551645942Y-443777142D01*
X552741180Y-444300952D02*
X552026895Y-444300952D01*
X552026895Y-444300952D02*
X551884038Y-444253333D01*
X551884038Y-444253333D02*
X551788800Y-444158095D01*
X551788800Y-444158095D02*
X551741180Y-444015238D01*
X551741180Y-444015238D02*
X551741180Y-443920000D01*
X551741180Y-445300952D02*
X551741180Y-444729524D01*
X551741180Y-445015238D02*
X552741180Y-445015238D01*
X552741180Y-445015238D02*
X552598323Y-444920000D01*
X552598323Y-444920000D02*
X552503085Y-444824762D01*
X552503085Y-444824762D02*
X552455466Y-444729524D01*
X552661847Y-533400475D02*
X551995180Y-533400475D01*
X553042800Y-533162380D02*
X552328514Y-532924285D01*
X552328514Y-532924285D02*
X552328514Y-533543332D01*
X552661847Y-534352856D02*
X551995180Y-534352856D01*
X553042800Y-534114761D02*
X552328514Y-533876666D01*
X552328514Y-533876666D02*
X552328514Y-534495713D01*
X552899942Y-534829047D02*
X552947561Y-534876666D01*
X552947561Y-534876666D02*
X552995180Y-534971904D01*
X552995180Y-534971904D02*
X552995180Y-535209999D01*
X552995180Y-535209999D02*
X552947561Y-535305237D01*
X552947561Y-535305237D02*
X552899942Y-535352856D01*
X552899942Y-535352856D02*
X552804704Y-535400475D01*
X552804704Y-535400475D02*
X552709466Y-535400475D01*
X552709466Y-535400475D02*
X552566609Y-535352856D01*
X552566609Y-535352856D02*
X551995180Y-534781428D01*
X551995180Y-534781428D02*
X551995180Y-535400475D01*
X552995180Y-536305237D02*
X552995180Y-535829047D01*
X552995180Y-535829047D02*
X552518990Y-535781428D01*
X552518990Y-535781428D02*
X552566609Y-535829047D01*
X552566609Y-535829047D02*
X552614228Y-535924285D01*
X552614228Y-535924285D02*
X552614228Y-536162380D01*
X552614228Y-536162380D02*
X552566609Y-536257618D01*
X552566609Y-536257618D02*
X552518990Y-536305237D01*
X552518990Y-536305237D02*
X552423752Y-536352856D01*
X552423752Y-536352856D02*
X552185657Y-536352856D01*
X552185657Y-536352856D02*
X552090419Y-536305237D01*
X552090419Y-536305237D02*
X552042800Y-536257618D01*
X552042800Y-536257618D02*
X551995180Y-536162380D01*
X551995180Y-536162380D02*
X551995180Y-535924285D01*
X551995180Y-535924285D02*
X552042800Y-535829047D01*
X552042800Y-535829047D02*
X552090419Y-535781428D01*
X551899942Y-536543333D02*
X551899942Y-537305237D01*
X552995180Y-537400476D02*
X552995180Y-537971904D01*
X551995180Y-537686190D02*
X552995180Y-537686190D01*
X551995180Y-538305238D02*
X552995180Y-538305238D01*
X552995180Y-538305238D02*
X552280895Y-538638571D01*
X552280895Y-538638571D02*
X552995180Y-538971904D01*
X552995180Y-538971904D02*
X551995180Y-538971904D01*
X551899942Y-539210000D02*
X551899942Y-539971904D01*
X552995180Y-540495714D02*
X552280895Y-540495714D01*
X552280895Y-540495714D02*
X552138038Y-540448095D01*
X552138038Y-540448095D02*
X552042800Y-540352857D01*
X552042800Y-540352857D02*
X551995180Y-540210000D01*
X551995180Y-540210000D02*
X551995180Y-540114762D01*
X551995180Y-541495714D02*
X551995180Y-540924286D01*
X551995180Y-541210000D02*
X552995180Y-541210000D01*
X552995180Y-541210000D02*
X552852323Y-541114762D01*
X552852323Y-541114762D02*
X552757085Y-541019524D01*
X552757085Y-541019524D02*
X552709466Y-540924286D01*
X552661847Y-603345713D02*
X551995180Y-603345713D01*
X553042800Y-603107618D02*
X552328514Y-602869523D01*
X552328514Y-602869523D02*
X552328514Y-603488570D01*
X552661847Y-604298094D02*
X551995180Y-604298094D01*
X553042800Y-604059999D02*
X552328514Y-603821904D01*
X552328514Y-603821904D02*
X552328514Y-604440951D01*
X552995180Y-605012380D02*
X552995180Y-605107618D01*
X552995180Y-605107618D02*
X552947561Y-605202856D01*
X552947561Y-605202856D02*
X552899942Y-605250475D01*
X552899942Y-605250475D02*
X552804704Y-605298094D01*
X552804704Y-605298094D02*
X552614228Y-605345713D01*
X552614228Y-605345713D02*
X552376133Y-605345713D01*
X552376133Y-605345713D02*
X552185657Y-605298094D01*
X552185657Y-605298094D02*
X552090419Y-605250475D01*
X552090419Y-605250475D02*
X552042800Y-605202856D01*
X552042800Y-605202856D02*
X551995180Y-605107618D01*
X551995180Y-605107618D02*
X551995180Y-605012380D01*
X551995180Y-605012380D02*
X552042800Y-604917142D01*
X552042800Y-604917142D02*
X552090419Y-604869523D01*
X552090419Y-604869523D02*
X552185657Y-604821904D01*
X552185657Y-604821904D02*
X552376133Y-604774285D01*
X552376133Y-604774285D02*
X552614228Y-604774285D01*
X552614228Y-604774285D02*
X552804704Y-604821904D01*
X552804704Y-604821904D02*
X552899942Y-604869523D01*
X552899942Y-604869523D02*
X552947561Y-604917142D01*
X552947561Y-604917142D02*
X552995180Y-605012380D01*
X551995180Y-606298094D02*
X551995180Y-605726666D01*
X551995180Y-606012380D02*
X552995180Y-606012380D01*
X552995180Y-606012380D02*
X552852323Y-605917142D01*
X552852323Y-605917142D02*
X552757085Y-605821904D01*
X552757085Y-605821904D02*
X552709466Y-605726666D01*
X551899942Y-606488571D02*
X551899942Y-607250475D01*
X552518990Y-607821904D02*
X552518990Y-607488571D01*
X551995180Y-607488571D02*
X552995180Y-607488571D01*
X552995180Y-607488571D02*
X552995180Y-607964761D01*
X552280895Y-608298095D02*
X552280895Y-608774285D01*
X551995180Y-608202857D02*
X552995180Y-608536190D01*
X552995180Y-608536190D02*
X551995180Y-608869523D01*
X551899942Y-608964762D02*
X551899942Y-609726666D01*
X552995180Y-610250476D02*
X552280895Y-610250476D01*
X552280895Y-610250476D02*
X552138038Y-610202857D01*
X552138038Y-610202857D02*
X552042800Y-610107619D01*
X552042800Y-610107619D02*
X551995180Y-609964762D01*
X551995180Y-609964762D02*
X551995180Y-609869524D01*
X551995180Y-611250476D02*
X551995180Y-610679048D01*
X551995180Y-610964762D02*
X552995180Y-610964762D01*
X552995180Y-610964762D02*
X552852323Y-610869524D01*
X552852323Y-610869524D02*
X552757085Y-610774286D01*
X552757085Y-610774286D02*
X552709466Y-610679048D01*
X206602800Y-463717142D02*
X206555180Y-463859999D01*
X206555180Y-463859999D02*
X206555180Y-464098094D01*
X206555180Y-464098094D02*
X206602800Y-464193332D01*
X206602800Y-464193332D02*
X206650419Y-464240951D01*
X206650419Y-464240951D02*
X206745657Y-464288570D01*
X206745657Y-464288570D02*
X206840895Y-464288570D01*
X206840895Y-464288570D02*
X206936133Y-464240951D01*
X206936133Y-464240951D02*
X206983752Y-464193332D01*
X206983752Y-464193332D02*
X207031371Y-464098094D01*
X207031371Y-464098094D02*
X207078990Y-463907618D01*
X207078990Y-463907618D02*
X207126609Y-463812380D01*
X207126609Y-463812380D02*
X207174228Y-463764761D01*
X207174228Y-463764761D02*
X207269466Y-463717142D01*
X207269466Y-463717142D02*
X207364704Y-463717142D01*
X207364704Y-463717142D02*
X207459942Y-463764761D01*
X207459942Y-463764761D02*
X207507561Y-463812380D01*
X207507561Y-463812380D02*
X207555180Y-463907618D01*
X207555180Y-463907618D02*
X207555180Y-464145713D01*
X207555180Y-464145713D02*
X207507561Y-464288570D01*
X207221847Y-464717142D02*
X206221847Y-464717142D01*
X207174228Y-464717142D02*
X207221847Y-464812380D01*
X207221847Y-464812380D02*
X207221847Y-465002856D01*
X207221847Y-465002856D02*
X207174228Y-465098094D01*
X207174228Y-465098094D02*
X207126609Y-465145713D01*
X207126609Y-465145713D02*
X207031371Y-465193332D01*
X207031371Y-465193332D02*
X206745657Y-465193332D01*
X206745657Y-465193332D02*
X206650419Y-465145713D01*
X206650419Y-465145713D02*
X206602800Y-465098094D01*
X206602800Y-465098094D02*
X206555180Y-465002856D01*
X206555180Y-465002856D02*
X206555180Y-464812380D01*
X206555180Y-464812380D02*
X206602800Y-464717142D01*
X206555180Y-466050475D02*
X207078990Y-466050475D01*
X207078990Y-466050475D02*
X207174228Y-466002856D01*
X207174228Y-466002856D02*
X207221847Y-465907618D01*
X207221847Y-465907618D02*
X207221847Y-465717142D01*
X207221847Y-465717142D02*
X207174228Y-465621904D01*
X206602800Y-466050475D02*
X206555180Y-465955237D01*
X206555180Y-465955237D02*
X206555180Y-465717142D01*
X206555180Y-465717142D02*
X206602800Y-465621904D01*
X206602800Y-465621904D02*
X206698038Y-465574285D01*
X206698038Y-465574285D02*
X206793276Y-465574285D01*
X206793276Y-465574285D02*
X206888514Y-465621904D01*
X206888514Y-465621904D02*
X206936133Y-465717142D01*
X206936133Y-465717142D02*
X206936133Y-465955237D01*
X206936133Y-465955237D02*
X206983752Y-466050475D01*
X206555180Y-466526666D02*
X207221847Y-466526666D01*
X207031371Y-466526666D02*
X207126609Y-466574285D01*
X207126609Y-466574285D02*
X207174228Y-466621904D01*
X207174228Y-466621904D02*
X207221847Y-466717142D01*
X207221847Y-466717142D02*
X207221847Y-466812380D01*
X206602800Y-467526666D02*
X206555180Y-467431428D01*
X206555180Y-467431428D02*
X206555180Y-467240952D01*
X206555180Y-467240952D02*
X206602800Y-467145714D01*
X206602800Y-467145714D02*
X206698038Y-467098095D01*
X206698038Y-467098095D02*
X207078990Y-467098095D01*
X207078990Y-467098095D02*
X207174228Y-467145714D01*
X207174228Y-467145714D02*
X207221847Y-467240952D01*
X207221847Y-467240952D02*
X207221847Y-467431428D01*
X207221847Y-467431428D02*
X207174228Y-467526666D01*
X207174228Y-467526666D02*
X207078990Y-467574285D01*
X207078990Y-467574285D02*
X206983752Y-467574285D01*
X206983752Y-467574285D02*
X206888514Y-467098095D01*
X207459942Y-467955238D02*
X207507561Y-468002857D01*
X207507561Y-468002857D02*
X207555180Y-468098095D01*
X207555180Y-468098095D02*
X207555180Y-468336190D01*
X207555180Y-468336190D02*
X207507561Y-468431428D01*
X207507561Y-468431428D02*
X207459942Y-468479047D01*
X207459942Y-468479047D02*
X207364704Y-468526666D01*
X207364704Y-468526666D02*
X207269466Y-468526666D01*
X207269466Y-468526666D02*
X207126609Y-468479047D01*
X207126609Y-468479047D02*
X206555180Y-467907619D01*
X206555180Y-467907619D02*
X206555180Y-468526666D01*
X206459942Y-468717143D02*
X206459942Y-469479047D01*
X207555180Y-470002857D02*
X206840895Y-470002857D01*
X206840895Y-470002857D02*
X206698038Y-469955238D01*
X206698038Y-469955238D02*
X206602800Y-469860000D01*
X206602800Y-469860000D02*
X206555180Y-469717143D01*
X206555180Y-469717143D02*
X206555180Y-469621905D01*
X207221847Y-470907619D02*
X206555180Y-470907619D01*
X207602800Y-470669524D02*
X206888514Y-470431429D01*
X206888514Y-470431429D02*
X206888514Y-471050476D01*
X207221847Y-519406666D02*
X206555180Y-519406666D01*
X207602800Y-519168571D02*
X206888514Y-518930476D01*
X206888514Y-518930476D02*
X206888514Y-519549523D01*
X207221847Y-520359047D02*
X206555180Y-520359047D01*
X207602800Y-520120952D02*
X206888514Y-519882857D01*
X206888514Y-519882857D02*
X206888514Y-520501904D01*
X207459942Y-520835238D02*
X207507561Y-520882857D01*
X207507561Y-520882857D02*
X207555180Y-520978095D01*
X207555180Y-520978095D02*
X207555180Y-521216190D01*
X207555180Y-521216190D02*
X207507561Y-521311428D01*
X207507561Y-521311428D02*
X207459942Y-521359047D01*
X207459942Y-521359047D02*
X207364704Y-521406666D01*
X207364704Y-521406666D02*
X207269466Y-521406666D01*
X207269466Y-521406666D02*
X207126609Y-521359047D01*
X207126609Y-521359047D02*
X206555180Y-520787619D01*
X206555180Y-520787619D02*
X206555180Y-521406666D01*
X207555180Y-521740000D02*
X207555180Y-522359047D01*
X207555180Y-522359047D02*
X207174228Y-522025714D01*
X207174228Y-522025714D02*
X207174228Y-522168571D01*
X207174228Y-522168571D02*
X207126609Y-522263809D01*
X207126609Y-522263809D02*
X207078990Y-522311428D01*
X207078990Y-522311428D02*
X206983752Y-522359047D01*
X206983752Y-522359047D02*
X206745657Y-522359047D01*
X206745657Y-522359047D02*
X206650419Y-522311428D01*
X206650419Y-522311428D02*
X206602800Y-522263809D01*
X206602800Y-522263809D02*
X206555180Y-522168571D01*
X206555180Y-522168571D02*
X206555180Y-521882857D01*
X206555180Y-521882857D02*
X206602800Y-521787619D01*
X206602800Y-521787619D02*
X206650419Y-521740000D01*
X206459942Y-522549524D02*
X206459942Y-523311428D01*
X206555180Y-523549524D02*
X207555180Y-523549524D01*
X207555180Y-523549524D02*
X207555180Y-523930476D01*
X207555180Y-523930476D02*
X207507561Y-524025714D01*
X207507561Y-524025714D02*
X207459942Y-524073333D01*
X207459942Y-524073333D02*
X207364704Y-524120952D01*
X207364704Y-524120952D02*
X207221847Y-524120952D01*
X207221847Y-524120952D02*
X207126609Y-524073333D01*
X207126609Y-524073333D02*
X207078990Y-524025714D01*
X207078990Y-524025714D02*
X207031371Y-523930476D01*
X207031371Y-523930476D02*
X207031371Y-523549524D01*
X207459942Y-524501905D02*
X207507561Y-524549524D01*
X207507561Y-524549524D02*
X207555180Y-524644762D01*
X207555180Y-524644762D02*
X207555180Y-524882857D01*
X207555180Y-524882857D02*
X207507561Y-524978095D01*
X207507561Y-524978095D02*
X207459942Y-525025714D01*
X207459942Y-525025714D02*
X207364704Y-525073333D01*
X207364704Y-525073333D02*
X207269466Y-525073333D01*
X207269466Y-525073333D02*
X207126609Y-525025714D01*
X207126609Y-525025714D02*
X206555180Y-524454286D01*
X206555180Y-524454286D02*
X206555180Y-525073333D01*
X206459942Y-525263810D02*
X206459942Y-526025714D01*
X207555180Y-526549524D02*
X206840895Y-526549524D01*
X206840895Y-526549524D02*
X206698038Y-526501905D01*
X206698038Y-526501905D02*
X206602800Y-526406667D01*
X206602800Y-526406667D02*
X206555180Y-526263810D01*
X206555180Y-526263810D02*
X206555180Y-526168572D01*
X207459942Y-526978096D02*
X207507561Y-527025715D01*
X207507561Y-527025715D02*
X207555180Y-527120953D01*
X207555180Y-527120953D02*
X207555180Y-527359048D01*
X207555180Y-527359048D02*
X207507561Y-527454286D01*
X207507561Y-527454286D02*
X207459942Y-527501905D01*
X207459942Y-527501905D02*
X207364704Y-527549524D01*
X207364704Y-527549524D02*
X207269466Y-527549524D01*
X207269466Y-527549524D02*
X207126609Y-527501905D01*
X207126609Y-527501905D02*
X206555180Y-526930477D01*
X206555180Y-526930477D02*
X206555180Y-527549524D01*
X206602800Y-477687142D02*
X206555180Y-477829999D01*
X206555180Y-477829999D02*
X206555180Y-478068094D01*
X206555180Y-478068094D02*
X206602800Y-478163332D01*
X206602800Y-478163332D02*
X206650419Y-478210951D01*
X206650419Y-478210951D02*
X206745657Y-478258570D01*
X206745657Y-478258570D02*
X206840895Y-478258570D01*
X206840895Y-478258570D02*
X206936133Y-478210951D01*
X206936133Y-478210951D02*
X206983752Y-478163332D01*
X206983752Y-478163332D02*
X207031371Y-478068094D01*
X207031371Y-478068094D02*
X207078990Y-477877618D01*
X207078990Y-477877618D02*
X207126609Y-477782380D01*
X207126609Y-477782380D02*
X207174228Y-477734761D01*
X207174228Y-477734761D02*
X207269466Y-477687142D01*
X207269466Y-477687142D02*
X207364704Y-477687142D01*
X207364704Y-477687142D02*
X207459942Y-477734761D01*
X207459942Y-477734761D02*
X207507561Y-477782380D01*
X207507561Y-477782380D02*
X207555180Y-477877618D01*
X207555180Y-477877618D02*
X207555180Y-478115713D01*
X207555180Y-478115713D02*
X207507561Y-478258570D01*
X207221847Y-478687142D02*
X206221847Y-478687142D01*
X207174228Y-478687142D02*
X207221847Y-478782380D01*
X207221847Y-478782380D02*
X207221847Y-478972856D01*
X207221847Y-478972856D02*
X207174228Y-479068094D01*
X207174228Y-479068094D02*
X207126609Y-479115713D01*
X207126609Y-479115713D02*
X207031371Y-479163332D01*
X207031371Y-479163332D02*
X206745657Y-479163332D01*
X206745657Y-479163332D02*
X206650419Y-479115713D01*
X206650419Y-479115713D02*
X206602800Y-479068094D01*
X206602800Y-479068094D02*
X206555180Y-478972856D01*
X206555180Y-478972856D02*
X206555180Y-478782380D01*
X206555180Y-478782380D02*
X206602800Y-478687142D01*
X206555180Y-480020475D02*
X207078990Y-480020475D01*
X207078990Y-480020475D02*
X207174228Y-479972856D01*
X207174228Y-479972856D02*
X207221847Y-479877618D01*
X207221847Y-479877618D02*
X207221847Y-479687142D01*
X207221847Y-479687142D02*
X207174228Y-479591904D01*
X206602800Y-480020475D02*
X206555180Y-479925237D01*
X206555180Y-479925237D02*
X206555180Y-479687142D01*
X206555180Y-479687142D02*
X206602800Y-479591904D01*
X206602800Y-479591904D02*
X206698038Y-479544285D01*
X206698038Y-479544285D02*
X206793276Y-479544285D01*
X206793276Y-479544285D02*
X206888514Y-479591904D01*
X206888514Y-479591904D02*
X206936133Y-479687142D01*
X206936133Y-479687142D02*
X206936133Y-479925237D01*
X206936133Y-479925237D02*
X206983752Y-480020475D01*
X206555180Y-480496666D02*
X207221847Y-480496666D01*
X207031371Y-480496666D02*
X207126609Y-480544285D01*
X207126609Y-480544285D02*
X207174228Y-480591904D01*
X207174228Y-480591904D02*
X207221847Y-480687142D01*
X207221847Y-480687142D02*
X207221847Y-480782380D01*
X206602800Y-481496666D02*
X206555180Y-481401428D01*
X206555180Y-481401428D02*
X206555180Y-481210952D01*
X206555180Y-481210952D02*
X206602800Y-481115714D01*
X206602800Y-481115714D02*
X206698038Y-481068095D01*
X206698038Y-481068095D02*
X207078990Y-481068095D01*
X207078990Y-481068095D02*
X207174228Y-481115714D01*
X207174228Y-481115714D02*
X207221847Y-481210952D01*
X207221847Y-481210952D02*
X207221847Y-481401428D01*
X207221847Y-481401428D02*
X207174228Y-481496666D01*
X207174228Y-481496666D02*
X207078990Y-481544285D01*
X207078990Y-481544285D02*
X206983752Y-481544285D01*
X206983752Y-481544285D02*
X206888514Y-481068095D01*
X206555180Y-482496666D02*
X206555180Y-481925238D01*
X206555180Y-482210952D02*
X207555180Y-482210952D01*
X207555180Y-482210952D02*
X207412323Y-482115714D01*
X207412323Y-482115714D02*
X207317085Y-482020476D01*
X207317085Y-482020476D02*
X207269466Y-481925238D01*
X206459942Y-482687143D02*
X206459942Y-483449047D01*
X207555180Y-483972857D02*
X206840895Y-483972857D01*
X206840895Y-483972857D02*
X206698038Y-483925238D01*
X206698038Y-483925238D02*
X206602800Y-483830000D01*
X206602800Y-483830000D02*
X206555180Y-483687143D01*
X206555180Y-483687143D02*
X206555180Y-483591905D01*
X207459942Y-484401429D02*
X207507561Y-484449048D01*
X207507561Y-484449048D02*
X207555180Y-484544286D01*
X207555180Y-484544286D02*
X207555180Y-484782381D01*
X207555180Y-484782381D02*
X207507561Y-484877619D01*
X207507561Y-484877619D02*
X207459942Y-484925238D01*
X207459942Y-484925238D02*
X207364704Y-484972857D01*
X207364704Y-484972857D02*
X207269466Y-484972857D01*
X207269466Y-484972857D02*
X207126609Y-484925238D01*
X207126609Y-484925238D02*
X206555180Y-484353810D01*
X206555180Y-484353810D02*
X206555180Y-484972857D01*
X207221847Y-547251428D02*
X206555180Y-547251428D01*
X207602800Y-547013333D02*
X206888514Y-546775238D01*
X206888514Y-546775238D02*
X206888514Y-547394285D01*
X207221847Y-548203809D02*
X206555180Y-548203809D01*
X207602800Y-547965714D02*
X206888514Y-547727619D01*
X206888514Y-547727619D02*
X206888514Y-548346666D01*
X207459942Y-548680000D02*
X207507561Y-548727619D01*
X207507561Y-548727619D02*
X207555180Y-548822857D01*
X207555180Y-548822857D02*
X207555180Y-549060952D01*
X207555180Y-549060952D02*
X207507561Y-549156190D01*
X207507561Y-549156190D02*
X207459942Y-549203809D01*
X207459942Y-549203809D02*
X207364704Y-549251428D01*
X207364704Y-549251428D02*
X207269466Y-549251428D01*
X207269466Y-549251428D02*
X207126609Y-549203809D01*
X207126609Y-549203809D02*
X206555180Y-548632381D01*
X206555180Y-548632381D02*
X206555180Y-549251428D01*
X207221847Y-550108571D02*
X206555180Y-550108571D01*
X207602800Y-549870476D02*
X206888514Y-549632381D01*
X206888514Y-549632381D02*
X206888514Y-550251428D01*
X206459942Y-550394286D02*
X206459942Y-551156190D01*
X206555180Y-551394286D02*
X207555180Y-551394286D01*
X207555180Y-551394286D02*
X206840895Y-551727619D01*
X206840895Y-551727619D02*
X207555180Y-552060952D01*
X207555180Y-552060952D02*
X206555180Y-552060952D01*
X206555180Y-552537143D02*
X207555180Y-552537143D01*
X207555180Y-552537143D02*
X207555180Y-552775238D01*
X207555180Y-552775238D02*
X207507561Y-552918095D01*
X207507561Y-552918095D02*
X207412323Y-553013333D01*
X207412323Y-553013333D02*
X207317085Y-553060952D01*
X207317085Y-553060952D02*
X207126609Y-553108571D01*
X207126609Y-553108571D02*
X206983752Y-553108571D01*
X206983752Y-553108571D02*
X206793276Y-553060952D01*
X206793276Y-553060952D02*
X206698038Y-553013333D01*
X206698038Y-553013333D02*
X206602800Y-552918095D01*
X206602800Y-552918095D02*
X206555180Y-552775238D01*
X206555180Y-552775238D02*
X206555180Y-552537143D01*
X206459942Y-553299048D02*
X206459942Y-554060952D01*
X207555180Y-554584762D02*
X206840895Y-554584762D01*
X206840895Y-554584762D02*
X206698038Y-554537143D01*
X206698038Y-554537143D02*
X206602800Y-554441905D01*
X206602800Y-554441905D02*
X206555180Y-554299048D01*
X206555180Y-554299048D02*
X206555180Y-554203810D01*
X207459942Y-555013334D02*
X207507561Y-555060953D01*
X207507561Y-555060953D02*
X207555180Y-555156191D01*
X207555180Y-555156191D02*
X207555180Y-555394286D01*
X207555180Y-555394286D02*
X207507561Y-555489524D01*
X207507561Y-555489524D02*
X207459942Y-555537143D01*
X207459942Y-555537143D02*
X207364704Y-555584762D01*
X207364704Y-555584762D02*
X207269466Y-555584762D01*
X207269466Y-555584762D02*
X207126609Y-555537143D01*
X207126609Y-555537143D02*
X206555180Y-554965715D01*
X206555180Y-554965715D02*
X206555180Y-555584762D01*
X552042800Y-463717142D02*
X551995180Y-463859999D01*
X551995180Y-463859999D02*
X551995180Y-464098094D01*
X551995180Y-464098094D02*
X552042800Y-464193332D01*
X552042800Y-464193332D02*
X552090419Y-464240951D01*
X552090419Y-464240951D02*
X552185657Y-464288570D01*
X552185657Y-464288570D02*
X552280895Y-464288570D01*
X552280895Y-464288570D02*
X552376133Y-464240951D01*
X552376133Y-464240951D02*
X552423752Y-464193332D01*
X552423752Y-464193332D02*
X552471371Y-464098094D01*
X552471371Y-464098094D02*
X552518990Y-463907618D01*
X552518990Y-463907618D02*
X552566609Y-463812380D01*
X552566609Y-463812380D02*
X552614228Y-463764761D01*
X552614228Y-463764761D02*
X552709466Y-463717142D01*
X552709466Y-463717142D02*
X552804704Y-463717142D01*
X552804704Y-463717142D02*
X552899942Y-463764761D01*
X552899942Y-463764761D02*
X552947561Y-463812380D01*
X552947561Y-463812380D02*
X552995180Y-463907618D01*
X552995180Y-463907618D02*
X552995180Y-464145713D01*
X552995180Y-464145713D02*
X552947561Y-464288570D01*
X552661847Y-464717142D02*
X551661847Y-464717142D01*
X552614228Y-464717142D02*
X552661847Y-464812380D01*
X552661847Y-464812380D02*
X552661847Y-465002856D01*
X552661847Y-465002856D02*
X552614228Y-465098094D01*
X552614228Y-465098094D02*
X552566609Y-465145713D01*
X552566609Y-465145713D02*
X552471371Y-465193332D01*
X552471371Y-465193332D02*
X552185657Y-465193332D01*
X552185657Y-465193332D02*
X552090419Y-465145713D01*
X552090419Y-465145713D02*
X552042800Y-465098094D01*
X552042800Y-465098094D02*
X551995180Y-465002856D01*
X551995180Y-465002856D02*
X551995180Y-464812380D01*
X551995180Y-464812380D02*
X552042800Y-464717142D01*
X551995180Y-466050475D02*
X552518990Y-466050475D01*
X552518990Y-466050475D02*
X552614228Y-466002856D01*
X552614228Y-466002856D02*
X552661847Y-465907618D01*
X552661847Y-465907618D02*
X552661847Y-465717142D01*
X552661847Y-465717142D02*
X552614228Y-465621904D01*
X552042800Y-466050475D02*
X551995180Y-465955237D01*
X551995180Y-465955237D02*
X551995180Y-465717142D01*
X551995180Y-465717142D02*
X552042800Y-465621904D01*
X552042800Y-465621904D02*
X552138038Y-465574285D01*
X552138038Y-465574285D02*
X552233276Y-465574285D01*
X552233276Y-465574285D02*
X552328514Y-465621904D01*
X552328514Y-465621904D02*
X552376133Y-465717142D01*
X552376133Y-465717142D02*
X552376133Y-465955237D01*
X552376133Y-465955237D02*
X552423752Y-466050475D01*
X551995180Y-466526666D02*
X552661847Y-466526666D01*
X552471371Y-466526666D02*
X552566609Y-466574285D01*
X552566609Y-466574285D02*
X552614228Y-466621904D01*
X552614228Y-466621904D02*
X552661847Y-466717142D01*
X552661847Y-466717142D02*
X552661847Y-466812380D01*
X552042800Y-467526666D02*
X551995180Y-467431428D01*
X551995180Y-467431428D02*
X551995180Y-467240952D01*
X551995180Y-467240952D02*
X552042800Y-467145714D01*
X552042800Y-467145714D02*
X552138038Y-467098095D01*
X552138038Y-467098095D02*
X552518990Y-467098095D01*
X552518990Y-467098095D02*
X552614228Y-467145714D01*
X552614228Y-467145714D02*
X552661847Y-467240952D01*
X552661847Y-467240952D02*
X552661847Y-467431428D01*
X552661847Y-467431428D02*
X552614228Y-467526666D01*
X552614228Y-467526666D02*
X552518990Y-467574285D01*
X552518990Y-467574285D02*
X552423752Y-467574285D01*
X552423752Y-467574285D02*
X552328514Y-467098095D01*
X552899942Y-467955238D02*
X552947561Y-468002857D01*
X552947561Y-468002857D02*
X552995180Y-468098095D01*
X552995180Y-468098095D02*
X552995180Y-468336190D01*
X552995180Y-468336190D02*
X552947561Y-468431428D01*
X552947561Y-468431428D02*
X552899942Y-468479047D01*
X552899942Y-468479047D02*
X552804704Y-468526666D01*
X552804704Y-468526666D02*
X552709466Y-468526666D01*
X552709466Y-468526666D02*
X552566609Y-468479047D01*
X552566609Y-468479047D02*
X551995180Y-467907619D01*
X551995180Y-467907619D02*
X551995180Y-468526666D01*
X551899942Y-468717143D02*
X551899942Y-469479047D01*
X552995180Y-470002857D02*
X552280895Y-470002857D01*
X552280895Y-470002857D02*
X552138038Y-469955238D01*
X552138038Y-469955238D02*
X552042800Y-469860000D01*
X552042800Y-469860000D02*
X551995180Y-469717143D01*
X551995180Y-469717143D02*
X551995180Y-469621905D01*
X552995180Y-470383810D02*
X552995180Y-471002857D01*
X552995180Y-471002857D02*
X552614228Y-470669524D01*
X552614228Y-470669524D02*
X552614228Y-470812381D01*
X552614228Y-470812381D02*
X552566609Y-470907619D01*
X552566609Y-470907619D02*
X552518990Y-470955238D01*
X552518990Y-470955238D02*
X552423752Y-471002857D01*
X552423752Y-471002857D02*
X552185657Y-471002857D01*
X552185657Y-471002857D02*
X552090419Y-470955238D01*
X552090419Y-470955238D02*
X552042800Y-470907619D01*
X552042800Y-470907619D02*
X551995180Y-470812381D01*
X551995180Y-470812381D02*
X551995180Y-470526667D01*
X551995180Y-470526667D02*
X552042800Y-470431429D01*
X552042800Y-470431429D02*
X552090419Y-470383810D01*
X207221847Y-561292856D02*
X206555180Y-561292856D01*
X207602800Y-561054761D02*
X206888514Y-560816666D01*
X206888514Y-560816666D02*
X206888514Y-561435713D01*
X207221847Y-562245237D02*
X206555180Y-562245237D01*
X207602800Y-562007142D02*
X206888514Y-561769047D01*
X206888514Y-561769047D02*
X206888514Y-562388094D01*
X207459942Y-562721428D02*
X207507561Y-562769047D01*
X207507561Y-562769047D02*
X207555180Y-562864285D01*
X207555180Y-562864285D02*
X207555180Y-563102380D01*
X207555180Y-563102380D02*
X207507561Y-563197618D01*
X207507561Y-563197618D02*
X207459942Y-563245237D01*
X207459942Y-563245237D02*
X207364704Y-563292856D01*
X207364704Y-563292856D02*
X207269466Y-563292856D01*
X207269466Y-563292856D02*
X207126609Y-563245237D01*
X207126609Y-563245237D02*
X206555180Y-562673809D01*
X206555180Y-562673809D02*
X206555180Y-563292856D01*
X207555180Y-564149999D02*
X207555180Y-563959523D01*
X207555180Y-563959523D02*
X207507561Y-563864285D01*
X207507561Y-563864285D02*
X207459942Y-563816666D01*
X207459942Y-563816666D02*
X207317085Y-563721428D01*
X207317085Y-563721428D02*
X207126609Y-563673809D01*
X207126609Y-563673809D02*
X206745657Y-563673809D01*
X206745657Y-563673809D02*
X206650419Y-563721428D01*
X206650419Y-563721428D02*
X206602800Y-563769047D01*
X206602800Y-563769047D02*
X206555180Y-563864285D01*
X206555180Y-563864285D02*
X206555180Y-564054761D01*
X206555180Y-564054761D02*
X206602800Y-564149999D01*
X206602800Y-564149999D02*
X206650419Y-564197618D01*
X206650419Y-564197618D02*
X206745657Y-564245237D01*
X206745657Y-564245237D02*
X206983752Y-564245237D01*
X206983752Y-564245237D02*
X207078990Y-564197618D01*
X207078990Y-564197618D02*
X207126609Y-564149999D01*
X207126609Y-564149999D02*
X207174228Y-564054761D01*
X207174228Y-564054761D02*
X207174228Y-563864285D01*
X207174228Y-563864285D02*
X207126609Y-563769047D01*
X207126609Y-563769047D02*
X207078990Y-563721428D01*
X207078990Y-563721428D02*
X206983752Y-563673809D01*
X206459942Y-564435714D02*
X206459942Y-565197618D01*
X207078990Y-565769047D02*
X207078990Y-565435714D01*
X206555180Y-565435714D02*
X207555180Y-565435714D01*
X207555180Y-565435714D02*
X207555180Y-565911904D01*
X206555180Y-566292857D02*
X207555180Y-566292857D01*
X207555180Y-566292857D02*
X206840895Y-566626190D01*
X206840895Y-566626190D02*
X207555180Y-566959523D01*
X207555180Y-566959523D02*
X206555180Y-566959523D01*
X206459942Y-567197619D02*
X206459942Y-567959523D01*
X207555180Y-568483333D02*
X206840895Y-568483333D01*
X206840895Y-568483333D02*
X206698038Y-568435714D01*
X206698038Y-568435714D02*
X206602800Y-568340476D01*
X206602800Y-568340476D02*
X206555180Y-568197619D01*
X206555180Y-568197619D02*
X206555180Y-568102381D01*
X207459942Y-568911905D02*
X207507561Y-568959524D01*
X207507561Y-568959524D02*
X207555180Y-569054762D01*
X207555180Y-569054762D02*
X207555180Y-569292857D01*
X207555180Y-569292857D02*
X207507561Y-569388095D01*
X207507561Y-569388095D02*
X207459942Y-569435714D01*
X207459942Y-569435714D02*
X207364704Y-569483333D01*
X207364704Y-569483333D02*
X207269466Y-569483333D01*
X207269466Y-569483333D02*
X207126609Y-569435714D01*
X207126609Y-569435714D02*
X206555180Y-568864286D01*
X206555180Y-568864286D02*
X206555180Y-569483333D01*
X552661847Y-547251428D02*
X551995180Y-547251428D01*
X553042800Y-547013333D02*
X552328514Y-546775238D01*
X552328514Y-546775238D02*
X552328514Y-547394285D01*
X552661847Y-548203809D02*
X551995180Y-548203809D01*
X553042800Y-547965714D02*
X552328514Y-547727619D01*
X552328514Y-547727619D02*
X552328514Y-548346666D01*
X552899942Y-548680000D02*
X552947561Y-548727619D01*
X552947561Y-548727619D02*
X552995180Y-548822857D01*
X552995180Y-548822857D02*
X552995180Y-549060952D01*
X552995180Y-549060952D02*
X552947561Y-549156190D01*
X552947561Y-549156190D02*
X552899942Y-549203809D01*
X552899942Y-549203809D02*
X552804704Y-549251428D01*
X552804704Y-549251428D02*
X552709466Y-549251428D01*
X552709466Y-549251428D02*
X552566609Y-549203809D01*
X552566609Y-549203809D02*
X551995180Y-548632381D01*
X551995180Y-548632381D02*
X551995180Y-549251428D01*
X552661847Y-550108571D02*
X551995180Y-550108571D01*
X553042800Y-549870476D02*
X552328514Y-549632381D01*
X552328514Y-549632381D02*
X552328514Y-550251428D01*
X551899942Y-550394286D02*
X551899942Y-551156190D01*
X551995180Y-551394286D02*
X552995180Y-551394286D01*
X552995180Y-551394286D02*
X552280895Y-551727619D01*
X552280895Y-551727619D02*
X552995180Y-552060952D01*
X552995180Y-552060952D02*
X551995180Y-552060952D01*
X551995180Y-552537143D02*
X552995180Y-552537143D01*
X552995180Y-552537143D02*
X552995180Y-552775238D01*
X552995180Y-552775238D02*
X552947561Y-552918095D01*
X552947561Y-552918095D02*
X552852323Y-553013333D01*
X552852323Y-553013333D02*
X552757085Y-553060952D01*
X552757085Y-553060952D02*
X552566609Y-553108571D01*
X552566609Y-553108571D02*
X552423752Y-553108571D01*
X552423752Y-553108571D02*
X552233276Y-553060952D01*
X552233276Y-553060952D02*
X552138038Y-553013333D01*
X552138038Y-553013333D02*
X552042800Y-552918095D01*
X552042800Y-552918095D02*
X551995180Y-552775238D01*
X551995180Y-552775238D02*
X551995180Y-552537143D01*
X551899942Y-553299048D02*
X551899942Y-554060952D01*
X552995180Y-554584762D02*
X552280895Y-554584762D01*
X552280895Y-554584762D02*
X552138038Y-554537143D01*
X552138038Y-554537143D02*
X552042800Y-554441905D01*
X552042800Y-554441905D02*
X551995180Y-554299048D01*
X551995180Y-554299048D02*
X551995180Y-554203810D01*
X551995180Y-555584762D02*
X551995180Y-555013334D01*
X551995180Y-555299048D02*
X552995180Y-555299048D01*
X552995180Y-555299048D02*
X552852323Y-555203810D01*
X552852323Y-555203810D02*
X552757085Y-555108572D01*
X552757085Y-555108572D02*
X552709466Y-555013334D01*
X207221847Y-449151904D02*
X206555180Y-449151904D01*
X207602800Y-448913809D02*
X206888514Y-448675714D01*
X206888514Y-448675714D02*
X206888514Y-449294761D01*
X207221847Y-450104285D02*
X206555180Y-450104285D01*
X207602800Y-449866190D02*
X206888514Y-449628095D01*
X206888514Y-449628095D02*
X206888514Y-450247142D01*
X207459942Y-450580476D02*
X207507561Y-450628095D01*
X207507561Y-450628095D02*
X207555180Y-450723333D01*
X207555180Y-450723333D02*
X207555180Y-450961428D01*
X207555180Y-450961428D02*
X207507561Y-451056666D01*
X207507561Y-451056666D02*
X207459942Y-451104285D01*
X207459942Y-451104285D02*
X207364704Y-451151904D01*
X207364704Y-451151904D02*
X207269466Y-451151904D01*
X207269466Y-451151904D02*
X207126609Y-451104285D01*
X207126609Y-451104285D02*
X206555180Y-450532857D01*
X206555180Y-450532857D02*
X206555180Y-451151904D01*
X206555180Y-451628095D02*
X206555180Y-451818571D01*
X206555180Y-451818571D02*
X206602800Y-451913809D01*
X206602800Y-451913809D02*
X206650419Y-451961428D01*
X206650419Y-451961428D02*
X206793276Y-452056666D01*
X206793276Y-452056666D02*
X206983752Y-452104285D01*
X206983752Y-452104285D02*
X207364704Y-452104285D01*
X207364704Y-452104285D02*
X207459942Y-452056666D01*
X207459942Y-452056666D02*
X207507561Y-452009047D01*
X207507561Y-452009047D02*
X207555180Y-451913809D01*
X207555180Y-451913809D02*
X207555180Y-451723333D01*
X207555180Y-451723333D02*
X207507561Y-451628095D01*
X207507561Y-451628095D02*
X207459942Y-451580476D01*
X207459942Y-451580476D02*
X207364704Y-451532857D01*
X207364704Y-451532857D02*
X207126609Y-451532857D01*
X207126609Y-451532857D02*
X207031371Y-451580476D01*
X207031371Y-451580476D02*
X206983752Y-451628095D01*
X206983752Y-451628095D02*
X206936133Y-451723333D01*
X206936133Y-451723333D02*
X206936133Y-451913809D01*
X206936133Y-451913809D02*
X206983752Y-452009047D01*
X206983752Y-452009047D02*
X207031371Y-452056666D01*
X207031371Y-452056666D02*
X207126609Y-452104285D01*
X206459942Y-452294762D02*
X206459942Y-453056666D01*
X207078990Y-453628095D02*
X207078990Y-453294762D01*
X206555180Y-453294762D02*
X207555180Y-453294762D01*
X207555180Y-453294762D02*
X207555180Y-453770952D01*
X206555180Y-454151905D02*
X207555180Y-454151905D01*
X207555180Y-454151905D02*
X206840895Y-454485238D01*
X206840895Y-454485238D02*
X207555180Y-454818571D01*
X207555180Y-454818571D02*
X206555180Y-454818571D01*
X207555180Y-455151905D02*
X207555180Y-455723333D01*
X206555180Y-455437619D02*
X207555180Y-455437619D01*
X206459942Y-455818572D02*
X206459942Y-456580476D01*
X207555180Y-457104286D02*
X206840895Y-457104286D01*
X206840895Y-457104286D02*
X206698038Y-457056667D01*
X206698038Y-457056667D02*
X206602800Y-456961429D01*
X206602800Y-456961429D02*
X206555180Y-456818572D01*
X206555180Y-456818572D02*
X206555180Y-456723334D01*
X207459942Y-457532858D02*
X207507561Y-457580477D01*
X207507561Y-457580477D02*
X207555180Y-457675715D01*
X207555180Y-457675715D02*
X207555180Y-457913810D01*
X207555180Y-457913810D02*
X207507561Y-458009048D01*
X207507561Y-458009048D02*
X207459942Y-458056667D01*
X207459942Y-458056667D02*
X207364704Y-458104286D01*
X207364704Y-458104286D02*
X207269466Y-458104286D01*
X207269466Y-458104286D02*
X207126609Y-458056667D01*
X207126609Y-458056667D02*
X206555180Y-457485239D01*
X206555180Y-457485239D02*
X206555180Y-458104286D01*
X207221847Y-505436666D02*
X206555180Y-505436666D01*
X207602800Y-505198571D02*
X206888514Y-504960476D01*
X206888514Y-504960476D02*
X206888514Y-505579523D01*
X207221847Y-506389047D02*
X206555180Y-506389047D01*
X207602800Y-506150952D02*
X206888514Y-505912857D01*
X206888514Y-505912857D02*
X206888514Y-506531904D01*
X207459942Y-506865238D02*
X207507561Y-506912857D01*
X207507561Y-506912857D02*
X207555180Y-507008095D01*
X207555180Y-507008095D02*
X207555180Y-507246190D01*
X207555180Y-507246190D02*
X207507561Y-507341428D01*
X207507561Y-507341428D02*
X207459942Y-507389047D01*
X207459942Y-507389047D02*
X207364704Y-507436666D01*
X207364704Y-507436666D02*
X207269466Y-507436666D01*
X207269466Y-507436666D02*
X207126609Y-507389047D01*
X207126609Y-507389047D02*
X206555180Y-506817619D01*
X206555180Y-506817619D02*
X206555180Y-507436666D01*
X207459942Y-507817619D02*
X207507561Y-507865238D01*
X207507561Y-507865238D02*
X207555180Y-507960476D01*
X207555180Y-507960476D02*
X207555180Y-508198571D01*
X207555180Y-508198571D02*
X207507561Y-508293809D01*
X207507561Y-508293809D02*
X207459942Y-508341428D01*
X207459942Y-508341428D02*
X207364704Y-508389047D01*
X207364704Y-508389047D02*
X207269466Y-508389047D01*
X207269466Y-508389047D02*
X207126609Y-508341428D01*
X207126609Y-508341428D02*
X206555180Y-507770000D01*
X206555180Y-507770000D02*
X206555180Y-508389047D01*
X206459942Y-508579524D02*
X206459942Y-509341428D01*
X206555180Y-509579524D02*
X207555180Y-509579524D01*
X207555180Y-509579524D02*
X207555180Y-509960476D01*
X207555180Y-509960476D02*
X207507561Y-510055714D01*
X207507561Y-510055714D02*
X207459942Y-510103333D01*
X207459942Y-510103333D02*
X207364704Y-510150952D01*
X207364704Y-510150952D02*
X207221847Y-510150952D01*
X207221847Y-510150952D02*
X207126609Y-510103333D01*
X207126609Y-510103333D02*
X207078990Y-510055714D01*
X207078990Y-510055714D02*
X207031371Y-509960476D01*
X207031371Y-509960476D02*
X207031371Y-509579524D01*
X206555180Y-511103333D02*
X206555180Y-510531905D01*
X206555180Y-510817619D02*
X207555180Y-510817619D01*
X207555180Y-510817619D02*
X207412323Y-510722381D01*
X207412323Y-510722381D02*
X207317085Y-510627143D01*
X207317085Y-510627143D02*
X207269466Y-510531905D01*
X206459942Y-511293810D02*
X206459942Y-512055714D01*
X207555180Y-512579524D02*
X206840895Y-512579524D01*
X206840895Y-512579524D02*
X206698038Y-512531905D01*
X206698038Y-512531905D02*
X206602800Y-512436667D01*
X206602800Y-512436667D02*
X206555180Y-512293810D01*
X206555180Y-512293810D02*
X206555180Y-512198572D01*
X207221847Y-513484286D02*
X206555180Y-513484286D01*
X207602800Y-513246191D02*
X206888514Y-513008096D01*
X206888514Y-513008096D02*
X206888514Y-513627143D01*
X552534847Y-519406666D02*
X551868180Y-519406666D01*
X552915800Y-519168571D02*
X552201514Y-518930476D01*
X552201514Y-518930476D02*
X552201514Y-519549523D01*
X552534847Y-520359047D02*
X551868180Y-520359047D01*
X552915800Y-520120952D02*
X552201514Y-519882857D01*
X552201514Y-519882857D02*
X552201514Y-520501904D01*
X552772942Y-520835238D02*
X552820561Y-520882857D01*
X552820561Y-520882857D02*
X552868180Y-520978095D01*
X552868180Y-520978095D02*
X552868180Y-521216190D01*
X552868180Y-521216190D02*
X552820561Y-521311428D01*
X552820561Y-521311428D02*
X552772942Y-521359047D01*
X552772942Y-521359047D02*
X552677704Y-521406666D01*
X552677704Y-521406666D02*
X552582466Y-521406666D01*
X552582466Y-521406666D02*
X552439609Y-521359047D01*
X552439609Y-521359047D02*
X551868180Y-520787619D01*
X551868180Y-520787619D02*
X551868180Y-521406666D01*
X552868180Y-521740000D02*
X552868180Y-522359047D01*
X552868180Y-522359047D02*
X552487228Y-522025714D01*
X552487228Y-522025714D02*
X552487228Y-522168571D01*
X552487228Y-522168571D02*
X552439609Y-522263809D01*
X552439609Y-522263809D02*
X552391990Y-522311428D01*
X552391990Y-522311428D02*
X552296752Y-522359047D01*
X552296752Y-522359047D02*
X552058657Y-522359047D01*
X552058657Y-522359047D02*
X551963419Y-522311428D01*
X551963419Y-522311428D02*
X551915800Y-522263809D01*
X551915800Y-522263809D02*
X551868180Y-522168571D01*
X551868180Y-522168571D02*
X551868180Y-521882857D01*
X551868180Y-521882857D02*
X551915800Y-521787619D01*
X551915800Y-521787619D02*
X551963419Y-521740000D01*
X551772942Y-522549524D02*
X551772942Y-523311428D01*
X551868180Y-523549524D02*
X552868180Y-523549524D01*
X552868180Y-523549524D02*
X552868180Y-523930476D01*
X552868180Y-523930476D02*
X552820561Y-524025714D01*
X552820561Y-524025714D02*
X552772942Y-524073333D01*
X552772942Y-524073333D02*
X552677704Y-524120952D01*
X552677704Y-524120952D02*
X552534847Y-524120952D01*
X552534847Y-524120952D02*
X552439609Y-524073333D01*
X552439609Y-524073333D02*
X552391990Y-524025714D01*
X552391990Y-524025714D02*
X552344371Y-523930476D01*
X552344371Y-523930476D02*
X552344371Y-523549524D01*
X552772942Y-524501905D02*
X552820561Y-524549524D01*
X552820561Y-524549524D02*
X552868180Y-524644762D01*
X552868180Y-524644762D02*
X552868180Y-524882857D01*
X552868180Y-524882857D02*
X552820561Y-524978095D01*
X552820561Y-524978095D02*
X552772942Y-525025714D01*
X552772942Y-525025714D02*
X552677704Y-525073333D01*
X552677704Y-525073333D02*
X552582466Y-525073333D01*
X552582466Y-525073333D02*
X552439609Y-525025714D01*
X552439609Y-525025714D02*
X551868180Y-524454286D01*
X551868180Y-524454286D02*
X551868180Y-525073333D01*
X551772942Y-525263810D02*
X551772942Y-526025714D01*
X552868180Y-526549524D02*
X552153895Y-526549524D01*
X552153895Y-526549524D02*
X552011038Y-526501905D01*
X552011038Y-526501905D02*
X551915800Y-526406667D01*
X551915800Y-526406667D02*
X551868180Y-526263810D01*
X551868180Y-526263810D02*
X551868180Y-526168572D01*
X551868180Y-527549524D02*
X551868180Y-526978096D01*
X551868180Y-527263810D02*
X552868180Y-527263810D01*
X552868180Y-527263810D02*
X552725323Y-527168572D01*
X552725323Y-527168572D02*
X552630085Y-527073334D01*
X552630085Y-527073334D02*
X552582466Y-526978096D01*
X552661847Y-491466666D02*
X551995180Y-491466666D01*
X553042800Y-491228571D02*
X552328514Y-490990476D01*
X552328514Y-490990476D02*
X552328514Y-491609523D01*
X552661847Y-492419047D02*
X551995180Y-492419047D01*
X553042800Y-492180952D02*
X552328514Y-491942857D01*
X552328514Y-491942857D02*
X552328514Y-492561904D01*
X552995180Y-493133333D02*
X552995180Y-493228571D01*
X552995180Y-493228571D02*
X552947561Y-493323809D01*
X552947561Y-493323809D02*
X552899942Y-493371428D01*
X552899942Y-493371428D02*
X552804704Y-493419047D01*
X552804704Y-493419047D02*
X552614228Y-493466666D01*
X552614228Y-493466666D02*
X552376133Y-493466666D01*
X552376133Y-493466666D02*
X552185657Y-493419047D01*
X552185657Y-493419047D02*
X552090419Y-493371428D01*
X552090419Y-493371428D02*
X552042800Y-493323809D01*
X552042800Y-493323809D02*
X551995180Y-493228571D01*
X551995180Y-493228571D02*
X551995180Y-493133333D01*
X551995180Y-493133333D02*
X552042800Y-493038095D01*
X552042800Y-493038095D02*
X552090419Y-492990476D01*
X552090419Y-492990476D02*
X552185657Y-492942857D01*
X552185657Y-492942857D02*
X552376133Y-492895238D01*
X552376133Y-492895238D02*
X552614228Y-492895238D01*
X552614228Y-492895238D02*
X552804704Y-492942857D01*
X552804704Y-492942857D02*
X552899942Y-492990476D01*
X552899942Y-492990476D02*
X552947561Y-493038095D01*
X552947561Y-493038095D02*
X552995180Y-493133333D01*
X552566609Y-494038095D02*
X552614228Y-493942857D01*
X552614228Y-493942857D02*
X552661847Y-493895238D01*
X552661847Y-493895238D02*
X552757085Y-493847619D01*
X552757085Y-493847619D02*
X552804704Y-493847619D01*
X552804704Y-493847619D02*
X552899942Y-493895238D01*
X552899942Y-493895238D02*
X552947561Y-493942857D01*
X552947561Y-493942857D02*
X552995180Y-494038095D01*
X552995180Y-494038095D02*
X552995180Y-494228571D01*
X552995180Y-494228571D02*
X552947561Y-494323809D01*
X552947561Y-494323809D02*
X552899942Y-494371428D01*
X552899942Y-494371428D02*
X552804704Y-494419047D01*
X552804704Y-494419047D02*
X552757085Y-494419047D01*
X552757085Y-494419047D02*
X552661847Y-494371428D01*
X552661847Y-494371428D02*
X552614228Y-494323809D01*
X552614228Y-494323809D02*
X552566609Y-494228571D01*
X552566609Y-494228571D02*
X552566609Y-494038095D01*
X552566609Y-494038095D02*
X552518990Y-493942857D01*
X552518990Y-493942857D02*
X552471371Y-493895238D01*
X552471371Y-493895238D02*
X552376133Y-493847619D01*
X552376133Y-493847619D02*
X552185657Y-493847619D01*
X552185657Y-493847619D02*
X552090419Y-493895238D01*
X552090419Y-493895238D02*
X552042800Y-493942857D01*
X552042800Y-493942857D02*
X551995180Y-494038095D01*
X551995180Y-494038095D02*
X551995180Y-494228571D01*
X551995180Y-494228571D02*
X552042800Y-494323809D01*
X552042800Y-494323809D02*
X552090419Y-494371428D01*
X552090419Y-494371428D02*
X552185657Y-494419047D01*
X552185657Y-494419047D02*
X552376133Y-494419047D01*
X552376133Y-494419047D02*
X552471371Y-494371428D01*
X552471371Y-494371428D02*
X552518990Y-494323809D01*
X552518990Y-494323809D02*
X552566609Y-494228571D01*
X551899942Y-494609524D02*
X551899942Y-495371428D01*
X551995180Y-495609524D02*
X552995180Y-495609524D01*
X552995180Y-495609524D02*
X552995180Y-495990476D01*
X552995180Y-495990476D02*
X552947561Y-496085714D01*
X552947561Y-496085714D02*
X552899942Y-496133333D01*
X552899942Y-496133333D02*
X552804704Y-496180952D01*
X552804704Y-496180952D02*
X552661847Y-496180952D01*
X552661847Y-496180952D02*
X552566609Y-496133333D01*
X552566609Y-496133333D02*
X552518990Y-496085714D01*
X552518990Y-496085714D02*
X552471371Y-495990476D01*
X552471371Y-495990476D02*
X552471371Y-495609524D01*
X552995180Y-496514286D02*
X552995180Y-497133333D01*
X552995180Y-497133333D02*
X552614228Y-496800000D01*
X552614228Y-496800000D02*
X552614228Y-496942857D01*
X552614228Y-496942857D02*
X552566609Y-497038095D01*
X552566609Y-497038095D02*
X552518990Y-497085714D01*
X552518990Y-497085714D02*
X552423752Y-497133333D01*
X552423752Y-497133333D02*
X552185657Y-497133333D01*
X552185657Y-497133333D02*
X552090419Y-497085714D01*
X552090419Y-497085714D02*
X552042800Y-497038095D01*
X552042800Y-497038095D02*
X551995180Y-496942857D01*
X551995180Y-496942857D02*
X551995180Y-496657143D01*
X551995180Y-496657143D02*
X552042800Y-496561905D01*
X552042800Y-496561905D02*
X552090419Y-496514286D01*
X551899942Y-497323810D02*
X551899942Y-498085714D01*
X552995180Y-498609524D02*
X552280895Y-498609524D01*
X552280895Y-498609524D02*
X552138038Y-498561905D01*
X552138038Y-498561905D02*
X552042800Y-498466667D01*
X552042800Y-498466667D02*
X551995180Y-498323810D01*
X551995180Y-498323810D02*
X551995180Y-498228572D01*
X551995180Y-499609524D02*
X551995180Y-499038096D01*
X551995180Y-499323810D02*
X552995180Y-499323810D01*
X552995180Y-499323810D02*
X552852323Y-499228572D01*
X552852323Y-499228572D02*
X552757085Y-499133334D01*
X552757085Y-499133334D02*
X552709466Y-499038096D01*
X552661847Y-561292856D02*
X551995180Y-561292856D01*
X553042800Y-561054761D02*
X552328514Y-560816666D01*
X552328514Y-560816666D02*
X552328514Y-561435713D01*
X552661847Y-562245237D02*
X551995180Y-562245237D01*
X553042800Y-562007142D02*
X552328514Y-561769047D01*
X552328514Y-561769047D02*
X552328514Y-562388094D01*
X552899942Y-562721428D02*
X552947561Y-562769047D01*
X552947561Y-562769047D02*
X552995180Y-562864285D01*
X552995180Y-562864285D02*
X552995180Y-563102380D01*
X552995180Y-563102380D02*
X552947561Y-563197618D01*
X552947561Y-563197618D02*
X552899942Y-563245237D01*
X552899942Y-563245237D02*
X552804704Y-563292856D01*
X552804704Y-563292856D02*
X552709466Y-563292856D01*
X552709466Y-563292856D02*
X552566609Y-563245237D01*
X552566609Y-563245237D02*
X551995180Y-562673809D01*
X551995180Y-562673809D02*
X551995180Y-563292856D01*
X552995180Y-564149999D02*
X552995180Y-563959523D01*
X552995180Y-563959523D02*
X552947561Y-563864285D01*
X552947561Y-563864285D02*
X552899942Y-563816666D01*
X552899942Y-563816666D02*
X552757085Y-563721428D01*
X552757085Y-563721428D02*
X552566609Y-563673809D01*
X552566609Y-563673809D02*
X552185657Y-563673809D01*
X552185657Y-563673809D02*
X552090419Y-563721428D01*
X552090419Y-563721428D02*
X552042800Y-563769047D01*
X552042800Y-563769047D02*
X551995180Y-563864285D01*
X551995180Y-563864285D02*
X551995180Y-564054761D01*
X551995180Y-564054761D02*
X552042800Y-564149999D01*
X552042800Y-564149999D02*
X552090419Y-564197618D01*
X552090419Y-564197618D02*
X552185657Y-564245237D01*
X552185657Y-564245237D02*
X552423752Y-564245237D01*
X552423752Y-564245237D02*
X552518990Y-564197618D01*
X552518990Y-564197618D02*
X552566609Y-564149999D01*
X552566609Y-564149999D02*
X552614228Y-564054761D01*
X552614228Y-564054761D02*
X552614228Y-563864285D01*
X552614228Y-563864285D02*
X552566609Y-563769047D01*
X552566609Y-563769047D02*
X552518990Y-563721428D01*
X552518990Y-563721428D02*
X552423752Y-563673809D01*
X551899942Y-564435714D02*
X551899942Y-565197618D01*
X552518990Y-565769047D02*
X552518990Y-565435714D01*
X551995180Y-565435714D02*
X552995180Y-565435714D01*
X552995180Y-565435714D02*
X552995180Y-565911904D01*
X551995180Y-566292857D02*
X552995180Y-566292857D01*
X552995180Y-566292857D02*
X552280895Y-566626190D01*
X552280895Y-566626190D02*
X552995180Y-566959523D01*
X552995180Y-566959523D02*
X551995180Y-566959523D01*
X551899942Y-567197619D02*
X551899942Y-567959523D01*
X552995180Y-568483333D02*
X552280895Y-568483333D01*
X552280895Y-568483333D02*
X552138038Y-568435714D01*
X552138038Y-568435714D02*
X552042800Y-568340476D01*
X552042800Y-568340476D02*
X551995180Y-568197619D01*
X551995180Y-568197619D02*
X551995180Y-568102381D01*
X551995180Y-569483333D02*
X551995180Y-568911905D01*
X551995180Y-569197619D02*
X552995180Y-569197619D01*
X552995180Y-569197619D02*
X552852323Y-569102381D01*
X552852323Y-569102381D02*
X552757085Y-569007143D01*
X552757085Y-569007143D02*
X552709466Y-568911905D01*
X207221847Y-434015237D02*
X206555180Y-434015237D01*
X207602800Y-433777142D02*
X206888514Y-433539047D01*
X206888514Y-433539047D02*
X206888514Y-434158094D01*
X207221847Y-434967618D02*
X206555180Y-434967618D01*
X207602800Y-434729523D02*
X206888514Y-434491428D01*
X206888514Y-434491428D02*
X206888514Y-435110475D01*
X207459942Y-435443809D02*
X207507561Y-435491428D01*
X207507561Y-435491428D02*
X207555180Y-435586666D01*
X207555180Y-435586666D02*
X207555180Y-435824761D01*
X207555180Y-435824761D02*
X207507561Y-435919999D01*
X207507561Y-435919999D02*
X207459942Y-435967618D01*
X207459942Y-435967618D02*
X207364704Y-436015237D01*
X207364704Y-436015237D02*
X207269466Y-436015237D01*
X207269466Y-436015237D02*
X207126609Y-435967618D01*
X207126609Y-435967618D02*
X206555180Y-435396190D01*
X206555180Y-435396190D02*
X206555180Y-436015237D01*
X206555180Y-436967618D02*
X206555180Y-436396190D01*
X206555180Y-436681904D02*
X207555180Y-436681904D01*
X207555180Y-436681904D02*
X207412323Y-436586666D01*
X207412323Y-436586666D02*
X207317085Y-436491428D01*
X207317085Y-436491428D02*
X207269466Y-436396190D01*
X206459942Y-437158095D02*
X206459942Y-437919999D01*
X206555180Y-438158095D02*
X207555180Y-438158095D01*
X207555180Y-438158095D02*
X207555180Y-438539047D01*
X207555180Y-438539047D02*
X207507561Y-438634285D01*
X207507561Y-438634285D02*
X207459942Y-438681904D01*
X207459942Y-438681904D02*
X207364704Y-438729523D01*
X207364704Y-438729523D02*
X207221847Y-438729523D01*
X207221847Y-438729523D02*
X207126609Y-438681904D01*
X207126609Y-438681904D02*
X207078990Y-438634285D01*
X207078990Y-438634285D02*
X207031371Y-438539047D01*
X207031371Y-438539047D02*
X207031371Y-438158095D01*
X206555180Y-439158095D02*
X207555180Y-439158095D01*
X207555180Y-439158095D02*
X207555180Y-439396190D01*
X207555180Y-439396190D02*
X207507561Y-439539047D01*
X207507561Y-439539047D02*
X207412323Y-439634285D01*
X207412323Y-439634285D02*
X207317085Y-439681904D01*
X207317085Y-439681904D02*
X207126609Y-439729523D01*
X207126609Y-439729523D02*
X206983752Y-439729523D01*
X206983752Y-439729523D02*
X206793276Y-439681904D01*
X206793276Y-439681904D02*
X206698038Y-439634285D01*
X206698038Y-439634285D02*
X206602800Y-439539047D01*
X206602800Y-439539047D02*
X206555180Y-439396190D01*
X206555180Y-439396190D02*
X206555180Y-439158095D01*
X206555180Y-440158095D02*
X207555180Y-440158095D01*
X207555180Y-440158095D02*
X207555180Y-440539047D01*
X207555180Y-440539047D02*
X207507561Y-440634285D01*
X207507561Y-440634285D02*
X207459942Y-440681904D01*
X207459942Y-440681904D02*
X207364704Y-440729523D01*
X207364704Y-440729523D02*
X207221847Y-440729523D01*
X207221847Y-440729523D02*
X207126609Y-440681904D01*
X207126609Y-440681904D02*
X207078990Y-440634285D01*
X207078990Y-440634285D02*
X207031371Y-440539047D01*
X207031371Y-440539047D02*
X207031371Y-440158095D01*
X206459942Y-440920000D02*
X206459942Y-441681904D01*
X206555180Y-441920000D02*
X207555180Y-441920000D01*
X207078990Y-442729523D02*
X207078990Y-442396190D01*
X206555180Y-442396190D02*
X207555180Y-442396190D01*
X207555180Y-442396190D02*
X207555180Y-442872380D01*
X206459942Y-443015238D02*
X206459942Y-443777142D01*
X207555180Y-444300952D02*
X206840895Y-444300952D01*
X206840895Y-444300952D02*
X206698038Y-444253333D01*
X206698038Y-444253333D02*
X206602800Y-444158095D01*
X206602800Y-444158095D02*
X206555180Y-444015238D01*
X206555180Y-444015238D02*
X206555180Y-443920000D01*
X207459942Y-444729524D02*
X207507561Y-444777143D01*
X207507561Y-444777143D02*
X207555180Y-444872381D01*
X207555180Y-444872381D02*
X207555180Y-445110476D01*
X207555180Y-445110476D02*
X207507561Y-445205714D01*
X207507561Y-445205714D02*
X207459942Y-445253333D01*
X207459942Y-445253333D02*
X207364704Y-445300952D01*
X207364704Y-445300952D02*
X207269466Y-445300952D01*
X207269466Y-445300952D02*
X207126609Y-445253333D01*
X207126609Y-445253333D02*
X206555180Y-444681905D01*
X206555180Y-444681905D02*
X206555180Y-445300952D01*
X395296190Y-423634819D02*
X395296190Y-424444342D01*
X395296190Y-424444342D02*
X395343809Y-424539580D01*
X395343809Y-424539580D02*
X395391428Y-424587200D01*
X395391428Y-424587200D02*
X395486666Y-424634819D01*
X395486666Y-424634819D02*
X395677142Y-424634819D01*
X395677142Y-424634819D02*
X395772380Y-424587200D01*
X395772380Y-424587200D02*
X395819999Y-424539580D01*
X395819999Y-424539580D02*
X395867618Y-424444342D01*
X395867618Y-424444342D02*
X395867618Y-423634819D01*
X396343809Y-424634819D02*
X396343809Y-423634819D01*
X396343809Y-423634819D02*
X396915237Y-424634819D01*
X396915237Y-424634819D02*
X396915237Y-423634819D01*
X397391428Y-424634819D02*
X397391428Y-423634819D01*
X398200951Y-424111009D02*
X398343808Y-424158628D01*
X398343808Y-424158628D02*
X398391427Y-424206247D01*
X398391427Y-424206247D02*
X398439046Y-424301485D01*
X398439046Y-424301485D02*
X398439046Y-424444342D01*
X398439046Y-424444342D02*
X398391427Y-424539580D01*
X398391427Y-424539580D02*
X398343808Y-424587200D01*
X398343808Y-424587200D02*
X398248570Y-424634819D01*
X398248570Y-424634819D02*
X397867618Y-424634819D01*
X397867618Y-424634819D02*
X397867618Y-423634819D01*
X397867618Y-423634819D02*
X398200951Y-423634819D01*
X398200951Y-423634819D02*
X398296189Y-423682438D01*
X398296189Y-423682438D02*
X398343808Y-423730057D01*
X398343808Y-423730057D02*
X398391427Y-423825295D01*
X398391427Y-423825295D02*
X398391427Y-423920533D01*
X398391427Y-423920533D02*
X398343808Y-424015771D01*
X398343808Y-424015771D02*
X398296189Y-424063390D01*
X398296189Y-424063390D02*
X398200951Y-424111009D01*
X398200951Y-424111009D02*
X397867618Y-424111009D01*
X398867618Y-423634819D02*
X398867618Y-424444342D01*
X398867618Y-424444342D02*
X398915237Y-424539580D01*
X398915237Y-424539580D02*
X398962856Y-424587200D01*
X398962856Y-424587200D02*
X399058094Y-424634819D01*
X399058094Y-424634819D02*
X399248570Y-424634819D01*
X399248570Y-424634819D02*
X399343808Y-424587200D01*
X399343808Y-424587200D02*
X399391427Y-424539580D01*
X399391427Y-424539580D02*
X399439046Y-424444342D01*
X399439046Y-424444342D02*
X399439046Y-423634819D01*
X399867618Y-424587200D02*
X400010475Y-424634819D01*
X400010475Y-424634819D02*
X400248570Y-424634819D01*
X400248570Y-424634819D02*
X400343808Y-424587200D01*
X400343808Y-424587200D02*
X400391427Y-424539580D01*
X400391427Y-424539580D02*
X400439046Y-424444342D01*
X400439046Y-424444342D02*
X400439046Y-424349104D01*
X400439046Y-424349104D02*
X400391427Y-424253866D01*
X400391427Y-424253866D02*
X400343808Y-424206247D01*
X400343808Y-424206247D02*
X400248570Y-424158628D01*
X400248570Y-424158628D02*
X400058094Y-424111009D01*
X400058094Y-424111009D02*
X399962856Y-424063390D01*
X399962856Y-424063390D02*
X399915237Y-424015771D01*
X399915237Y-424015771D02*
X399867618Y-423920533D01*
X399867618Y-423920533D02*
X399867618Y-423825295D01*
X399867618Y-423825295D02*
X399915237Y-423730057D01*
X399915237Y-423730057D02*
X399962856Y-423682438D01*
X399962856Y-423682438D02*
X400058094Y-423634819D01*
X400058094Y-423634819D02*
X400296189Y-423634819D01*
X400296189Y-423634819D02*
X400439046Y-423682438D01*
X400629523Y-424730057D02*
X401391427Y-424730057D01*
X401534285Y-423634819D02*
X402200951Y-424634819D01*
X402200951Y-423634819D02*
X401534285Y-424634819D01*
X402915237Y-424111009D02*
X402581904Y-424111009D01*
X402581904Y-424634819D02*
X402581904Y-423634819D01*
X402581904Y-423634819D02*
X403058094Y-423634819D01*
X403439047Y-424111009D02*
X403772380Y-424111009D01*
X403915237Y-424634819D02*
X403439047Y-424634819D01*
X403439047Y-424634819D02*
X403439047Y-423634819D01*
X403439047Y-423634819D02*
X403915237Y-423634819D01*
X404915237Y-424634819D02*
X404581904Y-424158628D01*
X404343809Y-424634819D02*
X404343809Y-423634819D01*
X404343809Y-423634819D02*
X404724761Y-423634819D01*
X404724761Y-423634819D02*
X404819999Y-423682438D01*
X404819999Y-423682438D02*
X404867618Y-423730057D01*
X404867618Y-423730057D02*
X404915237Y-423825295D01*
X404915237Y-423825295D02*
X404915237Y-423968152D01*
X404915237Y-423968152D02*
X404867618Y-424063390D01*
X404867618Y-424063390D02*
X404819999Y-424111009D01*
X404819999Y-424111009D02*
X404724761Y-424158628D01*
X404724761Y-424158628D02*
X404343809Y-424158628D01*
X405105714Y-424730057D02*
X405867618Y-424730057D01*
X406391428Y-423634819D02*
X406391428Y-424349104D01*
X406391428Y-424349104D02*
X406343809Y-424491961D01*
X406343809Y-424491961D02*
X406248571Y-424587200D01*
X406248571Y-424587200D02*
X406105714Y-424634819D01*
X406105714Y-424634819D02*
X406010476Y-424634819D01*
X406820000Y-423730057D02*
X406867619Y-423682438D01*
X406867619Y-423682438D02*
X406962857Y-423634819D01*
X406962857Y-423634819D02*
X407200952Y-423634819D01*
X407200952Y-423634819D02*
X407296190Y-423682438D01*
X407296190Y-423682438D02*
X407343809Y-423730057D01*
X407343809Y-423730057D02*
X407391428Y-423825295D01*
X407391428Y-423825295D02*
X407391428Y-423920533D01*
X407391428Y-423920533D02*
X407343809Y-424063390D01*
X407343809Y-424063390D02*
X406772381Y-424634819D01*
X406772381Y-424634819D02*
X407391428Y-424634819D01*
X478322380Y-426920819D02*
X478322380Y-425920819D01*
X478798570Y-426254152D02*
X478798570Y-426920819D01*
X478798570Y-426349390D02*
X478846189Y-426301771D01*
X478846189Y-426301771D02*
X478941427Y-426254152D01*
X478941427Y-426254152D02*
X479084284Y-426254152D01*
X479084284Y-426254152D02*
X479179522Y-426301771D01*
X479179522Y-426301771D02*
X479227141Y-426397009D01*
X479227141Y-426397009D02*
X479227141Y-426920819D01*
X480131903Y-426920819D02*
X480131903Y-425920819D01*
X480131903Y-426873200D02*
X480036665Y-426920819D01*
X480036665Y-426920819D02*
X479846189Y-426920819D01*
X479846189Y-426920819D02*
X479750951Y-426873200D01*
X479750951Y-426873200D02*
X479703332Y-426825580D01*
X479703332Y-426825580D02*
X479655713Y-426730342D01*
X479655713Y-426730342D02*
X479655713Y-426444628D01*
X479655713Y-426444628D02*
X479703332Y-426349390D01*
X479703332Y-426349390D02*
X479750951Y-426301771D01*
X479750951Y-426301771D02*
X479846189Y-426254152D01*
X479846189Y-426254152D02*
X480036665Y-426254152D01*
X480036665Y-426254152D02*
X480131903Y-426301771D01*
X480608094Y-426920819D02*
X480608094Y-426254152D01*
X480608094Y-425920819D02*
X480560475Y-425968438D01*
X480560475Y-425968438D02*
X480608094Y-426016057D01*
X480608094Y-426016057D02*
X480655713Y-425968438D01*
X480655713Y-425968438D02*
X480608094Y-425920819D01*
X480608094Y-425920819D02*
X480608094Y-426016057D01*
X481512855Y-426873200D02*
X481417617Y-426920819D01*
X481417617Y-426920819D02*
X481227141Y-426920819D01*
X481227141Y-426920819D02*
X481131903Y-426873200D01*
X481131903Y-426873200D02*
X481084284Y-426825580D01*
X481084284Y-426825580D02*
X481036665Y-426730342D01*
X481036665Y-426730342D02*
X481036665Y-426444628D01*
X481036665Y-426444628D02*
X481084284Y-426349390D01*
X481084284Y-426349390D02*
X481131903Y-426301771D01*
X481131903Y-426301771D02*
X481227141Y-426254152D01*
X481227141Y-426254152D02*
X481417617Y-426254152D01*
X481417617Y-426254152D02*
X481512855Y-426301771D01*
X482369998Y-426920819D02*
X482369998Y-426397009D01*
X482369998Y-426397009D02*
X482322379Y-426301771D01*
X482322379Y-426301771D02*
X482227141Y-426254152D01*
X482227141Y-426254152D02*
X482036665Y-426254152D01*
X482036665Y-426254152D02*
X481941427Y-426301771D01*
X482369998Y-426873200D02*
X482274760Y-426920819D01*
X482274760Y-426920819D02*
X482036665Y-426920819D01*
X482036665Y-426920819D02*
X481941427Y-426873200D01*
X481941427Y-426873200D02*
X481893808Y-426777961D01*
X481893808Y-426777961D02*
X481893808Y-426682723D01*
X481893808Y-426682723D02*
X481941427Y-426587485D01*
X481941427Y-426587485D02*
X482036665Y-426539866D01*
X482036665Y-426539866D02*
X482274760Y-426539866D01*
X482274760Y-426539866D02*
X482369998Y-426492247D01*
X482703332Y-426254152D02*
X483084284Y-426254152D01*
X482846189Y-425920819D02*
X482846189Y-426777961D01*
X482846189Y-426777961D02*
X482893808Y-426873200D01*
X482893808Y-426873200D02*
X482989046Y-426920819D01*
X482989046Y-426920819D02*
X483084284Y-426920819D01*
X483560475Y-426920819D02*
X483465237Y-426873200D01*
X483465237Y-426873200D02*
X483417618Y-426825580D01*
X483417618Y-426825580D02*
X483369999Y-426730342D01*
X483369999Y-426730342D02*
X483369999Y-426444628D01*
X483369999Y-426444628D02*
X483417618Y-426349390D01*
X483417618Y-426349390D02*
X483465237Y-426301771D01*
X483465237Y-426301771D02*
X483560475Y-426254152D01*
X483560475Y-426254152D02*
X483703332Y-426254152D01*
X483703332Y-426254152D02*
X483798570Y-426301771D01*
X483798570Y-426301771D02*
X483846189Y-426349390D01*
X483846189Y-426349390D02*
X483893808Y-426444628D01*
X483893808Y-426444628D02*
X483893808Y-426730342D01*
X483893808Y-426730342D02*
X483846189Y-426825580D01*
X483846189Y-426825580D02*
X483798570Y-426873200D01*
X483798570Y-426873200D02*
X483703332Y-426920819D01*
X483703332Y-426920819D02*
X483560475Y-426920819D01*
X484322380Y-426920819D02*
X484322380Y-426254152D01*
X484322380Y-426444628D02*
X484369999Y-426349390D01*
X484369999Y-426349390D02*
X484417618Y-426301771D01*
X484417618Y-426301771D02*
X484512856Y-426254152D01*
X484512856Y-426254152D02*
X484608094Y-426254152D01*
X485703333Y-426920819D02*
X485703333Y-425920819D01*
X485703333Y-425920819D02*
X486084285Y-425920819D01*
X486084285Y-425920819D02*
X486179523Y-425968438D01*
X486179523Y-425968438D02*
X486227142Y-426016057D01*
X486227142Y-426016057D02*
X486274761Y-426111295D01*
X486274761Y-426111295D02*
X486274761Y-426254152D01*
X486274761Y-426254152D02*
X486227142Y-426349390D01*
X486227142Y-426349390D02*
X486179523Y-426397009D01*
X486179523Y-426397009D02*
X486084285Y-426444628D01*
X486084285Y-426444628D02*
X485703333Y-426444628D01*
X487131904Y-426920819D02*
X487131904Y-426397009D01*
X487131904Y-426397009D02*
X487084285Y-426301771D01*
X487084285Y-426301771D02*
X486989047Y-426254152D01*
X486989047Y-426254152D02*
X486798571Y-426254152D01*
X486798571Y-426254152D02*
X486703333Y-426301771D01*
X487131904Y-426873200D02*
X487036666Y-426920819D01*
X487036666Y-426920819D02*
X486798571Y-426920819D01*
X486798571Y-426920819D02*
X486703333Y-426873200D01*
X486703333Y-426873200D02*
X486655714Y-426777961D01*
X486655714Y-426777961D02*
X486655714Y-426682723D01*
X486655714Y-426682723D02*
X486703333Y-426587485D01*
X486703333Y-426587485D02*
X486798571Y-426539866D01*
X486798571Y-426539866D02*
X487036666Y-426539866D01*
X487036666Y-426539866D02*
X487131904Y-426492247D01*
X487608095Y-426254152D02*
X487608095Y-426920819D01*
X487608095Y-426349390D02*
X487655714Y-426301771D01*
X487655714Y-426301771D02*
X487750952Y-426254152D01*
X487750952Y-426254152D02*
X487893809Y-426254152D01*
X487893809Y-426254152D02*
X487989047Y-426301771D01*
X487989047Y-426301771D02*
X488036666Y-426397009D01*
X488036666Y-426397009D02*
X488036666Y-426920819D01*
X488893809Y-426873200D02*
X488798571Y-426920819D01*
X488798571Y-426920819D02*
X488608095Y-426920819D01*
X488608095Y-426920819D02*
X488512857Y-426873200D01*
X488512857Y-426873200D02*
X488465238Y-426777961D01*
X488465238Y-426777961D02*
X488465238Y-426397009D01*
X488465238Y-426397009D02*
X488512857Y-426301771D01*
X488512857Y-426301771D02*
X488608095Y-426254152D01*
X488608095Y-426254152D02*
X488798571Y-426254152D01*
X488798571Y-426254152D02*
X488893809Y-426301771D01*
X488893809Y-426301771D02*
X488941428Y-426397009D01*
X488941428Y-426397009D02*
X488941428Y-426492247D01*
X488941428Y-426492247D02*
X488465238Y-426587485D01*
X489512857Y-426920819D02*
X489417619Y-426873200D01*
X489417619Y-426873200D02*
X489370000Y-426777961D01*
X489370000Y-426777961D02*
X489370000Y-425920819D01*
X552661847Y-588828094D02*
X551995180Y-588828094D01*
X553042800Y-588589999D02*
X552328514Y-588351904D01*
X552328514Y-588351904D02*
X552328514Y-588970951D01*
X552661847Y-589780475D02*
X551995180Y-589780475D01*
X553042800Y-589542380D02*
X552328514Y-589304285D01*
X552328514Y-589304285D02*
X552328514Y-589923332D01*
X552995180Y-590494761D02*
X552995180Y-590589999D01*
X552995180Y-590589999D02*
X552947561Y-590685237D01*
X552947561Y-590685237D02*
X552899942Y-590732856D01*
X552899942Y-590732856D02*
X552804704Y-590780475D01*
X552804704Y-590780475D02*
X552614228Y-590828094D01*
X552614228Y-590828094D02*
X552376133Y-590828094D01*
X552376133Y-590828094D02*
X552185657Y-590780475D01*
X552185657Y-590780475D02*
X552090419Y-590732856D01*
X552090419Y-590732856D02*
X552042800Y-590685237D01*
X552042800Y-590685237D02*
X551995180Y-590589999D01*
X551995180Y-590589999D02*
X551995180Y-590494761D01*
X551995180Y-590494761D02*
X552042800Y-590399523D01*
X552042800Y-590399523D02*
X552090419Y-590351904D01*
X552090419Y-590351904D02*
X552185657Y-590304285D01*
X552185657Y-590304285D02*
X552376133Y-590256666D01*
X552376133Y-590256666D02*
X552614228Y-590256666D01*
X552614228Y-590256666D02*
X552804704Y-590304285D01*
X552804704Y-590304285D02*
X552899942Y-590351904D01*
X552899942Y-590351904D02*
X552947561Y-590399523D01*
X552947561Y-590399523D02*
X552995180Y-590494761D01*
X552899942Y-591209047D02*
X552947561Y-591256666D01*
X552947561Y-591256666D02*
X552995180Y-591351904D01*
X552995180Y-591351904D02*
X552995180Y-591589999D01*
X552995180Y-591589999D02*
X552947561Y-591685237D01*
X552947561Y-591685237D02*
X552899942Y-591732856D01*
X552899942Y-591732856D02*
X552804704Y-591780475D01*
X552804704Y-591780475D02*
X552709466Y-591780475D01*
X552709466Y-591780475D02*
X552566609Y-591732856D01*
X552566609Y-591732856D02*
X551995180Y-591161428D01*
X551995180Y-591161428D02*
X551995180Y-591780475D01*
X551899942Y-591970952D02*
X551899942Y-592732856D01*
X551995180Y-592970952D02*
X552995180Y-592970952D01*
X552995180Y-592970952D02*
X552995180Y-593209047D01*
X552995180Y-593209047D02*
X552947561Y-593351904D01*
X552947561Y-593351904D02*
X552852323Y-593447142D01*
X552852323Y-593447142D02*
X552757085Y-593494761D01*
X552757085Y-593494761D02*
X552566609Y-593542380D01*
X552566609Y-593542380D02*
X552423752Y-593542380D01*
X552423752Y-593542380D02*
X552233276Y-593494761D01*
X552233276Y-593494761D02*
X552138038Y-593447142D01*
X552138038Y-593447142D02*
X552042800Y-593351904D01*
X552042800Y-593351904D02*
X551995180Y-593209047D01*
X551995180Y-593209047D02*
X551995180Y-592970952D01*
X551995180Y-593970952D02*
X552995180Y-593970952D01*
X552995180Y-593970952D02*
X552995180Y-594351904D01*
X552995180Y-594351904D02*
X552947561Y-594447142D01*
X552947561Y-594447142D02*
X552899942Y-594494761D01*
X552899942Y-594494761D02*
X552804704Y-594542380D01*
X552804704Y-594542380D02*
X552661847Y-594542380D01*
X552661847Y-594542380D02*
X552566609Y-594494761D01*
X552566609Y-594494761D02*
X552518990Y-594447142D01*
X552518990Y-594447142D02*
X552471371Y-594351904D01*
X552471371Y-594351904D02*
X552471371Y-593970952D01*
X551995180Y-595447142D02*
X551995180Y-594970952D01*
X551995180Y-594970952D02*
X552995180Y-594970952D01*
X551899942Y-595542381D02*
X551899942Y-596304285D01*
X552995180Y-596828095D02*
X552280895Y-596828095D01*
X552280895Y-596828095D02*
X552138038Y-596780476D01*
X552138038Y-596780476D02*
X552042800Y-596685238D01*
X552042800Y-596685238D02*
X551995180Y-596542381D01*
X551995180Y-596542381D02*
X551995180Y-596447143D01*
X551995180Y-597828095D02*
X551995180Y-597256667D01*
X551995180Y-597542381D02*
X552995180Y-597542381D01*
X552995180Y-597542381D02*
X552852323Y-597447143D01*
X552852323Y-597447143D02*
X552757085Y-597351905D01*
X552757085Y-597351905D02*
X552709466Y-597256667D01*
X207221847Y-588828094D02*
X206555180Y-588828094D01*
X207602800Y-588589999D02*
X206888514Y-588351904D01*
X206888514Y-588351904D02*
X206888514Y-588970951D01*
X207221847Y-589780475D02*
X206555180Y-589780475D01*
X207602800Y-589542380D02*
X206888514Y-589304285D01*
X206888514Y-589304285D02*
X206888514Y-589923332D01*
X207555180Y-590494761D02*
X207555180Y-590589999D01*
X207555180Y-590589999D02*
X207507561Y-590685237D01*
X207507561Y-590685237D02*
X207459942Y-590732856D01*
X207459942Y-590732856D02*
X207364704Y-590780475D01*
X207364704Y-590780475D02*
X207174228Y-590828094D01*
X207174228Y-590828094D02*
X206936133Y-590828094D01*
X206936133Y-590828094D02*
X206745657Y-590780475D01*
X206745657Y-590780475D02*
X206650419Y-590732856D01*
X206650419Y-590732856D02*
X206602800Y-590685237D01*
X206602800Y-590685237D02*
X206555180Y-590589999D01*
X206555180Y-590589999D02*
X206555180Y-590494761D01*
X206555180Y-590494761D02*
X206602800Y-590399523D01*
X206602800Y-590399523D02*
X206650419Y-590351904D01*
X206650419Y-590351904D02*
X206745657Y-590304285D01*
X206745657Y-590304285D02*
X206936133Y-590256666D01*
X206936133Y-590256666D02*
X207174228Y-590256666D01*
X207174228Y-590256666D02*
X207364704Y-590304285D01*
X207364704Y-590304285D02*
X207459942Y-590351904D01*
X207459942Y-590351904D02*
X207507561Y-590399523D01*
X207507561Y-590399523D02*
X207555180Y-590494761D01*
X207459942Y-591209047D02*
X207507561Y-591256666D01*
X207507561Y-591256666D02*
X207555180Y-591351904D01*
X207555180Y-591351904D02*
X207555180Y-591589999D01*
X207555180Y-591589999D02*
X207507561Y-591685237D01*
X207507561Y-591685237D02*
X207459942Y-591732856D01*
X207459942Y-591732856D02*
X207364704Y-591780475D01*
X207364704Y-591780475D02*
X207269466Y-591780475D01*
X207269466Y-591780475D02*
X207126609Y-591732856D01*
X207126609Y-591732856D02*
X206555180Y-591161428D01*
X206555180Y-591161428D02*
X206555180Y-591780475D01*
X206459942Y-591970952D02*
X206459942Y-592732856D01*
X206555180Y-592970952D02*
X207555180Y-592970952D01*
X207555180Y-592970952D02*
X207555180Y-593209047D01*
X207555180Y-593209047D02*
X207507561Y-593351904D01*
X207507561Y-593351904D02*
X207412323Y-593447142D01*
X207412323Y-593447142D02*
X207317085Y-593494761D01*
X207317085Y-593494761D02*
X207126609Y-593542380D01*
X207126609Y-593542380D02*
X206983752Y-593542380D01*
X206983752Y-593542380D02*
X206793276Y-593494761D01*
X206793276Y-593494761D02*
X206698038Y-593447142D01*
X206698038Y-593447142D02*
X206602800Y-593351904D01*
X206602800Y-593351904D02*
X206555180Y-593209047D01*
X206555180Y-593209047D02*
X206555180Y-592970952D01*
X206555180Y-593970952D02*
X207555180Y-593970952D01*
X207555180Y-593970952D02*
X207555180Y-594351904D01*
X207555180Y-594351904D02*
X207507561Y-594447142D01*
X207507561Y-594447142D02*
X207459942Y-594494761D01*
X207459942Y-594494761D02*
X207364704Y-594542380D01*
X207364704Y-594542380D02*
X207221847Y-594542380D01*
X207221847Y-594542380D02*
X207126609Y-594494761D01*
X207126609Y-594494761D02*
X207078990Y-594447142D01*
X207078990Y-594447142D02*
X207031371Y-594351904D01*
X207031371Y-594351904D02*
X207031371Y-593970952D01*
X206555180Y-595447142D02*
X206555180Y-594970952D01*
X206555180Y-594970952D02*
X207555180Y-594970952D01*
X206459942Y-595542381D02*
X206459942Y-596304285D01*
X207555180Y-596828095D02*
X206840895Y-596828095D01*
X206840895Y-596828095D02*
X206698038Y-596780476D01*
X206698038Y-596780476D02*
X206602800Y-596685238D01*
X206602800Y-596685238D02*
X206555180Y-596542381D01*
X206555180Y-596542381D02*
X206555180Y-596447143D01*
X207459942Y-597256667D02*
X207507561Y-597304286D01*
X207507561Y-597304286D02*
X207555180Y-597399524D01*
X207555180Y-597399524D02*
X207555180Y-597637619D01*
X207555180Y-597637619D02*
X207507561Y-597732857D01*
X207507561Y-597732857D02*
X207459942Y-597780476D01*
X207459942Y-597780476D02*
X207364704Y-597828095D01*
X207364704Y-597828095D02*
X207269466Y-597828095D01*
X207269466Y-597828095D02*
X207126609Y-597780476D01*
X207126609Y-597780476D02*
X206555180Y-597209048D01*
X206555180Y-597209048D02*
X206555180Y-597828095D01*
D12*
%TO.C,J23*%
X529082000Y-486935000D02*
X525018000Y-486935000D01*
X529082000Y-489695000D02*
X525018000Y-489695000D01*
%TO.C,4429_FMT_J1*%
D13*
X551180000Y-448310000D02*
X386080000Y-448310000D01*
X386080000Y-458470000D01*
X551180000Y-458470000D01*
X551180000Y-448310000D01*
D12*
%TO.C,UNIBUS_XFER_J1*%
X300880000Y-425340000D02*
X364600000Y-425340000D01*
X300880000Y-427990000D02*
X300880000Y-425340000D01*
X300880000Y-430640000D02*
X300880000Y-429260000D01*
X302260000Y-430640000D02*
X300880000Y-430640000D01*
X303530000Y-427990000D02*
X300880000Y-427990000D01*
X303530000Y-430640000D02*
X303530000Y-427990000D01*
X303530000Y-430640000D02*
X364600000Y-430640000D01*
X364600000Y-430640000D02*
X364600000Y-425340000D01*
%TO.C,4425_TM_J2*%
D13*
X368300000Y-532130000D02*
X208280000Y-532130000D01*
X208280000Y-542290000D01*
X368300000Y-542290000D01*
X368300000Y-532130000D01*
D12*
%TO.C,J8*%
X540258000Y-556785000D02*
X544322000Y-556785000D01*
X540258000Y-559545000D02*
X544322000Y-559545000D01*
%TO.C,J40*%
X221742000Y-487316000D02*
X217678000Y-487316000D01*
X221742000Y-490076000D02*
X217678000Y-490076000D01*
%TO.C,J18*%
X529082000Y-514875000D02*
X525018000Y-514875000D01*
X529082000Y-517635000D02*
X525018000Y-517635000D01*
%TO.C,J41*%
X543687000Y-445152000D02*
X539623000Y-445152000D01*
X543687000Y-447912000D02*
X539623000Y-447912000D01*
%TO.C,J5*%
X544322000Y-598695000D02*
X540258000Y-598695000D01*
X544322000Y-601455000D02*
X540258000Y-601455000D01*
%TO.C,4401_FA_J2*%
D13*
X368300000Y-601980000D02*
X208280000Y-601980000D01*
X208280000Y-612140000D01*
X368300000Y-612140000D01*
X368300000Y-601980000D01*
D12*
%TO.C,J16*%
X535178000Y-528845000D02*
X539242000Y-528845000D01*
X535178000Y-531605000D02*
X539242000Y-531605000D01*
%TO.C,J10*%
X530098000Y-570755000D02*
X534162000Y-570755000D01*
X530098000Y-573515000D02*
X534162000Y-573515000D01*
%TO.C,J34*%
X519938000Y-500778000D02*
X524002000Y-500778000D01*
X519938000Y-503538000D02*
X524002000Y-503538000D01*
%TO.C,J31*%
X535178000Y-500778000D02*
X539242000Y-500778000D01*
X535178000Y-503538000D02*
X539242000Y-503538000D01*
%TO.C,4422_P1_J3*%
D13*
X551180000Y-504190000D02*
X391160000Y-504190000D01*
X391160000Y-514350000D01*
X551180000Y-514350000D01*
X551180000Y-504190000D01*
D12*
%TO.C,J36*%
X513842000Y-500778000D02*
X509778000Y-500778000D01*
X513842000Y-503538000D02*
X509778000Y-503538000D01*
%TO.C,J21*%
X539242000Y-486935000D02*
X535178000Y-486935000D01*
X539242000Y-489695000D02*
X535178000Y-489695000D01*
%TO.C,J32*%
X530098000Y-500778000D02*
X534162000Y-500778000D01*
X530098000Y-503538000D02*
X534162000Y-503538000D01*
%TO.C,J3*%
X525018000Y-598695000D02*
X529082000Y-598695000D01*
X525018000Y-601455000D02*
X529082000Y-601455000D01*
%TO.C,J14*%
X540258000Y-528845000D02*
X544322000Y-528845000D01*
X540258000Y-531605000D02*
X544322000Y-531605000D01*
%TO.C,J22*%
X534162000Y-486935000D02*
X530098000Y-486935000D01*
X534162000Y-489695000D02*
X530098000Y-489695000D01*
%TO.C,J1*%
X535178000Y-598695000D02*
X539242000Y-598695000D01*
X535178000Y-601455000D02*
X539242000Y-601455000D01*
%TO.C,4402_DPR_J2*%
D13*
X368300000Y-574040000D02*
X208280000Y-574040000D01*
X208280000Y-584200000D01*
X368300000Y-584200000D01*
X368300000Y-574040000D01*
%TO.C,4402_DPR_J1*%
X551180000Y-574040000D02*
X391160000Y-574040000D01*
X391160000Y-584200000D01*
X551180000Y-584200000D01*
X551180000Y-574040000D01*
D12*
%TO.C,J33*%
X525018000Y-500778000D02*
X529082000Y-500778000D01*
X525018000Y-503538000D02*
X529082000Y-503538000D01*
%TO.C,Spare1_J1*%
D13*
X551180000Y-476250000D02*
X391160000Y-476250000D01*
X391160000Y-486410000D01*
X551180000Y-486410000D01*
X551180000Y-476250000D01*
%TO.C,4408_P3_J2*%
X368300000Y-490220000D02*
X208280000Y-490220000D01*
X208280000Y-500380000D01*
X368300000Y-500380000D01*
X368300000Y-490220000D01*
%TO.C,4421_PDP_IF_J1*%
X551180000Y-434340000D02*
X386080000Y-434340000D01*
X386080000Y-444500000D01*
X551180000Y-444500000D01*
X551180000Y-434340000D01*
%TO.C,4425_TM_J1*%
X551180000Y-532130000D02*
X391160000Y-532130000D01*
X391160000Y-542290000D01*
X551180000Y-542290000D01*
X551180000Y-532130000D01*
D12*
%TO.C,J29*%
X544322000Y-472838000D02*
X540258000Y-472838000D01*
X544322000Y-475598000D02*
X540258000Y-475598000D01*
%TO.C,4401_FA_J1*%
D13*
X551180000Y-601980000D02*
X391160000Y-601980000D01*
X391160000Y-612140000D01*
X551180000Y-612140000D01*
X551180000Y-601980000D01*
%TO.C,Spare2_J4*%
X374015000Y-462280000D02*
X208915000Y-462280000D01*
X208915000Y-472440000D01*
X374015000Y-472440000D01*
X374015000Y-462280000D01*
%TO.C,4423_P2_J2*%
X368300000Y-518160000D02*
X208280000Y-518160000D01*
X208280000Y-528320000D01*
X368300000Y-528320000D01*
X368300000Y-518160000D01*
D12*
%TO.C,J35*%
X508762000Y-500778000D02*
X504698000Y-500778000D01*
X508762000Y-503538000D02*
X504698000Y-503538000D01*
%TO.C,Spare1_J2*%
D13*
X368300000Y-476250000D02*
X208280000Y-476250000D01*
X208280000Y-486410000D01*
X368300000Y-486410000D01*
X368300000Y-476250000D01*
D12*
%TO.C,J37*%
X518922000Y-500778000D02*
X514858000Y-500778000D01*
X518922000Y-503538000D02*
X514858000Y-503538000D01*
%TO.C,J30*%
X544322000Y-500778000D02*
X540258000Y-500778000D01*
X544322000Y-503538000D02*
X540258000Y-503538000D01*
%TO.C,J24*%
X524002000Y-486935000D02*
X519938000Y-486935000D01*
X524002000Y-489695000D02*
X519938000Y-489695000D01*
%TO.C,J27*%
X534162000Y-472838000D02*
X530098000Y-472838000D01*
X534162000Y-475598000D02*
X530098000Y-475598000D01*
%TO.C,J6*%
X540258000Y-570755000D02*
X544322000Y-570755000D01*
X540258000Y-573515000D02*
X544322000Y-573515000D01*
%TO.C,4424_MD_J2*%
D13*
X368300000Y-546100000D02*
X208280000Y-546100000D01*
X208280000Y-556260000D01*
X368300000Y-556260000D01*
X368300000Y-546100000D01*
D12*
%TO.C,J13*%
X535178000Y-542815000D02*
X539242000Y-542815000D01*
X535178000Y-545575000D02*
X539242000Y-545575000D01*
%TO.C,Spare2_J3*%
D13*
X551180000Y-462280000D02*
X386080000Y-462280000D01*
X386080000Y-472440000D01*
X551180000Y-472440000D01*
X551180000Y-462280000D01*
D12*
%TO.C,J2*%
X530098000Y-598695000D02*
X534162000Y-598695000D01*
X530098000Y-601455000D02*
X534162000Y-601455000D01*
%TO.C,J9*%
X535178000Y-570755000D02*
X539242000Y-570755000D01*
X535178000Y-573515000D02*
X539242000Y-573515000D01*
%TO.C,4426_FM_J2*%
D13*
X368300000Y-560070000D02*
X208280000Y-560070000D01*
X208280000Y-570230000D01*
X368300000Y-570230000D01*
X368300000Y-560070000D01*
%TO.C,4424_MD_J1*%
X551180000Y-546100000D02*
X391160000Y-546100000D01*
X391160000Y-556260000D01*
X551180000Y-556260000D01*
X551180000Y-546100000D01*
D12*
%TO.C,J4*%
X539242000Y-584598000D02*
X535178000Y-584598000D01*
X539242000Y-587358000D02*
X535178000Y-587358000D01*
%TO.C,J12*%
X540258000Y-542815000D02*
X544322000Y-542815000D01*
X540258000Y-545575000D02*
X544322000Y-545575000D01*
%TO.C,J17*%
X534162000Y-514875000D02*
X530098000Y-514875000D01*
X534162000Y-517635000D02*
X530098000Y-517635000D01*
%TO.C,J26*%
X529082000Y-472838000D02*
X525018000Y-472838000D01*
X529082000Y-475598000D02*
X525018000Y-475598000D01*
%TO.C,4429_FMT_J2*%
D13*
X374015000Y-448310000D02*
X208915000Y-448310000D01*
X208915000Y-458470000D01*
X374015000Y-458470000D01*
X374015000Y-448310000D01*
D12*
%TO.C,J25*%
X524002000Y-472838000D02*
X519938000Y-472838000D01*
X524002000Y-475598000D02*
X519938000Y-475598000D01*
%TO.C,J7*%
X544322000Y-584598000D02*
X540258000Y-584598000D01*
X544322000Y-587358000D02*
X540258000Y-587358000D01*
%TO.C,J15*%
X540258000Y-514875000D02*
X544322000Y-514875000D01*
X540258000Y-517635000D02*
X544322000Y-517635000D01*
%TO.C,4422_P1_J4*%
D13*
X368300000Y-504190000D02*
X208280000Y-504190000D01*
X208280000Y-514350000D01*
X368300000Y-514350000D01*
X368300000Y-504190000D01*
%TO.C,4423_P2_J1*%
X551180000Y-518160000D02*
X391160000Y-518160000D01*
X391160000Y-528320000D01*
X551180000Y-528320000D01*
X551180000Y-518160000D01*
%TO.C,4408_P3_J1*%
X551180000Y-490220000D02*
X391160000Y-490220000D01*
X391160000Y-500380000D01*
X551180000Y-500380000D01*
X551180000Y-490220000D01*
D12*
%TO.C,J11*%
X539242000Y-556785000D02*
X535178000Y-556785000D01*
X539242000Y-559545000D02*
X535178000Y-559545000D01*
%TO.C,4426_FM_J1*%
D13*
X551180000Y-560070000D02*
X391160000Y-560070000D01*
X391160000Y-570230000D01*
X551180000Y-570230000D01*
X551180000Y-560070000D01*
%TO.C,4421_PDP_IF_J2*%
X374015000Y-434340000D02*
X208915000Y-434340000D01*
X208915000Y-444500000D01*
X374015000Y-444500000D01*
X374015000Y-434340000D01*
D12*
%TO.C,J20*%
X540258000Y-486935000D02*
X544322000Y-486935000D01*
X540258000Y-489695000D02*
X544322000Y-489695000D01*
%TO.C,UNIBUS_XFER_J2*%
X394860000Y-425340000D02*
X458580000Y-425340000D01*
X394860000Y-427990000D02*
X394860000Y-425340000D01*
X394860000Y-430640000D02*
X394860000Y-429260000D01*
X396240000Y-430640000D02*
X394860000Y-430640000D01*
X397510000Y-427990000D02*
X394860000Y-427990000D01*
X397510000Y-430640000D02*
X397510000Y-427990000D01*
X397510000Y-430640000D02*
X458580000Y-430640000D01*
X458580000Y-430640000D02*
X458580000Y-425340000D01*
%TO.C,J19*%
X535178000Y-514875000D02*
X539242000Y-514875000D01*
X535178000Y-517635000D02*
X539242000Y-517635000D01*
%TO.C,J38*%
X292862000Y-445406000D02*
X288798000Y-445406000D01*
X292862000Y-448166000D02*
X288798000Y-448166000D01*
%TO.C,J28*%
X539242000Y-472838000D02*
X535178000Y-472838000D01*
X539242000Y-475598000D02*
X535178000Y-475598000D01*
%TO.C,J39*%
X478680000Y-427880000D02*
X478680000Y-430640000D01*
X486410000Y-427880000D02*
X478680000Y-427880000D01*
X486410000Y-427880000D02*
X486410000Y-430640000D01*
X486410000Y-430640000D02*
X478680000Y-430640000D01*
X487680000Y-427880000D02*
X489060000Y-427880000D01*
X489060000Y-427880000D02*
X489060000Y-429260000D01*
%TO.C,4402_DPL_J1*%
D13*
X551180000Y-588010000D02*
X391160000Y-588010000D01*
X391160000Y-598170000D01*
X551180000Y-598170000D01*
X551180000Y-588010000D01*
%TO.C,4402_DPL_J2*%
X368300000Y-588010000D02*
X208280000Y-588010000D01*
X208280000Y-598170000D01*
X368300000Y-598170000D01*
X368300000Y-588010000D01*
%TD*%
M02*
