M48
; DRILL file {KiCad 9.0.7-9.0.7~ubuntu24.04.1} date 2026-02-08T23:26:21-0600
; FORMAT={-:-/ absolute / metric / decimal}
; #@! TF.CreationDate,2026-02-08T23:26:21-06:00
; #@! TF.GenerationSoftware,Kicad,Pcbnew,9.0.7-9.0.7~ubuntu24.04.1
; #@! TF.FileFunction,Plated,1,6,PTH
FMAT,2
METRIC
; #@! TA.AperFunction,Plated,PTH,ViaDrill
T1C0.300
; #@! TA.AperFunction,Plated,PTH,ViaDrill
T2C0.800
; #@! TA.AperFunction,Plated,PTH,ComponentDrill
T3C0.800
; #@! TA.AperFunction,Plated,PTH,ComponentDrill
T4C1.000
; #@! TA.AperFunction,Plated,PTH,ViaDrill
T5C6.000
%
G90
G05
T1
X216.662Y-543.052
X216.916Y-598.424
X217.17Y-559.816
X217.424Y-495.3
X217.424Y-509.27
X217.424Y-523.24
X217.424Y-542.544
X217.932Y-459.486
X218.186Y-458.978
X218.44Y-573.786
X218.44Y-584.454
X218.44Y-598.424
X219.456Y-587.756
X219.71Y-430.657
X219.964Y-494.03
X219.964Y-522.732
X220.218Y-589.534
X220.218Y-591.566
X220.98Y-573.278
X220.98Y-584.962
X221.996Y-587.248
X222.504Y-491.236
X222.504Y-517.525
X222.758Y-589.534
X222.758Y-591.566
X222.885Y-430.911
X223.52Y-514.604
X223.52Y-573.024
X223.52Y-585.216
X224.536Y-434.086
X224.536Y-503.936
X224.536Y-531.876
X224.536Y-586.994
X225.044Y-501.015
X225.298Y-589.534
X225.298Y-591.566
X226.06Y-489.839
X226.06Y-517.525
X226.06Y-572.77
X226.06Y-585.47
X226.695Y-433.578
X227.076Y-514.604
X227.076Y-543.052
X227.076Y-586.613
X227.203Y-433.324
X227.584Y-490.474
X227.584Y-503.555
X227.838Y-433.324
X227.838Y-489.712
X227.838Y-589.534
X227.838Y-591.566
X228.6Y-501.269
X228.6Y-504.571
X228.6Y-514.096
X228.6Y-517.271
X228.6Y-529.082
X228.6Y-572.516
X228.6Y-585.724
X229.235Y-431.165
X229.362Y-542.036
X229.616Y-500.507
X229.616Y-601.726
X230.124Y-499.618
X230.124Y-527.812
X230.378Y-537.845
X230.378Y-543.56
X230.378Y-559.308
X230.378Y-589.534
X230.378Y-591.439
X230.505Y-433.07
X230.632Y-552.577
X230.632Y-554.736
X230.759Y-448.564
X231.14Y-503.555
X231.14Y-517.017
X231.14Y-529.336
X231.14Y-559.816
X231.14Y-572.262
X231.14Y-585.978
X231.902Y-545.846
X232.156Y-556.514
X232.156Y-601.218
X232.41Y-431.419
X232.41Y-560.324
X232.664Y-559.816
X232.918Y-589.534
X232.918Y-591.439
X233.172Y-537.845
X233.172Y-547.497
X233.172Y-549.656
X233.172Y-552.577
X233.172Y-554.736
X233.299Y-457.581
X233.68Y-490.22
X233.68Y-503.301
X233.68Y-513.969
X233.68Y-516.763
X233.68Y-572.008
X233.68Y-586.232
X233.807Y-457.835
X234.061Y-456.565
X234.315Y-458.216
X234.442Y-559.054
X234.569Y-458.724
X234.696Y-600.964
X234.95Y-560.324
X235.204Y-500.38
X235.204Y-501.523
X235.204Y-532.384
X235.458Y-589.534
X235.458Y-591.439
X235.585Y-448.818
X235.712Y-547.497
X235.712Y-549.656
X235.712Y-552.577
X235.712Y-554.736
X235.839Y-457.708
X236.22Y-516.509
X236.22Y-529.59
X236.22Y-571.754
X236.22Y-586.486
X236.474Y-537.718
X237.109Y-458.089
X237.236Y-490.474
X237.236Y-600.71
X237.49Y-503.301
X237.744Y-451.866
X237.744Y-491.236
X237.744Y-531.876
X237.744Y-591.693
X238.125Y-454.787
X238.252Y-547.624
X238.379Y-496.697
X238.76Y-529.844
X238.76Y-569.976
X239.268Y-496.57
X239.268Y-498.856
X239.268Y-505.46
X239.268Y-543.56
X239.395Y-507.746
X239.776Y-490.728
X239.776Y-542.544
X240.284Y-531.368
X240.284Y-532.384
X240.284Y-543.052
X240.538Y-502.539
X240.538Y-503.555
X240.538Y-545.719
X240.538Y-592.201
X240.792Y-583.692
X240.919Y-454.533
X241.046Y-439.928
X241.046Y-502.285
X241.173Y-518.922
X241.3Y-570.484
X241.554Y-546.735
X241.808Y-519.049
X241.808Y-547.37
X242.062Y-598.424
X242.316Y-527.812
X242.824Y-498.856
X242.824Y-503.555
X242.824Y-513.969
X242.824Y-564.388
X242.951Y-439.928
X242.951Y-546.735
X243.078Y-547.37
X243.078Y-564.896
X243.078Y-592.201
X243.078Y-608.33
X243.205Y-493.776
X243.205Y-494.538
X243.332Y-566.674
X243.332Y-568.706
X243.84Y-503.555
X243.84Y-588.264
X243.84Y-601.726
X244.348Y-507.873
X244.475Y-493.776
X244.602Y-439.928
X244.602Y-543.814
X244.602Y-569.214
X244.602Y-588.264
X245.11Y-446.786
X245.11Y-597.916
X245.364Y-531.114
X245.364Y-532.384
X245.618Y-563.626
X245.745Y-608.33
X245.999Y-440.182
X245.999Y-592.201
X246.38Y-588.264
X246.38Y-601.726
X247.015Y-549.783
X247.142Y-499.745
X247.142Y-566.801
X247.269Y-458.724
X247.396Y-592.201
X247.904Y-555.752
X247.904Y-597.916
X248.031Y-446.532
X248.158Y-453.771
X248.158Y-499.999
X248.412Y-566.166
X248.793Y-518.795
X248.92Y-588.264
X248.92Y-601.726
X249.301Y-448.056
X249.428Y-574.294
X249.555Y-608.33
X249.682Y-457.581
X249.936Y-518.033
X249.936Y-598.424
X250.19Y-491.744
X250.19Y-512.826
X250.317Y-448.818
X250.444Y-588.645
X250.698Y-563.626
X250.698Y-582.676
X250.952Y-598.551
X251.46Y-588.264
X251.46Y-601.726
X251.714Y-574.294
X251.968Y-569.214
X251.968Y-575.31
X251.968Y-577.723
X251.968Y-592.455
X251.968Y-608.457
X252.095Y-507.746
X252.222Y-505.714
X252.476Y-546.735
X252.73Y-518.795
X252.857Y-486.029
X252.857Y-588.391
X252.984Y-560.705
X253.238Y-503.301
X253.428Y-541.337
X253.492Y-580.517
X253.492Y-582.676
X253.492Y-592.455
X253.619Y-499.11
X253.619Y-560.705
X254.0Y-486.029
X254.0Y-570.865
X254.381Y-524.637
X254.635Y-485.902
X254.635Y-510.667
X254.635Y-570.738
X254.762Y-563.626
X254.762Y-592.455
X255.27Y-570.738
X255.27Y-582.676
X255.524Y-494.538
X255.524Y-503.301
X255.524Y-524.129
X255.778Y-513.334
X256.032Y-519.684
X256.159Y-550.799
X256.54Y-499.618
X257.175Y-505.079
X257.175Y-558.546
X257.302Y-587.375
X257.302Y-592.455
X257.556Y-532.384
X257.556Y-560.705
X257.81Y-454.279
X258.064Y-550.291
X258.064Y-559.308
X258.445Y-552.704
X258.572Y-510.794
X258.699Y-453.898
X259.08Y-565.404
X259.461Y-524.129
X259.715Y-552.704
X259.842Y-437.896
X259.969Y-454.406
X260.096Y-559.054
X260.096Y-583.946
X260.096Y-592.709
X260.223Y-454.914
X260.985Y-447.04
X260.985Y-453.009
X260.985Y-552.704
X261.112Y-577.723
X261.239Y-513.08
X261.493Y-435.483
X261.62Y-564.896
X261.62Y-588.391
X261.747Y-514.985
X262.255Y-566.166
X262.382Y-550.291
X262.382Y-583.946
X262.382Y-593.979
X262.509Y-448.564
X262.636Y-451.993
X262.89Y-587.375
X263.144Y-448.564
X263.144Y-490.474
X263.144Y-503.555
X263.144Y-530.86
X263.144Y-569.976
X263.652Y-454.66
X263.652Y-549.783
X263.652Y-568.833
X264.16Y-433.832
X264.16Y-453.136
X264.16Y-494.284
X264.922Y-434.975
X264.922Y-454.914
X264.922Y-566.674
X264.922Y-597.662
X265.049Y-559.308
X265.176Y-490.474
X265.176Y-555.879
X265.176Y-583.946
X265.43Y-559.816
X265.684Y-457.454
X266.065Y-491.49
X266.192Y-555.625
X266.319Y-451.866
X266.446Y-557.149
X266.7Y-453.39
X266.7Y-457.962
X267.208Y-459.232
X267.208Y-546.735
X267.335Y-429.895
X267.335Y-453.644
X267.462Y-490.601
X267.462Y-504.825
X267.462Y-584.2
X267.462Y-587.375
X267.716Y-546.481
X267.716Y-588.391
X267.843Y-459.232
X267.97Y-597.662
X268.351Y-458.216
X268.732Y-493.903
X268.732Y-546.989
X268.732Y-555.625
X268.732Y-556.514
X268.732Y-597.662
X269.24Y-550.672
X269.24Y-564.642
X269.494Y-458.47
X269.621Y-522.478
X269.748Y-552.45
X270.002Y-555.371
X270.002Y-583.946
X270.002Y-588.391
X270.256Y-602.234
X270.51Y-429.895
X270.51Y-454.025
X270.51Y-596.646
X270.764Y-532.511
X271.018Y-587.375
X271.272Y-510.667
X271.272Y-554.863
X271.78Y-458.47
X271.78Y-564.388
X272.288Y-519.684
X272.542Y-547.497
X272.542Y-583.946
X272.669Y-457.708
X273.05Y-577.723
X273.304Y-524.002
X273.304Y-607.822
X273.558Y-569.976
X273.812Y-507.873
X273.939Y-499.11
X273.939Y-505.587
X274.828Y-541.909
X274.828Y-598.678
X274.955Y-505.206
X275.082Y-566.674
X275.336Y-583.946
X275.59Y-574.802
X275.59Y-577.85
X275.844Y-500.253
X275.844Y-607.949
X276.098Y-541.147
X276.225Y-524.002
X276.86Y-429.895
X276.86Y-592.963
X277.241Y-536.829
X277.368Y-518.795
X277.368Y-568.833
X277.876Y-490.347
X277.876Y-583.946
X278.384Y-607.949
X278.425Y-569.935
X279.019Y-569.722
X279.4Y-592.455
X280.035Y-431.673
X280.035Y-566.674
X280.162Y-510.794
X281.178Y-496.951
X281.178Y-569.087
X281.432Y-507.873
X281.94Y-551.815
X281.94Y-559.181
X281.94Y-592.455
X282.321Y-429.768
X282.321Y-491.236
X282.575Y-533.654
X282.575Y-575.564
X282.575Y-608.457
X282.956Y-568.706
X283.21Y-431.673
X283.21Y-596.519
X283.718Y-512.826
X283.845Y-491.744
X283.972Y-565.658
X283.972Y-580.009
X284.48Y-546.608
X284.48Y-554.99
X284.988Y-566.674
X285.115Y-498.856
X285.496Y-543.306
X285.496Y-574.294
X285.75Y-509.778
X286.004Y-564.388
X286.004Y-588.391
X286.258Y-566.166
X286.385Y-431.927
X286.512Y-526.796
X286.512Y-575.564
X286.512Y-578.993
X287.02Y-495.935
X287.02Y-559.689
X287.02Y-586.867
X287.401Y-443.992
X287.401Y-458.978
X287.782Y-508.889
X287.782Y-568.833
X287.782Y-573.786
X288.036Y-559.181
X288.29Y-582.676
X288.544Y-501.523
X288.544Y-502.158
X288.544Y-530.352
X288.798Y-527.304
X288.798Y-575.31
X288.925Y-564.134
X289.052Y-566.166
X289.052Y-578.993
X289.179Y-509.778
X289.433Y-522.986
X289.56Y-568.833
X289.56Y-587.121
X289.814Y-504.952
X289.941Y-500.253
X290.195Y-452.628
X290.576Y-523.748
X290.576Y-536.702
X290.576Y-574.294
X291.084Y-541.909
X291.338Y-542.925
X291.338Y-574.802
X291.465Y-563.626
X291.592Y-565.658
X292.1Y-438.023
X292.1Y-559.435
X292.227Y-496.062
X292.608Y-574.04
X292.735Y-432.181
X292.862Y-496.062
X292.862Y-540.766
X293.116Y-573.659
X293.37Y-574.167
X293.37Y-580.517
X293.37Y-608.838
X293.624Y-501.523
X293.624Y-583.819
X294.005Y-540.766
X294.132Y-566.547
X294.64Y-519.049
X295.021Y-500.126
X295.148Y-540.893
X295.148Y-579.501
X295.275Y-524.764
X295.656Y-500.126
X295.656Y-532.384
X295.656Y-574.294
X295.91Y-432.435
X295.91Y-444.754
X295.91Y-545.973
X296.418Y-533.781
X296.418Y-535.559
X296.672Y-509.524
X296.672Y-545.338
X296.672Y-547.624
X296.672Y-555.244
X296.672Y-569.976
X296.799Y-454.787
X296.926Y-452.628
X297.18Y-543.56
X297.18Y-550.926
X297.18Y-578.739
X297.307Y-509.397
X297.307Y-546.354
X297.561Y-439.928
X297.561Y-494.03
X297.688Y-538.099
X297.942Y-512.699
X298.069Y-448.564
X298.069Y-546.1
X298.196Y-516.255
X298.196Y-574.294
X298.45Y-532.511
X298.45Y-612.648
X298.704Y-513.842
X298.704Y-527.812
X298.958Y-545.465
X298.958Y-560.451
X298.958Y-574.294
X299.212Y-491.49
X299.212Y-530.606
X299.212Y-569.722
X299.72Y-523.494
X300.228Y-493.903
X300.482Y-495.554
X300.736Y-458.978
X300.736Y-532.511
X300.736Y-577.85
X300.99Y-500.253
X300.99Y-610.743
X301.244Y-532.257
X301.244Y-574.294
X301.244Y-612.521
X301.498Y-605.409
X301.625Y-440.182
X301.752Y-491.49
X301.752Y-569.849
X301.752Y-571.246
X301.752Y-583.057
X301.752Y-596.646
X301.752Y-603.504
X301.879Y-594.487
X302.26Y-433.959
X302.26Y-503.555
X302.26Y-611.124
X302.514Y-494.03
X302.641Y-569.341
X302.768Y-530.098
X302.768Y-532.511
X302.768Y-573.913
X303.276Y-448.183
X303.276Y-527.812
X303.276Y-578.358
X303.276Y-611.124
X303.53Y-535.432
X303.53Y-569.849
X303.53Y-570.484
X303.784Y-560.578
X303.784Y-612.394
X304.038Y-522.732
X304.165Y-513.969
X304.292Y-500.507
X304.292Y-542.671
X304.419Y-556.006
X304.8Y-503.301
X304.8Y-569.849
X305.308Y-507.746
X305.308Y-580.517
X305.435Y-443.23
X305.562Y-521.97
X305.689Y-558.8
X305.816Y-489.966
X305.816Y-578.612
X305.816Y-611.378
X306.197Y-612.267
X306.324Y-560.324
X306.451Y-453.136
X306.451Y-495.554
X307.34Y-503.047
X307.34Y-570.992
X307.467Y-434.975
X307.594Y-485.648
X307.848Y-571.373
X307.975Y-490.855
X308.356Y-578.866
X308.356Y-611.632
X308.61Y-454.279
X308.61Y-546.481
X308.61Y-575.183
X309.118Y-584.581
X309.245Y-495.046
X309.245Y-556.006
X309.372Y-556.641
X309.626Y-446.405
X309.88Y-502.793
X309.88Y-556.133
X309.88Y-573.913
X310.134Y-453.644
X310.261Y-452.628
X310.388Y-538.48
X310.388Y-542.671
X310.515Y-485.902
X310.642Y-594.36
X310.896Y-550.418
X311.023Y-585.597
X311.277Y-449.834
X311.404Y-445.262
X311.785Y-432.689
X311.912Y-544.957
X311.912Y-549.91
X311.912Y-557.53
X312.42Y-501.777
X312.42Y-565.912
X312.42Y-584.835
X313.182Y-561.594
X313.182Y-584.835
X313.436Y-521.97
X313.436Y-556.006
X313.69Y-504.825
X314.198Y-594.487
X314.198Y-596.773
X314.325Y-486.156
X314.325Y-549.656
X314.452Y-573.659
X314.579Y-509.524
X314.96Y-432.689
X314.96Y-445.262
X314.96Y-494.03
X314.96Y-501.777
X314.96Y-565.658
X314.96Y-573.913
X315.468Y-557.149
X315.595Y-490.855
X315.595Y-507.873
X315.722Y-491.871
X315.722Y-561.594
X315.849Y-552.196
X315.976Y-518.033
X315.976Y-584.835
X316.357Y-597.916
X316.865Y-462.153
X316.865Y-462.788
X316.992Y-515.62
X316.992Y-547.116
X317.373Y-584.581
X317.5Y-523.367
X317.5Y-565.404
X317.5Y-570.992
X317.5Y-579.628
X317.5Y-606.933
X317.627Y-462.915
X318.008Y-526.923
X318.262Y-584.581
X318.516Y-528.066
X318.516Y-558.8
X319.024Y-514.096
X319.024Y-573.913
X319.151Y-600.71
X319.214Y-519.366
X319.405Y-555.752
X319.532Y-568.833
X319.659Y-533.527
X319.913Y-573.405
X320.04Y-558.8
X320.04Y-607.187
X320.548Y-540.893
X320.548Y-547.624
X320.548Y-569.976
X320.802Y-513.715
X321.056Y-508.762
X321.056Y-574.929
X321.056Y-601.599
X321.31Y-432.689
X321.564Y-570.992
X321.564Y-600.329
X322.072Y-513.588
X322.072Y-527.558
X322.072Y-568.706
X322.072Y-569.849
X322.199Y-536.702
X322.58Y-573.659
X322.58Y-607.441
X322.961Y-496.316
X323.088Y-538.48
X323.342Y-523.24
X323.596Y-574.675
X323.596Y-601.472
X323.85Y-588.518
X324.041Y-538.163
X324.104Y-513.588
X324.358Y-495.3
X324.485Y-432.435
X324.612Y-555.498
X324.612Y-568.833
X324.612Y-582.803
X324.866Y-454.533
X324.866Y-600.71
X325.12Y-541.401
X325.12Y-607.822
X325.628Y-569.595
X325.628Y-586.105
X325.755Y-498.983
X326.136Y-573.024
X326.644Y-560.578
X326.644Y-584.327
X327.152Y-449.453
X327.152Y-569.595
X327.152Y-574.548
X327.279Y-432.689
X327.66Y-446.405
X327.787Y-432.943
X327.914Y-571.373
X328.168Y-561.467
X328.295Y-446.151
X328.422Y-433.197
X328.422Y-491.871
X328.422Y-493.776
X328.422Y-573.532
X328.422Y-600.456
X328.676Y-574.421
X328.93Y-442.976
X328.93Y-549.783
X328.93Y-579.374
X329.184Y-457.708
X329.438Y-449.453
X329.438Y-499.237
X329.438Y-559.816
X329.438Y-583.311
X329.692Y-535.75
X329.692Y-582.803
X330.454Y-446.405
X330.581Y-536.448
X330.708Y-541.401
X330.708Y-566.547
X330.708Y-569.341
X330.708Y-579.12
X330.962Y-588.264
X331.216Y-454.787
X331.851Y-451.612
X331.978Y-536.956
X331.978Y-563.753
X332.105Y-533.654
X332.105Y-566.547
X332.232Y-522.224
X332.74Y-434.467
X332.867Y-522.097
X333.248Y-491.109
X333.248Y-541.401
X333.248Y-566.166
X333.502Y-449.199
X333.756Y-523.494
X333.756Y-573.786
X334.01Y-495.554
X334.264Y-584.327
X334.391Y-454.787
X334.518Y-559.689
X334.518Y-560.705
X334.518Y-574.04
X334.772Y-501.523
X334.772Y-541.401
X334.772Y-552.704
X334.772Y-566.166
X334.899Y-523.24
X335.28Y-556.006
X335.534Y-569.087
X335.788Y-542.671
X335.978Y-566.23
X336.169Y-444.754
X336.169Y-509.016
X336.169Y-512.572
X336.296Y-541.401
X337.058Y-499.618
X337.058Y-508.508
X337.185Y-452.755
X337.185Y-583.692
X337.312Y-513.969
X337.312Y-560.832
X337.312Y-565.785
X337.82Y-556.006
X338.328Y-457.708
X338.328Y-495.808
X338.328Y-501.904
X338.328Y-526.923
X338.328Y-540.893
X338.455Y-566.166
X338.836Y-571.119
X338.963Y-457.708
X339.344Y-599.948
X339.725Y-457.708
X339.725Y-574.294
X339.852Y-513.715
X339.852Y-519.049
X340.36Y-501.396
X340.487Y-438.15
X340.487Y-439.928
X340.868Y-551.688
X340.868Y-579.628
X340.995Y-518.922
X341.122Y-438.15
X341.122Y-574.548
X341.376Y-610.743
X341.619Y-519.419
X341.63Y-508.508
X341.63Y-552.831
X341.884Y-533.273
X341.884Y-591.82
X341.895Y-535.813
X342.138Y-584.2
X342.392Y-499.11
X342.392Y-513.588
X342.392Y-521.716
X342.392Y-540.893
X342.392Y-579.628
X342.519Y-524.002
X342.519Y-524.637
X342.519Y-533.527
X342.519Y-535.813
X343.027Y-462.534
X343.408Y-522.732
X343.535Y-433.451
X343.789Y-511.048
X343.916Y-559.308
X343.916Y-611.251
X344.17Y-521.716
X344.17Y-572.516
X344.424Y-599.567
X344.805Y-555.244
X344.932Y-522.859
X344.932Y-549.783
X344.932Y-583.692
X345.059Y-459.232
X345.694Y-459.232
X345.948Y-491.617
X345.948Y-519.303
X345.948Y-578.993
X346.202Y-569.976
X346.456Y-496.697
X346.456Y-611.505
X346.71Y-433.451
X346.71Y-588.772
X346.964Y-552.577
X346.964Y-599.567
X347.218Y-546.481
X347.218Y-558.8
X347.472Y-545.211
X347.472Y-549.656
X347.472Y-578.485
X348.107Y-571.627
X348.361Y-509.27
X348.488Y-521.97
X348.488Y-563.753
X348.805Y-527.113
X348.996Y-611.759
X349.25Y-572.516
X349.504Y-599.313
X349.758Y-493.776
X349.758Y-515.239
X349.758Y-569.468
X349.885Y-541.655
X349.885Y-584.327
X350.52Y-435.229
X350.774Y-580.009
X351.028Y-552.704
X351.282Y-597.662
X351.79Y-579.755
X352.298Y-509.27
X352.298Y-518.541
X352.298Y-519.176
X352.298Y-519.811
X352.425Y-491.744
X352.425Y-597.789
X352.806Y-584.327
X353.06Y-433.451
X353.06Y-579.374
X353.314Y-591.82
X353.568Y-547.624
X353.568Y-549.656
X353.568Y-554.736
X353.568Y-584.2
X353.822Y-557.149
X354.076Y-435.864
X354.076Y-570.992
X354.584Y-550.672
X354.774Y-524.827
X354.838Y-522.097
X354.965Y-491.617
X355.6Y-579.12
X355.6Y-583.946
X356.108Y-505.587
X356.235Y-433.451
X356.362Y-498.856
X356.362Y-541.909
X356.616Y-523.748
X356.616Y-571.119
X357.124Y-555.879
X357.632Y-499.11
X357.632Y-523.367
X357.632Y-543.687
X358.14Y-555.879
X358.14Y-578.485
X358.14Y-583.565
X358.14Y-592.328
X358.267Y-523.748
X358.394Y-599.059
X358.902Y-578.485
X359.156Y-528.574
X359.41Y-571.373
X359.664Y-517.779
X368.427Y-560.197
X368.554Y-490.22
X368.554Y-573.913
X368.808Y-585.597
X368.808Y-608.584
X368.935Y-560.705
X369.062Y-500.634
X369.189Y-573.532
X369.316Y-559.435
X369.316Y-585.343
X369.316Y-608.076
X369.697Y-573.278
X369.824Y-585.089
X369.824Y-607.822
X369.951Y-500.297
X370.205Y-572.77
X370.332Y-584.835
X370.332Y-606.933
X370.332Y-607.568
X370.967Y-606.933
X371.602Y-606.806
X372.11Y-606.552
X387.477Y-449.834
X387.477Y-549.91
X387.604Y-449.199
X387.604Y-590.423
X387.604Y-591.185
X387.731Y-550.418
X387.858Y-555.498
X387.985Y-433.705
X387.985Y-439.928
X387.985Y-552.196
X388.493Y-437.896
X388.493Y-555.498
X389.001Y-437.642
X389.128Y-555.498
X391.287Y-490.728
X391.287Y-574.929
X391.795Y-490.474
X391.795Y-612.267
X392.303Y-490.728
X392.43Y-430.149
X392.43Y-612.267
X392.811Y-490.982
X392.938Y-430.403
X393.065Y-612.267
X393.319Y-491.236
X393.446Y-430.657
X393.573Y-611.886
X393.827Y-491.49
X394.208Y-611.886
X394.335Y-491.744
X394.843Y-611.886
X399.669Y-457.2
X400.431Y-457.454
X400.558Y-586.486
X400.812Y-551.434
X401.32Y-542.671
X401.32Y-560.705
X401.828Y-499.491
X401.955Y-493.776
X402.082Y-538.861
X402.082Y-571.754
X402.082Y-572.389
X402.209Y-509.016
X402.336Y-584.581
X403.098Y-489.585
X403.098Y-490.474
X403.352Y-519.557
X403.352Y-577.596
X403.479Y-551.942
X403.86Y-517.017
X404.495Y-533.654
X404.495Y-577.596
X404.622Y-501.142
X404.622Y-571.627
X404.876Y-527.177
X405.13Y-494.157
X405.384Y-446.913
X405.511Y-603.758
X406.146Y-457.708
X406.4Y-532.384
X406.4Y-541.655
X406.908Y-537.972
X406.908Y-558.292
X406.908Y-571.627
X407.416Y-439.801
X407.416Y-586.74
X407.924Y-602.996
X408.051Y-439.801
X408.178Y-571.627
X408.432Y-496.697
X408.432Y-527.05
X408.432Y-580.009
X408.94Y-541.909
X409.448Y-538.607
X409.448Y-573.278
X409.575Y-577.596
X409.702Y-488.696
X409.702Y-503.555
X409.956Y-575.945
X410.464Y-518.795
X410.464Y-527.558
X410.591Y-448.691
X410.718Y-495.681
X410.718Y-522.351
X410.718Y-602.742
X410.972Y-551.434
X411.099Y-527.558
X411.099Y-585.724
X411.226Y-448.691
X411.48Y-532.384
X411.48Y-542.417
X411.734Y-527.558
X411.988Y-523.748
X411.988Y-571.881
X411.988Y-583.184
X412.242Y-586.994
X413.004Y-569.849
X413.258Y-572.135
X413.385Y-524.637
X413.512Y-493.903
X413.512Y-501.396
X413.512Y-543.687
X413.512Y-575.564
X413.639Y-499.618
X413.893Y-439.801
X414.02Y-532.511
X414.528Y-439.801
X414.528Y-580.517
X415.036Y-504.063
X415.036Y-588.264
X415.036Y-602.488
X415.29Y-566.42
X415.29Y-582.422
X415.544Y-488.696
X415.671Y-602.234
X415.798Y-496.697
X415.798Y-514.985
X415.798Y-531.241
X416.052Y-519.557
X416.052Y-536.956
X416.56Y-499.618
X416.56Y-558.8
X416.941Y-443.992
X417.068Y-509.016
X417.068Y-569.087
X417.195Y-566.547
X417.195Y-571.627
X417.322Y-526.669
X417.322Y-540.639
X417.576Y-504.571
X417.576Y-539.242
X417.83Y-580.263
X418.084Y-531.241
X418.084Y-601.98
X418.211Y-501.777
X418.338Y-524.002
X418.592Y-547.497
X419.1Y-551.434
X419.608Y-538.226
X419.608Y-542.671
X419.608Y-551.18
X419.608Y-568.706
X419.735Y-508.762
X419.862Y-533.781
X419.862Y-586.232
X420.116Y-452.374
X420.116Y-573.278
X420.116Y-588.264
X420.624Y-601.726
X421.132Y-499.872
X421.132Y-527.558
X421.132Y-536.194
X421.132Y-546.989
X421.132Y-599.059
X421.386Y-488.696
X422.148Y-561.594
X422.148Y-568.706
X422.148Y-586.232
X422.275Y-447.421
X422.402Y-592.836
X422.656Y-503.682
X422.91Y-540.893
X422.91Y-580.263
X423.164Y-445.897
X423.164Y-507.492
X423.164Y-518.795
X423.164Y-524.002
X423.164Y-530.098
X423.164Y-601.472
X423.545Y-536.194
X423.672Y-443.738
X423.672Y-597.662
X424.18Y-557.149
X424.434Y-597.662
X424.561Y-586.232
X424.688Y-494.919
X424.688Y-513.588
X424.688Y-568.706
X424.688Y-596.9
X424.815Y-532.257
X424.942Y-541.655
X425.196Y-489.966
X425.196Y-558.546
X425.45Y-446.659
X425.45Y-575.31
X425.704Y-545.465
X425.704Y-550.926
X425.831Y-552.958
X425.831Y-555.879
X425.831Y-577.469
X425.958Y-501.142
X426.085Y-577.977
X426.212Y-507.746
X426.593Y-555.879
X427.228Y-541.401
X427.228Y-563.88
X427.482Y-546.1
X427.736Y-500.634
X428.244Y-557.657
X428.244Y-569.595
X428.498Y-517.017
X428.752Y-513.588
X428.752Y-519.049
X428.879Y-557.911
X428.879Y-579.501
X429.768Y-578.866
X429.895Y-493.903
X430.022Y-527.558
X430.022Y-582.676
X430.276Y-608.584
X430.53Y-543.179
X431.038Y-538.226
X431.038Y-564.896
X431.165Y-575.564
X431.228Y-496.76
X431.8Y-551.688
X432.054Y-446.913
X432.308Y-513.588
X432.435Y-542.671
X432.562Y-565.15
X432.689Y-557.911
X433.324Y-517.271
X433.578Y-564.896
X433.578Y-583.565
X433.705Y-533.019
X433.832Y-575.056
X433.832Y-579.12
X434.34Y-516.763
X434.467Y-454.787
X434.721Y-578.866
X434.848Y-566.547
X434.848Y-584.962
X435.102Y-500.38
X435.483Y-454.787
X436.118Y-544.83
X436.118Y-564.642
X436.118Y-583.057
X436.372Y-489.331
X436.372Y-538.226
X436.372Y-592.963
X437.388Y-566.547
X437.642Y-554.736
X437.769Y-550.672
X437.769Y-596.519
X437.896Y-513.969
X438.15Y-432.562
X438.658Y-577.469
X438.785Y-536.575
X439.42Y-583.184
X439.801Y-592.836
X439.928Y-573.024
X439.928Y-598.678
X440.436Y-529.844
X440.436Y-537.972
X440.436Y-556.895
X440.436Y-583.311
X440.817Y-580.644
X440.944Y-494.411
X440.944Y-556.641
X440.944Y-583.565
X441.325Y-432.562
X441.325Y-547.624
X441.452Y-510.667
X441.452Y-541.655
X441.96Y-598.424
X442.468Y-505.46
X442.468Y-554.863
X442.468Y-597.916
X442.595Y-524.764
X442.722Y-594.106
X443.23Y-561.594
X443.357Y-597.662
X443.484Y-527.558
X443.738Y-509.27
X443.865Y-519.049
X443.992Y-536.956
X443.992Y-547.116
X445.008Y-501.142
X445.008Y-524.764
X445.262Y-513.969
X445.516Y-585.47
X445.77Y-507.746
X446.024Y-571.627
X446.278Y-541.655
X446.405Y-575.437
X446.469Y-509.333
X446.532Y-583.565
X446.659Y-445.516
X447.04Y-513.715
X447.548Y-550.545
X447.548Y-597.662
X447.675Y-432.435
X447.802Y-498.856
X447.802Y-524.891
X447.802Y-526.669
X448.056Y-516.763
X448.056Y-557.022
X448.183Y-461.772
X448.437Y-597.662
X448.564Y-532.384
X448.564Y-536.956
X448.564Y-539.242
X448.818Y-540.639
X448.818Y-550.418
X449.072Y-509.016
X449.58Y-592.836
X449.834Y-445.516
X449.834Y-551.942
X450.088Y-537.464
X450.215Y-573.278
X450.342Y-495.681
X450.342Y-521.716
X450.342Y-547.624
X450.85Y-432.435
X450.977Y-555.625
X451.358Y-463.042
X451.485Y-564.642
X451.612Y-555.625
X451.612Y-585.724
X452.628Y-537.718
X452.628Y-586.232
X452.755Y-557.276
X452.882Y-564.896
X453.009Y-445.516
X453.136Y-541.655
X453.263Y-443.738
X453.263Y-542.925
X453.39Y-565.15
X453.39Y-599.186
X453.644Y-523.367
X453.644Y-532.765
X453.644Y-550.164
X453.898Y-510.921
X453.898Y-570.865
X453.898Y-573.024
X453.898Y-599.567
X454.66Y-462.788
X455.168Y-445.516
X455.168Y-498.983
X455.168Y-508.762
X455.422Y-533.781
X455.676Y-459.232
X455.676Y-532.257
X456.184Y-459.486
X456.692Y-544.195
X456.692Y-575.437
X457.2Y-532.765
X457.2Y-588.264
X457.708Y-495.681
X457.708Y-540.893
X457.962Y-500.888
X457.962Y-510.921
X457.962Y-512.699
X457.962Y-522.859
X457.962Y-575.183
X458.216Y-462.661
X458.216Y-524.256
X458.724Y-447.421
X458.724Y-555.879
X458.724Y-574.548
X458.978Y-552.831
X458.978Y-591.439
X459.105Y-550.291
X459.232Y-498.983
X459.232Y-515.493
X459.232Y-524.764
X459.232Y-589.534
X459.74Y-565.15
X459.74Y-578.358
X459.867Y-452.374
X460.121Y-524.256
X460.248Y-519.557
X460.375Y-452.882
X460.375Y-569.341
X460.756Y-555.752
X460.756Y-556.768
X460.756Y-564.388
X461.01Y-505.46
X461.01Y-525.018
X461.01Y-527.558
X461.264Y-491.236
X461.264Y-583.692
X461.518Y-591.439
X461.645Y-496.697
X461.645Y-549.783
X461.772Y-589.534
X461.899Y-442.214
X461.899Y-491.236
X461.899Y-519.303
X462.026Y-573.024
X462.28Y-500.888
X462.534Y-445.262
X462.661Y-573.024
X462.788Y-557.022
X463.042Y-489.585
X463.042Y-505.206
X463.55Y-540.639
X463.55Y-572.897
X463.55Y-573.532
X463.804Y-489.585
X463.804Y-503.682
X464.185Y-504.698
X464.312Y-519.684
X464.312Y-575.564
X464.312Y-580.517
X464.312Y-582.676
X464.439Y-573.278
X465.201Y-494.284
X465.328Y-540.766
X465.328Y-589.28
X465.328Y-591.566
X465.836Y-445.008
X465.836Y-574.421
X466.09Y-577.723
X466.344Y-516.509
X466.344Y-533.527
X466.598Y-524.256
X466.598Y-597.662
X466.852Y-580.644
X466.852Y-582.676
X467.233Y-589.407
X467.741Y-447.167
X467.868Y-591.566
X468.122Y-516.763
X468.376Y-569.468
X468.376Y-583.946
X468.884Y-513.715
X468.884Y-588.264
X469.138Y-528.066
X469.201Y-521.653
X469.265Y-499.872
X469.392Y-512.826
X469.9Y-523.24
X469.9Y-537.972
X470.408Y-586.486
X470.662Y-518.541
X470.662Y-575.056
X470.916Y-504.825
X471.043Y-448.691
X471.17Y-535.686
X471.17Y-583.946
X471.424Y-502.539
X471.424Y-504.444
X471.424Y-571.119
X471.805Y-583.946
X471.932Y-538.226
X471.932Y-571.5
X471.932Y-580.644
X471.932Y-582.676
X472.44Y-502.92
X472.44Y-536.448
X472.948Y-554.736
X472.948Y-574.802
X473.075Y-432.308
X473.075Y-445.008
X473.202Y-531.114
X473.202Y-577.723
X473.71Y-530.733
X473.71Y-580.644
X473.71Y-594.741
X473.964Y-445.262
X473.964Y-502.539
X474.218Y-531.368
X474.218Y-574.802
X474.472Y-505.587
X474.472Y-536.448
X474.472Y-586.486
X474.726Y-438.658
X474.98Y-502.92
X474.98Y-514.985
X475.488Y-457.962
X475.488Y-533.527
X475.615Y-504.698
X475.742Y-510.667
X475.742Y-571.119
X475.742Y-583.819
X475.996Y-561.721
X476.758Y-554.736
X476.885Y-586.994
X477.012Y-490.601
X477.52Y-514.985
X477.52Y-518.541
X477.52Y-522.859
X477.52Y-556.768
X477.647Y-438.658
X478.028Y-505.46
X478.028Y-509.143
X478.155Y-542.671
X478.282Y-551.815
X478.282Y-568.833
X479.298Y-496.57
X479.298Y-518.414
X479.425Y-594.614
X479.552Y-504.698
X479.552Y-509.143
X479.552Y-586.994
X480.06Y-516.509
X480.06Y-523.24
X480.314Y-509.143
X480.695Y-522.478
X480.822Y-580.771
X480.822Y-582.549
X480.822Y-594.614
X481.076Y-529.082
X481.076Y-596.265
X481.33Y-510.54
X481.584Y-457.962
X481.838Y-569.341
X481.838Y-587.248
X482.092Y-505.714
X482.092Y-527.685
X482.092Y-580.644
X482.092Y-582.676
X482.092Y-589.534
X482.092Y-591.566
X482.346Y-552.069
X482.6Y-447.675
X482.6Y-524.129
X482.6Y-542.671
X483.108Y-536.702
X483.108Y-578.612
X483.235Y-518.287
X483.489Y-542.671
X483.489Y-587.502
X483.616Y-529.717
X483.616Y-550.799
X483.616Y-558.292
X483.87Y-522.478
X484.124Y-587.756
X484.632Y-508.889
X484.632Y-529.336
X484.632Y-593.09
X485.14Y-544.83
X485.648Y-522.351
X485.648Y-532.892
X485.648Y-536.702
X485.648Y-554.99
X486.156Y-509.524
X486.41Y-490.601
X486.41Y-555.498
X486.41Y-558.8
X486.664Y-529.082
X486.791Y-508.635
X486.918Y-504.571
X487.172Y-527.675
X487.172Y-536.702
X487.172Y-592.836
X487.299Y-522.097
X487.68Y-527.939
X487.68Y-528.574
X488.188Y-532.892
X488.188Y-536.702
X488.315Y-494.03
X488.442Y-518.668
X488.442Y-584.962
X488.442Y-589.534
X488.442Y-591.439
X488.696Y-546.862
X489.204Y-511.175
X489.458Y-591.439
X489.712Y-518.668
X489.712Y-527.431
X489.712Y-589.407
X489.839Y-518.033
X490.22Y-508.762
X490.22Y-556.768
X490.728Y-508.381
X490.728Y-523.494
X490.728Y-536.702
X490.728Y-592.582
X490.728Y-601.98
X490.855Y-433.578
X491.236Y-501.142
X491.49Y-488.823
X491.49Y-561.467
X491.49Y-580.39
X491.744Y-544.83
X492.125Y-445.262
X492.252Y-517.017
X492.252Y-527.685
X492.252Y-544.195
X492.252Y-564.515
X492.506Y-515.493
X493.141Y-433.578
X493.268Y-529.336
X493.268Y-570.865
X493.395Y-592.328
X493.776Y-511.175
X493.776Y-514.985
X494.03Y-561.213
X494.284Y-433.578
X494.284Y-513.715
X494.538Y-570.865
X494.792Y-507.873
X494.792Y-564.769
X495.3Y-569.595
X495.808Y-591.566
X495.808Y-601.726
X495.935Y-552.577
X496.062Y-489.712
X496.316Y-511.175
X496.316Y-512.572
X496.57Y-580.39
X496.824Y-546.608
X496.824Y-560.959
X497.078Y-486.156
X497.205Y-519.176
X497.332Y-488.696
X497.332Y-510.794
X497.332Y-527.685
X497.332Y-565.023
X497.84Y-517.017
X497.84Y-570.357
X497.84Y-573.024
X498.221Y-491.49
X498.348Y-510.794
X498.348Y-588.899
X498.348Y-601.726
X498.602Y-490.601
X498.856Y-489.839
X498.856Y-570.865
X499.11Y-491.109
X499.11Y-580.39
X499.364Y-542.671
X499.364Y-565.277
X499.364Y-588.264
X499.618Y-500.888
X499.618Y-554.736
X499.745Y-512.826
X499.872Y-488.696
X499.872Y-510.794
X499.999Y-564.896
X500.253Y-513.207
X500.38Y-573.278
X500.888Y-563.753
X500.888Y-570.865
X500.888Y-588.899
X501.015Y-591.566
X501.142Y-541.401
X501.396Y-513.715
X501.396Y-601.726
X501.65Y-580.39
X501.904Y-514.985
X502.158Y-499.364
X502.412Y-527.431
X502.412Y-541.02
X502.412Y-557.149
X502.539Y-565.531
X502.666Y-523.494
X502.92Y-569.849
X502.92Y-578.231
X503.428Y-504.444
X503.555Y-538.734
X503.682Y-522.732
X503.682Y-541.401
X503.682Y-569.468
X503.682Y-570.484
X503.682Y-591.566
X503.936Y-536.448
X503.936Y-546.862
X504.698Y-498.856
X504.698Y-532.384
X504.698Y-561.721
X504.698Y-563.499
X504.698Y-570.357
X504.952Y-495.173
X504.952Y-507.746
X504.952Y-519.176
X504.952Y-538.607
X504.952Y-551.561
X504.952Y-565.785
X505.46Y-585.216
X505.841Y-526.923
X506.095Y-535.94
X506.222Y-499.872
X506.222Y-510.667
X506.222Y-552.577
X506.222Y-573.786
X506.222Y-574.421
X506.73Y-563.88
X506.984Y-513.461
X506.984Y-569.595
X507.492Y-542.671
X507.492Y-566.039
X507.492Y-574.421
X508.254Y-550.799
X508.508Y-585.216
X508.762Y-522.478
X508.762Y-550.545
X508.762Y-558.8
X509.27Y-582.93
X509.524Y-598.424
X509.778Y-597.789
X510.032Y-524.002
X510.032Y-542.671
X510.032Y-566.547
X511.048Y-519.049
X511.048Y-527.685
X511.048Y-541.401
X511.048Y-542.671
X511.175Y-564.134
X511.302Y-549.529
X511.556Y-505.968
X511.556Y-569.595
X512.318Y-528.701
X512.445Y-572.389
X512.572Y-519.049
X512.572Y-524.002
X512.572Y-556.768
X512.572Y-580.517
X512.572Y-585.47
X513.08Y-584.962
X513.334Y-443.992
X513.588Y-554.863
X513.588Y-585.978
X513.715Y-522.478
X513.715Y-526.923
X514.096Y-547.37
X514.096Y-555.752
X514.35Y-589.661
X514.604Y-528.193
X515.112Y-523.748
X515.239Y-500.253
X515.62Y-572.135
X515.62Y-584.581
X516.001Y-519.557
X516.255Y-524.002
X516.255Y-554.863
X516.382Y-546.608
X516.636Y-560.705
X517.144Y-515.239
X517.398Y-504.19
X517.398Y-544.449
X517.398Y-577.469
X517.525Y-446.913
X517.652Y-459.486
X517.652Y-524.002
X517.652Y-583.311
X518.16Y-571.881
X518.16Y-573.278
X518.795Y-508.0
X518.795Y-522.351
X518.922Y-521.716
X518.922Y-549.656
X519.176Y-490.474
X519.684Y-559.181
X520.065Y-524.764
X520.192Y-544.83
X520.7Y-433.07
X520.7Y-446.278
X520.7Y-459.232
X520.7Y-571.627
X521.208Y-512.953
X521.208Y-519.684
X521.208Y-521.716
X521.97Y-499.745
X523.24Y-504.444
X523.24Y-527.431
X523.24Y-555.752
X523.24Y-571.373
X523.748Y-580.644
X523.748Y-582.803
X523.875Y-433.324
X523.875Y-446.024
X523.875Y-447.167
X524.002Y-521.589
X524.002Y-561.721
X524.51Y-575.564
X524.764Y-518.414
X524.891Y-447.675
X525.272Y-563.626
X525.272Y-566.674
X525.272Y-568.706
X525.272Y-580.644
X525.272Y-582.676
X525.78Y-504.698
X525.78Y-513.715
X525.78Y-528.955
X525.78Y-571.119
X526.288Y-577.596
X526.288Y-589.534
X526.288Y-591.693
X527.05Y-433.578
X527.05Y-445.77
X527.558Y-526.669
X527.558Y-575.437
X527.558Y-582.676
X527.685Y-580.644
X527.812Y-570.865
X528.32Y-504.952
X528.32Y-527.685
X528.32Y-544.83
X528.32Y-556.006
X528.828Y-563.626
X528.828Y-566.674
X528.828Y-568.706
X529.082Y-561.721
X529.209Y-448.691
X529.336Y-509.905
X530.098Y-580.771
X530.098Y-582.549
X530.225Y-433.578
X530.225Y-445.516
X530.225Y-447.675
X530.352Y-569.341
X530.86Y-528.701
X531.876Y-558.8
X532.384Y-500.761
X532.384Y-569.976
X532.384Y-570.611
X532.638Y-561.594
X532.638Y-563.626
X533.019Y-569.087
X533.4Y-527.939
X533.4Y-541.909
X533.4Y-546.481
X534.416Y-574.294
X534.416Y-588.264
X534.416Y-589.026
X536.312Y-532.012
X536.702Y-570.611
X537.21Y-555.625
X537.591Y-434.086
X537.718Y-561.467
X537.718Y-570.357
X537.972Y-546.481
X538.099Y-445.262
X538.48Y-546.735
X538.48Y-560.578
X538.988Y-513.715
X539.496Y-564.769
X540.385Y-546.354
X542.036Y-574.294
X542.036Y-587.756
X543.687Y-433.959
X543.941Y-444.246
X544.576Y-486.156
T2
X193.04Y-454.66
X193.04Y-457.2
X193.04Y-459.74
X193.04Y-462.28
X193.04Y-584.2
X193.04Y-586.74
X193.04Y-589.28
X193.04Y-591.82
X195.58Y-454.66
X195.58Y-457.2
X195.58Y-459.74
X195.58Y-462.28
X195.58Y-584.2
X195.58Y-586.74
X195.58Y-589.28
X195.58Y-591.82
X198.12Y-454.66
X198.12Y-457.2
X198.12Y-459.74
X198.12Y-462.28
X198.12Y-584.2
X198.12Y-586.74
X198.12Y-589.28
X198.12Y-591.82
X200.66Y-454.66
X200.66Y-457.2
X200.66Y-459.74
X200.66Y-462.28
X200.66Y-584.2
X200.66Y-586.74
X200.66Y-589.28
X200.66Y-591.82
X213.36Y-431.8
X213.36Y-447.04
X213.36Y-459.74
X213.36Y-474.98
X213.36Y-487.68
X213.36Y-502.92
X213.36Y-515.62
X213.36Y-530.86
X213.36Y-543.56
X213.36Y-558.8
X213.36Y-571.5
X213.36Y-586.74
X213.36Y-599.44
X213.36Y-614.68
X363.22Y-614.68
X368.3Y-426.72
X368.935Y-474.98
X390.525Y-474.98
X391.16Y-426.72
X396.24Y-614.68
X546.1Y-431.8
X546.1Y-447.04
X546.1Y-459.74
X546.1Y-474.98
X546.1Y-487.68
X546.1Y-502.92
X546.1Y-515.62
X546.1Y-530.86
X546.1Y-543.56
X546.1Y-558.8
X546.1Y-571.5
X546.1Y-586.74
X546.1Y-599.44
X546.1Y-614.68
X558.8Y-454.66
X558.8Y-457.2
X558.8Y-459.74
X558.8Y-462.28
X558.8Y-584.2
X558.8Y-586.74
X558.8Y-589.28
X558.8Y-591.82
X561.34Y-454.66
X561.34Y-457.2
X561.34Y-459.74
X561.34Y-462.28
X561.34Y-584.2
X561.34Y-586.74
X561.34Y-589.28
X561.34Y-591.82
X563.88Y-454.66
X563.88Y-457.2
X563.88Y-459.74
X563.88Y-462.28
X563.88Y-584.2
X563.88Y-586.74
X563.88Y-589.28
X563.88Y-591.82
X566.42Y-454.66
X566.42Y-457.2
X566.42Y-459.74
X566.42Y-462.28
X566.42Y-584.2
X566.42Y-586.74
X566.42Y-589.28
X566.42Y-591.82
T3
X213.36Y-436.88
X213.36Y-441.96
X213.36Y-450.85
X213.36Y-455.93
X213.36Y-464.82
X213.36Y-469.9
X213.36Y-478.79
X213.36Y-483.87
X213.36Y-492.76
X213.36Y-497.84
X213.36Y-506.73
X213.36Y-511.81
X213.36Y-520.7
X213.36Y-525.78
X213.36Y-534.67
X213.36Y-539.75
X213.36Y-548.64
X213.36Y-553.72
X213.36Y-562.61
X213.36Y-567.69
X213.36Y-576.58
X213.36Y-581.66
X213.36Y-590.55
X213.36Y-595.63
X213.36Y-604.52
X213.36Y-609.6
X215.9Y-478.79
X215.9Y-483.87
X215.9Y-492.76
X215.9Y-497.84
X215.9Y-506.73
X215.9Y-511.81
X215.9Y-520.7
X215.9Y-525.78
X215.9Y-534.67
X215.9Y-539.75
X215.9Y-548.64
X215.9Y-553.72
X215.9Y-562.61
X215.9Y-567.69
X215.9Y-576.58
X215.9Y-581.66
X215.9Y-590.55
X215.9Y-595.63
X215.9Y-604.52
X215.9Y-609.6
X216.535Y-436.88
X216.535Y-441.96
X216.535Y-450.85
X216.535Y-455.93
X216.535Y-464.82
X216.535Y-469.9
X218.44Y-478.79
X218.44Y-483.87
X218.44Y-488.696
X218.44Y-492.76
X218.44Y-497.84
X218.44Y-506.73
X218.44Y-511.81
X218.44Y-520.7
X218.44Y-525.78
X218.44Y-534.67
X218.44Y-539.75
X218.44Y-548.64
X218.44Y-553.72
X218.44Y-562.61
X218.44Y-567.69
X218.44Y-576.58
X218.44Y-581.66
X218.44Y-590.55
X218.44Y-595.63
X218.44Y-604.52
X218.44Y-609.6
X219.71Y-436.88
X219.71Y-441.96
X219.71Y-450.85
X219.71Y-455.93
X219.71Y-464.82
X219.71Y-469.9
X220.98Y-478.79
X220.98Y-483.87
X220.98Y-488.696
X220.98Y-492.76
X220.98Y-497.84
X220.98Y-506.73
X220.98Y-511.81
X220.98Y-520.7
X220.98Y-525.78
X220.98Y-534.67
X220.98Y-539.75
X220.98Y-548.64
X220.98Y-553.72
X220.98Y-562.61
X220.98Y-567.69
X220.98Y-576.58
X220.98Y-581.66
X220.98Y-590.55
X220.98Y-595.63
X220.98Y-604.52
X220.98Y-609.6
X222.885Y-436.88
X222.885Y-441.96
X222.885Y-450.85
X222.885Y-455.93
X222.885Y-464.82
X222.885Y-469.9
X223.52Y-478.79
X223.52Y-483.87
X223.52Y-492.76
X223.52Y-497.84
X223.52Y-506.73
X223.52Y-511.81
X223.52Y-520.7
X223.52Y-525.78
X223.52Y-534.67
X223.52Y-539.75
X223.52Y-548.64
X223.52Y-553.72
X223.52Y-562.61
X223.52Y-567.69
X223.52Y-576.58
X223.52Y-581.66
X223.52Y-590.55
X223.52Y-595.63
X223.52Y-604.52
X223.52Y-609.6
X226.06Y-436.88
X226.06Y-441.96
X226.06Y-450.85
X226.06Y-455.93
X226.06Y-464.82
X226.06Y-469.9
X226.06Y-478.79
X226.06Y-483.87
X226.06Y-492.76
X226.06Y-497.84
X226.06Y-506.73
X226.06Y-511.81
X226.06Y-520.7
X226.06Y-525.78
X226.06Y-534.67
X226.06Y-539.75
X226.06Y-548.64
X226.06Y-553.72
X226.06Y-562.61
X226.06Y-567.69
X226.06Y-576.58
X226.06Y-581.66
X226.06Y-590.55
X226.06Y-595.63
X226.06Y-604.52
X226.06Y-609.6
X228.6Y-478.79
X228.6Y-483.87
X228.6Y-492.76
X228.6Y-497.84
X228.6Y-506.73
X228.6Y-511.81
X228.6Y-520.7
X228.6Y-525.78
X228.6Y-534.67
X228.6Y-539.75
X228.6Y-548.64
X228.6Y-553.72
X228.6Y-562.61
X228.6Y-567.69
X228.6Y-576.58
X228.6Y-581.66
X228.6Y-590.55
X228.6Y-595.63
X228.6Y-604.52
X228.6Y-609.6
X229.235Y-436.88
X229.235Y-441.96
X229.235Y-450.85
X229.235Y-455.93
X229.235Y-464.82
X229.235Y-469.9
X231.14Y-478.79
X231.14Y-483.87
X231.14Y-492.76
X231.14Y-497.84
X231.14Y-506.73
X231.14Y-511.81
X231.14Y-520.7
X231.14Y-525.78
X231.14Y-534.67
X231.14Y-539.75
X231.14Y-548.64
X231.14Y-553.72
X231.14Y-562.61
X231.14Y-567.69
X231.14Y-576.58
X231.14Y-581.66
X231.14Y-590.55
X231.14Y-595.63
X231.14Y-604.52
X231.14Y-609.6
X232.41Y-436.88
X232.41Y-441.96
X232.41Y-450.85
X232.41Y-455.93
X232.41Y-464.82
X232.41Y-469.9
X233.68Y-478.79
X233.68Y-483.87
X233.68Y-492.76
X233.68Y-497.84
X233.68Y-506.73
X233.68Y-511.81
X233.68Y-520.7
X233.68Y-525.78
X233.68Y-534.67
X233.68Y-539.75
X233.68Y-548.64
X233.68Y-553.72
X233.68Y-562.61
X233.68Y-567.69
X233.68Y-576.58
X233.68Y-581.66
X233.68Y-590.55
X233.68Y-595.63
X233.68Y-604.52
X233.68Y-609.6
X235.585Y-436.88
X235.585Y-441.96
X235.585Y-450.85
X235.585Y-455.93
X235.585Y-464.82
X235.585Y-469.9
X236.22Y-478.79
X236.22Y-483.87
X236.22Y-492.76
X236.22Y-497.84
X236.22Y-506.73
X236.22Y-511.81
X236.22Y-520.7
X236.22Y-525.78
X236.22Y-534.67
X236.22Y-539.75
X236.22Y-548.64
X236.22Y-553.72
X236.22Y-562.61
X236.22Y-567.69
X236.22Y-576.58
X236.22Y-581.66
X236.22Y-590.55
X236.22Y-595.63
X236.22Y-604.52
X236.22Y-609.6
X238.76Y-436.88
X238.76Y-441.96
X238.76Y-450.85
X238.76Y-455.93
X238.76Y-464.82
X238.76Y-469.9
X238.76Y-478.79
X238.76Y-483.87
X238.76Y-492.76
X238.76Y-497.84
X238.76Y-506.73
X238.76Y-511.81
X238.76Y-520.7
X238.76Y-525.78
X238.76Y-534.67
X238.76Y-539.75
X238.76Y-548.64
X238.76Y-553.72
X238.76Y-562.61
X238.76Y-567.69
X238.76Y-576.58
X238.76Y-581.66
X238.76Y-590.55
X238.76Y-595.63
X238.76Y-604.52
X238.76Y-609.6
X241.3Y-478.79
X241.3Y-483.87
X241.3Y-492.76
X241.3Y-497.84
X241.3Y-506.73
X241.3Y-511.81
X241.3Y-520.7
X241.3Y-525.78
X241.3Y-534.67
X241.3Y-539.75
X241.3Y-548.64
X241.3Y-553.72
X241.3Y-562.61
X241.3Y-567.69
X241.3Y-576.58
X241.3Y-581.66
X241.3Y-590.55
X241.3Y-595.63
X241.3Y-604.52
X241.3Y-609.6
X241.935Y-436.88
X241.935Y-441.96
X241.935Y-450.85
X241.935Y-455.93
X241.935Y-464.82
X241.935Y-469.9
X243.84Y-478.79
X243.84Y-483.87
X243.84Y-492.76
X243.84Y-497.84
X243.84Y-506.73
X243.84Y-511.81
X243.84Y-520.7
X243.84Y-525.78
X243.84Y-534.67
X243.84Y-539.75
X243.84Y-548.64
X243.84Y-553.72
X243.84Y-562.61
X243.84Y-567.69
X243.84Y-576.58
X243.84Y-581.66
X243.84Y-590.55
X243.84Y-595.63
X243.84Y-604.52
X243.84Y-609.6
X245.11Y-436.88
X245.11Y-441.96
X245.11Y-450.85
X245.11Y-455.93
X245.11Y-464.82
X245.11Y-469.9
X246.38Y-478.79
X246.38Y-483.87
X246.38Y-492.76
X246.38Y-497.84
X246.38Y-506.73
X246.38Y-511.81
X246.38Y-520.7
X246.38Y-525.78
X246.38Y-534.67
X246.38Y-539.75
X246.38Y-548.64
X246.38Y-553.72
X246.38Y-562.61
X246.38Y-567.69
X246.38Y-576.58
X246.38Y-581.66
X246.38Y-590.55
X246.38Y-595.63
X246.38Y-604.52
X246.38Y-609.6
X248.285Y-436.88
X248.285Y-441.96
X248.285Y-450.85
X248.285Y-455.93
X248.285Y-464.82
X248.285Y-469.9
X248.92Y-478.79
X248.92Y-483.87
X248.92Y-492.76
X248.92Y-497.84
X248.92Y-506.73
X248.92Y-511.81
X248.92Y-520.7
X248.92Y-525.78
X248.92Y-534.67
X248.92Y-539.75
X248.92Y-548.64
X248.92Y-553.72
X248.92Y-562.61
X248.92Y-567.69
X248.92Y-576.58
X248.92Y-581.66
X248.92Y-590.55
X248.92Y-595.63
X248.92Y-604.52
X248.92Y-609.6
X251.46Y-436.88
X251.46Y-441.96
X251.46Y-450.85
X251.46Y-455.93
X251.46Y-464.82
X251.46Y-469.9
X251.46Y-478.79
X251.46Y-483.87
X251.46Y-492.76
X251.46Y-497.84
X251.46Y-506.73
X251.46Y-511.81
X251.46Y-520.7
X251.46Y-525.78
X251.46Y-534.67
X251.46Y-539.75
X251.46Y-548.64
X251.46Y-553.72
X251.46Y-562.61
X251.46Y-567.69
X251.46Y-576.58
X251.46Y-581.66
X251.46Y-590.55
X251.46Y-595.63
X251.46Y-604.52
X251.46Y-609.6
X254.0Y-478.79
X254.0Y-483.87
X254.0Y-492.76
X254.0Y-497.84
X254.0Y-506.73
X254.0Y-511.81
X254.0Y-520.7
X254.0Y-525.78
X254.0Y-534.67
X254.0Y-539.75
X254.0Y-548.64
X254.0Y-553.72
X254.0Y-562.61
X254.0Y-567.69
X254.0Y-576.58
X254.0Y-581.66
X254.0Y-590.55
X254.0Y-595.63
X254.0Y-604.52
X254.0Y-609.6
X254.635Y-436.88
X254.635Y-441.96
X254.635Y-450.85
X254.635Y-455.93
X254.635Y-464.82
X254.635Y-469.9
X256.54Y-478.79
X256.54Y-483.87
X256.54Y-492.76
X256.54Y-497.84
X256.54Y-506.73
X256.54Y-511.81
X256.54Y-520.7
X256.54Y-525.78
X256.54Y-534.67
X256.54Y-539.75
X256.54Y-548.64
X256.54Y-553.72
X256.54Y-562.61
X256.54Y-567.69
X256.54Y-576.58
X256.54Y-581.66
X256.54Y-590.55
X256.54Y-595.63
X256.54Y-604.52
X256.54Y-609.6
X257.81Y-436.88
X257.81Y-441.96
X257.81Y-450.85
X257.81Y-455.93
X257.81Y-464.82
X257.81Y-469.9
X259.08Y-478.79
X259.08Y-483.87
X259.08Y-492.76
X259.08Y-497.84
X259.08Y-506.73
X259.08Y-511.81
X259.08Y-520.7
X259.08Y-525.78
X259.08Y-534.67
X259.08Y-539.75
X259.08Y-548.64
X259.08Y-553.72
X259.08Y-562.61
X259.08Y-567.69
X259.08Y-576.58
X259.08Y-581.66
X259.08Y-590.55
X259.08Y-595.63
X259.08Y-604.52
X259.08Y-609.6
X260.985Y-436.88
X260.985Y-441.96
X260.985Y-450.85
X260.985Y-455.93
X260.985Y-464.82
X260.985Y-469.9
X261.62Y-478.79
X261.62Y-483.87
X261.62Y-492.76
X261.62Y-497.84
X261.62Y-506.73
X261.62Y-511.81
X261.62Y-520.7
X261.62Y-525.78
X261.62Y-534.67
X261.62Y-539.75
X261.62Y-548.64
X261.62Y-553.72
X261.62Y-562.61
X261.62Y-567.69
X261.62Y-576.58
X261.62Y-581.66
X261.62Y-590.55
X261.62Y-595.63
X261.62Y-604.52
X261.62Y-609.6
X264.16Y-436.88
X264.16Y-441.96
X264.16Y-450.85
X264.16Y-455.93
X264.16Y-464.82
X264.16Y-469.9
X264.16Y-478.79
X264.16Y-483.87
X264.16Y-492.76
X264.16Y-497.84
X264.16Y-506.73
X264.16Y-511.81
X264.16Y-520.7
X264.16Y-525.78
X264.16Y-534.67
X264.16Y-539.75
X264.16Y-548.64
X264.16Y-553.72
X264.16Y-562.61
X264.16Y-567.69
X264.16Y-576.58
X264.16Y-581.66
X264.16Y-590.55
X264.16Y-595.63
X264.16Y-604.52
X264.16Y-609.6
X266.7Y-478.79
X266.7Y-483.87
X266.7Y-492.76
X266.7Y-497.84
X266.7Y-506.73
X266.7Y-511.81
X266.7Y-520.7
X266.7Y-525.78
X266.7Y-534.67
X266.7Y-539.75
X266.7Y-548.64
X266.7Y-553.72
X266.7Y-562.61
X266.7Y-567.69
X266.7Y-576.58
X266.7Y-581.66
X266.7Y-590.55
X266.7Y-595.63
X266.7Y-604.52
X266.7Y-609.6
X267.335Y-436.88
X267.335Y-441.96
X267.335Y-450.85
X267.335Y-455.93
X267.335Y-464.82
X267.335Y-469.9
X269.24Y-478.79
X269.24Y-483.87
X269.24Y-492.76
X269.24Y-497.84
X269.24Y-506.73
X269.24Y-511.81
X269.24Y-520.7
X269.24Y-525.78
X269.24Y-534.67
X269.24Y-539.75
X269.24Y-548.64
X269.24Y-553.72
X269.24Y-562.61
X269.24Y-567.69
X269.24Y-576.58
X269.24Y-581.66
X269.24Y-590.55
X269.24Y-595.63
X269.24Y-604.52
X269.24Y-609.6
X270.51Y-436.88
X270.51Y-441.96
X270.51Y-450.85
X270.51Y-455.93
X270.51Y-464.82
X270.51Y-469.9
X271.78Y-478.79
X271.78Y-483.87
X271.78Y-492.76
X271.78Y-497.84
X271.78Y-506.73
X271.78Y-511.81
X271.78Y-520.7
X271.78Y-525.78
X271.78Y-534.67
X271.78Y-539.75
X271.78Y-548.64
X271.78Y-553.72
X271.78Y-562.61
X271.78Y-567.69
X271.78Y-576.58
X271.78Y-581.66
X271.78Y-590.55
X271.78Y-595.63
X271.78Y-604.52
X271.78Y-609.6
X273.685Y-436.88
X273.685Y-441.96
X273.685Y-450.85
X273.685Y-455.93
X273.685Y-464.82
X273.685Y-469.9
X274.32Y-478.79
X274.32Y-483.87
X274.32Y-492.76
X274.32Y-497.84
X274.32Y-506.73
X274.32Y-511.81
X274.32Y-520.7
X274.32Y-525.78
X274.32Y-534.67
X274.32Y-539.75
X274.32Y-548.64
X274.32Y-553.72
X274.32Y-562.61
X274.32Y-567.69
X274.32Y-576.58
X274.32Y-581.66
X274.32Y-590.55
X274.32Y-595.63
X274.32Y-604.52
X274.32Y-609.6
X276.86Y-436.88
X276.86Y-441.96
X276.86Y-450.85
X276.86Y-455.93
X276.86Y-464.82
X276.86Y-469.9
X276.86Y-478.79
X276.86Y-483.87
X276.86Y-492.76
X276.86Y-497.84
X276.86Y-506.73
X276.86Y-511.81
X276.86Y-520.7
X276.86Y-525.78
X276.86Y-534.67
X276.86Y-539.75
X276.86Y-548.64
X276.86Y-553.72
X276.86Y-562.61
X276.86Y-567.69
X276.86Y-576.58
X276.86Y-581.66
X276.86Y-590.55
X276.86Y-595.63
X276.86Y-604.52
X276.86Y-609.6
X279.4Y-478.79
X279.4Y-483.87
X279.4Y-492.76
X279.4Y-497.84
X279.4Y-506.73
X279.4Y-511.81
X279.4Y-520.7
X279.4Y-525.78
X279.4Y-534.67
X279.4Y-539.75
X279.4Y-548.64
X279.4Y-553.72
X279.4Y-562.61
X279.4Y-567.69
X279.4Y-576.58
X279.4Y-581.66
X279.4Y-590.55
X279.4Y-595.63
X279.4Y-604.52
X279.4Y-609.6
X280.035Y-436.88
X280.035Y-441.96
X280.035Y-450.85
X280.035Y-455.93
X280.035Y-464.82
X280.035Y-469.9
X281.94Y-478.79
X281.94Y-483.87
X281.94Y-492.76
X281.94Y-497.84
X281.94Y-506.73
X281.94Y-511.81
X281.94Y-520.7
X281.94Y-525.78
X281.94Y-534.67
X281.94Y-539.75
X281.94Y-548.64
X281.94Y-553.72
X281.94Y-562.61
X281.94Y-567.69
X281.94Y-576.58
X281.94Y-581.66
X281.94Y-590.55
X281.94Y-595.63
X281.94Y-604.52
X281.94Y-609.6
X283.21Y-436.88
X283.21Y-441.96
X283.21Y-450.85
X283.21Y-455.93
X283.21Y-464.82
X283.21Y-469.9
X284.48Y-478.79
X284.48Y-483.87
X284.48Y-492.76
X284.48Y-497.84
X284.48Y-506.73
X284.48Y-511.81
X284.48Y-520.7
X284.48Y-525.78
X284.48Y-534.67
X284.48Y-539.75
X284.48Y-548.64
X284.48Y-553.72
X284.48Y-562.61
X284.48Y-567.69
X284.48Y-576.58
X284.48Y-581.66
X284.48Y-590.55
X284.48Y-595.63
X284.48Y-604.52
X284.48Y-609.6
X286.385Y-436.88
X286.385Y-441.96
X286.385Y-450.85
X286.385Y-455.93
X286.385Y-464.82
X286.385Y-469.9
X287.02Y-478.79
X287.02Y-483.87
X287.02Y-492.76
X287.02Y-497.84
X287.02Y-506.73
X287.02Y-511.81
X287.02Y-520.7
X287.02Y-525.78
X287.02Y-534.67
X287.02Y-539.75
X287.02Y-548.64
X287.02Y-553.72
X287.02Y-562.61
X287.02Y-567.69
X287.02Y-576.58
X287.02Y-581.66
X287.02Y-590.55
X287.02Y-595.63
X287.02Y-604.52
X287.02Y-609.6
X289.56Y-436.88
X289.56Y-441.96
X289.56Y-446.786
X289.56Y-450.85
X289.56Y-455.93
X289.56Y-464.82
X289.56Y-469.9
X289.56Y-478.79
X289.56Y-483.87
X289.56Y-492.76
X289.56Y-497.84
X289.56Y-506.73
X289.56Y-511.81
X289.56Y-520.7
X289.56Y-525.78
X289.56Y-534.67
X289.56Y-539.75
X289.56Y-548.64
X289.56Y-553.72
X289.56Y-562.61
X289.56Y-567.69
X289.56Y-576.58
X289.56Y-581.66
X289.56Y-590.55
X289.56Y-595.63
X289.56Y-604.52
X289.56Y-609.6
X292.1Y-446.786
X292.1Y-478.79
X292.1Y-483.87
X292.1Y-492.76
X292.1Y-497.84
X292.1Y-506.73
X292.1Y-511.81
X292.1Y-520.7
X292.1Y-525.78
X292.1Y-534.67
X292.1Y-539.75
X292.1Y-548.64
X292.1Y-553.72
X292.1Y-562.61
X292.1Y-567.69
X292.1Y-576.58
X292.1Y-581.66
X292.1Y-590.55
X292.1Y-595.63
X292.1Y-604.52
X292.1Y-609.6
X292.735Y-436.88
X292.735Y-441.96
X292.735Y-450.85
X292.735Y-455.93
X292.735Y-464.82
X292.735Y-469.9
X294.64Y-478.79
X294.64Y-483.87
X294.64Y-492.76
X294.64Y-497.84
X294.64Y-506.73
X294.64Y-511.81
X294.64Y-520.7
X294.64Y-525.78
X294.64Y-534.67
X294.64Y-539.75
X294.64Y-548.64
X294.64Y-553.72
X294.64Y-562.61
X294.64Y-567.69
X294.64Y-576.58
X294.64Y-581.66
X294.64Y-590.55
X294.64Y-595.63
X294.64Y-604.52
X294.64Y-609.6
X295.91Y-436.88
X295.91Y-441.96
X295.91Y-450.85
X295.91Y-455.93
X295.91Y-464.82
X295.91Y-469.9
X297.18Y-478.79
X297.18Y-483.87
X297.18Y-492.76
X297.18Y-497.84
X297.18Y-506.73
X297.18Y-511.81
X297.18Y-520.7
X297.18Y-525.78
X297.18Y-534.67
X297.18Y-539.75
X297.18Y-548.64
X297.18Y-553.72
X297.18Y-562.61
X297.18Y-567.69
X297.18Y-576.58
X297.18Y-581.66
X297.18Y-590.55
X297.18Y-595.63
X297.18Y-604.52
X297.18Y-609.6
X299.085Y-436.88
X299.085Y-441.96
X299.085Y-450.85
X299.085Y-455.93
X299.085Y-464.82
X299.085Y-469.9
X299.72Y-478.79
X299.72Y-483.87
X299.72Y-492.76
X299.72Y-497.84
X299.72Y-506.73
X299.72Y-511.81
X299.72Y-520.7
X299.72Y-525.78
X299.72Y-534.67
X299.72Y-539.75
X299.72Y-548.64
X299.72Y-553.72
X299.72Y-562.61
X299.72Y-567.69
X299.72Y-576.58
X299.72Y-581.66
X299.72Y-590.55
X299.72Y-595.63
X299.72Y-604.52
X299.72Y-609.6
X302.26Y-436.88
X302.26Y-441.96
X302.26Y-450.85
X302.26Y-455.93
X302.26Y-464.82
X302.26Y-469.9
X302.26Y-478.79
X302.26Y-483.87
X302.26Y-492.76
X302.26Y-497.84
X302.26Y-506.73
X302.26Y-511.81
X302.26Y-520.7
X302.26Y-525.78
X302.26Y-534.67
X302.26Y-539.75
X302.26Y-548.64
X302.26Y-553.72
X302.26Y-562.61
X302.26Y-567.69
X302.26Y-576.58
X302.26Y-581.66
X302.26Y-590.55
X302.26Y-595.63
X302.26Y-604.52
X302.26Y-609.6
X304.8Y-478.79
X304.8Y-483.87
X304.8Y-492.76
X304.8Y-497.84
X304.8Y-506.73
X304.8Y-511.81
X304.8Y-520.7
X304.8Y-525.78
X304.8Y-534.67
X304.8Y-539.75
X304.8Y-548.64
X304.8Y-553.72
X304.8Y-562.61
X304.8Y-567.69
X304.8Y-576.58
X304.8Y-581.66
X304.8Y-590.55
X304.8Y-595.63
X304.8Y-604.52
X304.8Y-609.6
X305.435Y-436.88
X305.435Y-441.96
X305.435Y-450.85
X305.435Y-455.93
X305.435Y-464.82
X305.435Y-469.9
X307.34Y-478.79
X307.34Y-483.87
X307.34Y-492.76
X307.34Y-497.84
X307.34Y-506.73
X307.34Y-511.81
X307.34Y-520.7
X307.34Y-525.78
X307.34Y-534.67
X307.34Y-539.75
X307.34Y-548.64
X307.34Y-553.72
X307.34Y-562.61
X307.34Y-567.69
X307.34Y-576.58
X307.34Y-581.66
X307.34Y-590.55
X307.34Y-595.63
X307.34Y-604.52
X307.34Y-609.6
X308.61Y-436.88
X308.61Y-441.96
X308.61Y-450.85
X308.61Y-455.93
X308.61Y-464.82
X308.61Y-469.9
X309.88Y-478.79
X309.88Y-483.87
X309.88Y-492.76
X309.88Y-497.84
X309.88Y-506.73
X309.88Y-511.81
X309.88Y-520.7
X309.88Y-525.78
X309.88Y-534.67
X309.88Y-539.75
X309.88Y-548.64
X309.88Y-553.72
X309.88Y-562.61
X309.88Y-567.69
X309.88Y-576.58
X309.88Y-581.66
X309.88Y-590.55
X309.88Y-595.63
X309.88Y-604.52
X309.88Y-609.6
X311.785Y-436.88
X311.785Y-441.96
X311.785Y-450.85
X311.785Y-455.93
X311.785Y-464.82
X311.785Y-469.9
X312.42Y-478.79
X312.42Y-483.87
X312.42Y-492.76
X312.42Y-497.84
X312.42Y-506.73
X312.42Y-511.81
X312.42Y-520.7
X312.42Y-525.78
X312.42Y-534.67
X312.42Y-539.75
X312.42Y-548.64
X312.42Y-553.72
X312.42Y-562.61
X312.42Y-567.69
X312.42Y-576.58
X312.42Y-581.66
X312.42Y-590.55
X312.42Y-595.63
X312.42Y-604.52
X312.42Y-609.6
X314.96Y-436.88
X314.96Y-441.96
X314.96Y-450.85
X314.96Y-455.93
X314.96Y-464.82
X314.96Y-469.9
X314.96Y-478.79
X314.96Y-483.87
X314.96Y-492.76
X314.96Y-497.84
X314.96Y-506.73
X314.96Y-511.81
X314.96Y-520.7
X314.96Y-525.78
X314.96Y-534.67
X314.96Y-539.75
X314.96Y-548.64
X314.96Y-553.72
X314.96Y-562.61
X314.96Y-567.69
X314.96Y-576.58
X314.96Y-581.66
X314.96Y-590.55
X314.96Y-595.63
X314.96Y-604.52
X314.96Y-609.6
X317.5Y-478.79
X317.5Y-483.87
X317.5Y-492.76
X317.5Y-497.84
X317.5Y-506.73
X317.5Y-511.81
X317.5Y-520.7
X317.5Y-525.78
X317.5Y-534.67
X317.5Y-539.75
X317.5Y-548.64
X317.5Y-553.72
X317.5Y-562.61
X317.5Y-567.69
X317.5Y-576.58
X317.5Y-581.66
X317.5Y-590.55
X317.5Y-595.63
X317.5Y-604.52
X317.5Y-609.6
X318.135Y-436.88
X318.135Y-441.96
X318.135Y-450.85
X318.135Y-455.93
X318.135Y-464.82
X318.135Y-469.9
X320.04Y-478.79
X320.04Y-483.87
X320.04Y-492.76
X320.04Y-497.84
X320.04Y-506.73
X320.04Y-511.81
X320.04Y-520.7
X320.04Y-525.78
X320.04Y-534.67
X320.04Y-539.75
X320.04Y-548.64
X320.04Y-553.72
X320.04Y-562.61
X320.04Y-567.69
X320.04Y-576.58
X320.04Y-581.66
X320.04Y-590.55
X320.04Y-595.63
X320.04Y-604.52
X320.04Y-609.6
X321.31Y-436.88
X321.31Y-441.96
X321.31Y-450.85
X321.31Y-455.93
X321.31Y-464.82
X321.31Y-469.9
X322.58Y-478.79
X322.58Y-483.87
X322.58Y-492.76
X322.58Y-497.84
X322.58Y-506.73
X322.58Y-511.81
X322.58Y-520.7
X322.58Y-525.78
X322.58Y-534.67
X322.58Y-539.75
X322.58Y-548.64
X322.58Y-553.72
X322.58Y-562.61
X322.58Y-567.69
X322.58Y-576.58
X322.58Y-581.66
X322.58Y-590.55
X322.58Y-595.63
X322.58Y-604.52
X322.58Y-609.6
X324.485Y-436.88
X324.485Y-441.96
X324.485Y-450.85
X324.485Y-455.93
X324.485Y-464.82
X324.485Y-469.9
X325.12Y-478.79
X325.12Y-483.87
X325.12Y-492.76
X325.12Y-497.84
X325.12Y-506.73
X325.12Y-511.81
X325.12Y-520.7
X325.12Y-525.78
X325.12Y-534.67
X325.12Y-539.75
X325.12Y-548.64
X325.12Y-553.72
X325.12Y-562.61
X325.12Y-567.69
X325.12Y-576.58
X325.12Y-581.66
X325.12Y-590.55
X325.12Y-595.63
X325.12Y-604.52
X325.12Y-609.6
X327.66Y-436.88
X327.66Y-441.96
X327.66Y-450.85
X327.66Y-455.93
X327.66Y-464.82
X327.66Y-469.9
X327.66Y-478.79
X327.66Y-483.87
X327.66Y-492.76
X327.66Y-497.84
X327.66Y-506.73
X327.66Y-511.81
X327.66Y-520.7
X327.66Y-525.78
X327.66Y-534.67
X327.66Y-539.75
X327.66Y-548.64
X327.66Y-553.72
X327.66Y-562.61
X327.66Y-567.69
X327.66Y-576.58
X327.66Y-581.66
X327.66Y-590.55
X327.66Y-595.63
X327.66Y-604.52
X327.66Y-609.6
X330.2Y-478.79
X330.2Y-483.87
X330.2Y-492.76
X330.2Y-497.84
X330.2Y-506.73
X330.2Y-511.81
X330.2Y-520.7
X330.2Y-525.78
X330.2Y-534.67
X330.2Y-539.75
X330.2Y-548.64
X330.2Y-553.72
X330.2Y-562.61
X330.2Y-567.69
X330.2Y-576.58
X330.2Y-581.66
X330.2Y-590.55
X330.2Y-595.63
X330.2Y-604.52
X330.2Y-609.6
X330.835Y-436.88
X330.835Y-441.96
X330.835Y-450.85
X330.835Y-455.93
X330.835Y-464.82
X330.835Y-469.9
X332.74Y-478.79
X332.74Y-483.87
X332.74Y-492.76
X332.74Y-497.84
X332.74Y-506.73
X332.74Y-511.81
X332.74Y-520.7
X332.74Y-525.78
X332.74Y-534.67
X332.74Y-539.75
X332.74Y-548.64
X332.74Y-553.72
X332.74Y-562.61
X332.74Y-567.69
X332.74Y-576.58
X332.74Y-581.66
X332.74Y-590.55
X332.74Y-595.63
X332.74Y-604.52
X332.74Y-609.6
X334.01Y-436.88
X334.01Y-441.96
X334.01Y-450.85
X334.01Y-455.93
X334.01Y-464.82
X334.01Y-469.9
X335.28Y-478.79
X335.28Y-483.87
X335.28Y-492.76
X335.28Y-497.84
X335.28Y-506.73
X335.28Y-511.81
X335.28Y-520.7
X335.28Y-525.78
X335.28Y-534.67
X335.28Y-539.75
X335.28Y-548.64
X335.28Y-553.72
X335.28Y-562.61
X335.28Y-567.69
X335.28Y-576.58
X335.28Y-581.66
X335.28Y-590.55
X335.28Y-595.63
X335.28Y-604.52
X335.28Y-609.6
X337.185Y-436.88
X337.185Y-441.96
X337.185Y-450.85
X337.185Y-455.93
X337.185Y-464.82
X337.185Y-469.9
X337.82Y-478.79
X337.82Y-483.87
X337.82Y-492.76
X337.82Y-497.84
X337.82Y-506.73
X337.82Y-511.81
X337.82Y-520.7
X337.82Y-525.78
X337.82Y-534.67
X337.82Y-539.75
X337.82Y-548.64
X337.82Y-553.72
X337.82Y-562.61
X337.82Y-567.69
X337.82Y-576.58
X337.82Y-581.66
X337.82Y-590.55
X337.82Y-595.63
X337.82Y-604.52
X337.82Y-609.6
X340.36Y-436.88
X340.36Y-441.96
X340.36Y-450.85
X340.36Y-455.93
X340.36Y-464.82
X340.36Y-469.9
X340.36Y-478.79
X340.36Y-483.87
X340.36Y-492.76
X340.36Y-497.84
X340.36Y-506.73
X340.36Y-511.81
X340.36Y-520.7
X340.36Y-525.78
X340.36Y-534.67
X340.36Y-539.75
X340.36Y-548.64
X340.36Y-553.72
X340.36Y-562.61
X340.36Y-567.69
X340.36Y-576.58
X340.36Y-581.66
X340.36Y-590.55
X340.36Y-595.63
X340.36Y-604.52
X340.36Y-609.6
X342.9Y-478.79
X342.9Y-483.87
X342.9Y-492.76
X342.9Y-497.84
X342.9Y-506.73
X342.9Y-511.81
X342.9Y-520.7
X342.9Y-525.78
X342.9Y-534.67
X342.9Y-539.75
X342.9Y-548.64
X342.9Y-553.72
X342.9Y-562.61
X342.9Y-567.69
X342.9Y-576.58
X342.9Y-581.66
X342.9Y-590.55
X342.9Y-595.63
X342.9Y-604.52
X342.9Y-609.6
X343.535Y-436.88
X343.535Y-441.96
X343.535Y-450.85
X343.535Y-455.93
X343.535Y-464.82
X343.535Y-469.9
X345.44Y-478.79
X345.44Y-483.87
X345.44Y-492.76
X345.44Y-497.84
X345.44Y-506.73
X345.44Y-511.81
X345.44Y-520.7
X345.44Y-525.78
X345.44Y-534.67
X345.44Y-539.75
X345.44Y-548.64
X345.44Y-553.72
X345.44Y-562.61
X345.44Y-567.69
X345.44Y-576.58
X345.44Y-581.66
X345.44Y-590.55
X345.44Y-595.63
X345.44Y-604.52
X345.44Y-609.6
X346.71Y-436.88
X346.71Y-441.96
X346.71Y-450.85
X346.71Y-455.93
X346.71Y-464.82
X346.71Y-469.9
X347.98Y-478.79
X347.98Y-483.87
X347.98Y-492.76
X347.98Y-497.84
X347.98Y-506.73
X347.98Y-511.81
X347.98Y-520.7
X347.98Y-525.78
X347.98Y-534.67
X347.98Y-539.75
X347.98Y-548.64
X347.98Y-553.72
X347.98Y-562.61
X347.98Y-567.69
X347.98Y-576.58
X347.98Y-581.66
X347.98Y-590.55
X347.98Y-595.63
X347.98Y-604.52
X347.98Y-609.6
X349.885Y-436.88
X349.885Y-441.96
X349.885Y-450.85
X349.885Y-455.93
X349.885Y-464.82
X349.885Y-469.9
X350.52Y-478.79
X350.52Y-483.87
X350.52Y-492.76
X350.52Y-497.84
X350.52Y-506.73
X350.52Y-511.81
X350.52Y-520.7
X350.52Y-525.78
X350.52Y-534.67
X350.52Y-539.75
X350.52Y-548.64
X350.52Y-553.72
X350.52Y-562.61
X350.52Y-567.69
X350.52Y-576.58
X350.52Y-581.66
X350.52Y-590.55
X350.52Y-595.63
X350.52Y-604.52
X350.52Y-609.6
X353.06Y-436.88
X353.06Y-441.96
X353.06Y-450.85
X353.06Y-455.93
X353.06Y-464.82
X353.06Y-469.9
X353.06Y-478.79
X353.06Y-483.87
X353.06Y-492.76
X353.06Y-497.84
X353.06Y-506.73
X353.06Y-511.81
X353.06Y-520.7
X353.06Y-525.78
X353.06Y-534.67
X353.06Y-539.75
X353.06Y-548.64
X353.06Y-553.72
X353.06Y-562.61
X353.06Y-567.69
X353.06Y-576.58
X353.06Y-581.66
X353.06Y-590.55
X353.06Y-595.63
X353.06Y-604.52
X353.06Y-609.6
X355.6Y-478.79
X355.6Y-483.87
X355.6Y-492.76
X355.6Y-497.84
X355.6Y-506.73
X355.6Y-511.81
X355.6Y-520.7
X355.6Y-525.78
X355.6Y-534.67
X355.6Y-539.75
X355.6Y-548.64
X355.6Y-553.72
X355.6Y-562.61
X355.6Y-567.69
X355.6Y-576.58
X355.6Y-581.66
X355.6Y-590.55
X355.6Y-595.63
X355.6Y-604.52
X355.6Y-609.6
X356.235Y-436.88
X356.235Y-441.96
X356.235Y-450.85
X356.235Y-455.93
X356.235Y-464.82
X356.235Y-469.9
X358.14Y-478.79
X358.14Y-483.87
X358.14Y-492.76
X358.14Y-497.84
X358.14Y-506.73
X358.14Y-511.81
X358.14Y-520.7
X358.14Y-525.78
X358.14Y-534.67
X358.14Y-539.75
X358.14Y-548.64
X358.14Y-553.72
X358.14Y-562.61
X358.14Y-567.69
X358.14Y-576.58
X358.14Y-581.66
X358.14Y-590.55
X358.14Y-595.63
X358.14Y-604.52
X358.14Y-609.6
X359.41Y-436.88
X359.41Y-441.96
X359.41Y-450.85
X359.41Y-455.93
X359.41Y-464.82
X359.41Y-469.9
X360.68Y-478.79
X360.68Y-483.87
X360.68Y-492.76
X360.68Y-497.84
X360.68Y-506.73
X360.68Y-511.81
X360.68Y-520.7
X360.68Y-525.78
X360.68Y-534.67
X360.68Y-539.75
X360.68Y-548.64
X360.68Y-553.72
X360.68Y-562.61
X360.68Y-567.69
X360.68Y-576.58
X360.68Y-581.66
X360.68Y-590.55
X360.68Y-595.63
X360.68Y-604.52
X360.68Y-609.6
X362.585Y-436.88
X362.585Y-441.96
X362.585Y-450.85
X362.585Y-455.93
X362.585Y-464.82
X362.585Y-469.9
X363.22Y-478.79
X363.22Y-483.87
X363.22Y-492.76
X363.22Y-497.84
X363.22Y-506.73
X363.22Y-511.81
X363.22Y-520.7
X363.22Y-525.78
X363.22Y-534.67
X363.22Y-539.75
X363.22Y-548.64
X363.22Y-553.72
X363.22Y-562.61
X363.22Y-567.69
X363.22Y-576.58
X363.22Y-581.66
X363.22Y-590.55
X363.22Y-595.63
X363.22Y-604.52
X363.22Y-609.6
X365.76Y-436.88
X365.76Y-441.96
X365.76Y-450.85
X365.76Y-455.93
X365.76Y-464.82
X365.76Y-469.9
X368.935Y-436.88
X368.935Y-441.96
X368.935Y-450.85
X368.935Y-455.93
X368.935Y-464.82
X368.935Y-469.9
X390.525Y-436.88
X390.525Y-441.96
X390.525Y-450.85
X390.525Y-455.93
X390.525Y-464.82
X390.525Y-469.9
X393.7Y-436.88
X393.7Y-441.96
X393.7Y-450.85
X393.7Y-455.93
X393.7Y-464.82
X393.7Y-469.9
X396.24Y-478.79
X396.24Y-483.87
X396.24Y-492.76
X396.24Y-497.84
X396.24Y-506.73
X396.24Y-511.81
X396.24Y-520.7
X396.24Y-525.78
X396.24Y-534.67
X396.24Y-539.75
X396.24Y-548.64
X396.24Y-553.72
X396.24Y-562.61
X396.24Y-567.69
X396.24Y-576.58
X396.24Y-581.66
X396.24Y-590.55
X396.24Y-595.63
X396.24Y-604.52
X396.24Y-609.6
X396.875Y-436.88
X396.875Y-441.96
X396.875Y-450.85
X396.875Y-455.93
X396.875Y-464.82
X396.875Y-469.9
X398.78Y-478.79
X398.78Y-483.87
X398.78Y-492.76
X398.78Y-497.84
X398.78Y-506.73
X398.78Y-511.81
X398.78Y-520.7
X398.78Y-525.78
X398.78Y-534.67
X398.78Y-539.75
X398.78Y-548.64
X398.78Y-553.72
X398.78Y-562.61
X398.78Y-567.69
X398.78Y-576.58
X398.78Y-581.66
X398.78Y-590.55
X398.78Y-595.63
X398.78Y-604.52
X398.78Y-609.6
X400.05Y-436.88
X400.05Y-441.96
X400.05Y-450.85
X400.05Y-455.93
X400.05Y-464.82
X400.05Y-469.9
X401.32Y-478.79
X401.32Y-483.87
X401.32Y-492.76
X401.32Y-497.84
X401.32Y-506.73
X401.32Y-511.81
X401.32Y-520.7
X401.32Y-525.78
X401.32Y-534.67
X401.32Y-539.75
X401.32Y-548.64
X401.32Y-553.72
X401.32Y-562.61
X401.32Y-567.69
X401.32Y-576.58
X401.32Y-581.66
X401.32Y-590.55
X401.32Y-595.63
X401.32Y-604.52
X401.32Y-609.6
X403.225Y-436.88
X403.225Y-441.96
X403.225Y-450.85
X403.225Y-455.93
X403.225Y-464.82
X403.225Y-469.9
X403.86Y-478.79
X403.86Y-483.87
X403.86Y-492.76
X403.86Y-497.84
X403.86Y-506.73
X403.86Y-511.81
X403.86Y-520.7
X403.86Y-525.78
X403.86Y-534.67
X403.86Y-539.75
X403.86Y-548.64
X403.86Y-553.72
X403.86Y-562.61
X403.86Y-567.69
X403.86Y-576.58
X403.86Y-581.66
X403.86Y-590.55
X403.86Y-595.63
X403.86Y-604.52
X403.86Y-609.6
X406.4Y-436.88
X406.4Y-441.96
X406.4Y-450.85
X406.4Y-455.93
X406.4Y-464.82
X406.4Y-469.9
X406.4Y-478.79
X406.4Y-483.87
X406.4Y-492.76
X406.4Y-497.84
X406.4Y-506.73
X406.4Y-511.81
X406.4Y-520.7
X406.4Y-525.78
X406.4Y-534.67
X406.4Y-539.75
X406.4Y-548.64
X406.4Y-553.72
X406.4Y-562.61
X406.4Y-567.69
X406.4Y-576.58
X406.4Y-581.66
X406.4Y-590.55
X406.4Y-595.63
X406.4Y-604.52
X406.4Y-609.6
X408.94Y-478.79
X408.94Y-483.87
X408.94Y-492.76
X408.94Y-497.84
X408.94Y-506.73
X408.94Y-511.81
X408.94Y-520.7
X408.94Y-525.78
X408.94Y-534.67
X408.94Y-539.75
X408.94Y-548.64
X408.94Y-553.72
X408.94Y-562.61
X408.94Y-567.69
X408.94Y-576.58
X408.94Y-581.66
X408.94Y-590.55
X408.94Y-595.63
X408.94Y-604.52
X408.94Y-609.6
X409.575Y-436.88
X409.575Y-441.96
X409.575Y-450.85
X409.575Y-455.93
X409.575Y-464.82
X409.575Y-469.9
X411.48Y-478.79
X411.48Y-483.87
X411.48Y-492.76
X411.48Y-497.84
X411.48Y-506.73
X411.48Y-511.81
X411.48Y-520.7
X411.48Y-525.78
X411.48Y-534.67
X411.48Y-539.75
X411.48Y-548.64
X411.48Y-553.72
X411.48Y-562.61
X411.48Y-567.69
X411.48Y-576.58
X411.48Y-581.66
X411.48Y-590.55
X411.48Y-595.63
X411.48Y-604.52
X411.48Y-609.6
X412.75Y-436.88
X412.75Y-441.96
X412.75Y-450.85
X412.75Y-455.93
X412.75Y-464.82
X412.75Y-469.9
X414.02Y-478.79
X414.02Y-483.87
X414.02Y-492.76
X414.02Y-497.84
X414.02Y-506.73
X414.02Y-511.81
X414.02Y-520.7
X414.02Y-525.78
X414.02Y-534.67
X414.02Y-539.75
X414.02Y-548.64
X414.02Y-553.72
X414.02Y-562.61
X414.02Y-567.69
X414.02Y-576.58
X414.02Y-581.66
X414.02Y-590.55
X414.02Y-595.63
X414.02Y-604.52
X414.02Y-609.6
X415.925Y-436.88
X415.925Y-441.96
X415.925Y-450.85
X415.925Y-455.93
X415.925Y-464.82
X415.925Y-469.9
X416.56Y-478.79
X416.56Y-483.87
X416.56Y-492.76
X416.56Y-497.84
X416.56Y-506.73
X416.56Y-511.81
X416.56Y-520.7
X416.56Y-525.78
X416.56Y-534.67
X416.56Y-539.75
X416.56Y-548.64
X416.56Y-553.72
X416.56Y-562.61
X416.56Y-567.69
X416.56Y-576.58
X416.56Y-581.66
X416.56Y-590.55
X416.56Y-595.63
X416.56Y-604.52
X416.56Y-609.6
X419.1Y-436.88
X419.1Y-441.96
X419.1Y-450.85
X419.1Y-455.93
X419.1Y-464.82
X419.1Y-469.9
X419.1Y-478.79
X419.1Y-483.87
X419.1Y-492.76
X419.1Y-497.84
X419.1Y-506.73
X419.1Y-511.81
X419.1Y-520.7
X419.1Y-525.78
X419.1Y-534.67
X419.1Y-539.75
X419.1Y-548.64
X419.1Y-553.72
X419.1Y-562.61
X419.1Y-567.69
X419.1Y-576.58
X419.1Y-581.66
X419.1Y-590.55
X419.1Y-595.63
X419.1Y-604.52
X419.1Y-609.6
X421.64Y-478.79
X421.64Y-483.87
X421.64Y-492.76
X421.64Y-497.84
X421.64Y-506.73
X421.64Y-511.81
X421.64Y-520.7
X421.64Y-525.78
X421.64Y-534.67
X421.64Y-539.75
X421.64Y-548.64
X421.64Y-553.72
X421.64Y-562.61
X421.64Y-567.69
X421.64Y-576.58
X421.64Y-581.66
X421.64Y-590.55
X421.64Y-595.63
X421.64Y-604.52
X421.64Y-609.6
X422.275Y-436.88
X422.275Y-441.96
X422.275Y-450.85
X422.275Y-455.93
X422.275Y-464.82
X422.275Y-469.9
X424.18Y-478.79
X424.18Y-483.87
X424.18Y-492.76
X424.18Y-497.84
X424.18Y-506.73
X424.18Y-511.81
X424.18Y-520.7
X424.18Y-525.78
X424.18Y-534.67
X424.18Y-539.75
X424.18Y-548.64
X424.18Y-553.72
X424.18Y-562.61
X424.18Y-567.69
X424.18Y-576.58
X424.18Y-581.66
X424.18Y-590.55
X424.18Y-595.63
X424.18Y-604.52
X424.18Y-609.6
X425.45Y-436.88
X425.45Y-441.96
X425.45Y-450.85
X425.45Y-455.93
X425.45Y-464.82
X425.45Y-469.9
X426.72Y-478.79
X426.72Y-483.87
X426.72Y-492.76
X426.72Y-497.84
X426.72Y-506.73
X426.72Y-511.81
X426.72Y-520.7
X426.72Y-525.78
X426.72Y-534.67
X426.72Y-539.75
X426.72Y-548.64
X426.72Y-553.72
X426.72Y-562.61
X426.72Y-567.69
X426.72Y-576.58
X426.72Y-581.66
X426.72Y-590.55
X426.72Y-595.63
X426.72Y-604.52
X426.72Y-609.6
X428.625Y-436.88
X428.625Y-441.96
X428.625Y-450.85
X428.625Y-455.93
X428.625Y-464.82
X428.625Y-469.9
X429.26Y-478.79
X429.26Y-483.87
X429.26Y-492.76
X429.26Y-497.84
X429.26Y-506.73
X429.26Y-511.81
X429.26Y-520.7
X429.26Y-525.78
X429.26Y-534.67
X429.26Y-539.75
X429.26Y-548.64
X429.26Y-553.72
X429.26Y-562.61
X429.26Y-567.69
X429.26Y-576.58
X429.26Y-581.66
X429.26Y-590.55
X429.26Y-595.63
X429.26Y-604.52
X429.26Y-609.6
X431.8Y-436.88
X431.8Y-441.96
X431.8Y-450.85
X431.8Y-455.93
X431.8Y-464.82
X431.8Y-469.9
X431.8Y-478.79
X431.8Y-483.87
X431.8Y-492.76
X431.8Y-497.84
X431.8Y-506.73
X431.8Y-511.81
X431.8Y-520.7
X431.8Y-525.78
X431.8Y-534.67
X431.8Y-539.75
X431.8Y-548.64
X431.8Y-553.72
X431.8Y-562.61
X431.8Y-567.69
X431.8Y-576.58
X431.8Y-581.66
X431.8Y-590.55
X431.8Y-595.63
X431.8Y-604.52
X431.8Y-609.6
X434.34Y-478.79
X434.34Y-483.87
X434.34Y-492.76
X434.34Y-497.84
X434.34Y-506.73
X434.34Y-511.81
X434.34Y-520.7
X434.34Y-525.78
X434.34Y-534.67
X434.34Y-539.75
X434.34Y-548.64
X434.34Y-553.72
X434.34Y-562.61
X434.34Y-567.69
X434.34Y-576.58
X434.34Y-581.66
X434.34Y-590.55
X434.34Y-595.63
X434.34Y-604.52
X434.34Y-609.6
X434.975Y-436.88
X434.975Y-441.96
X434.975Y-450.85
X434.975Y-455.93
X434.975Y-464.82
X434.975Y-469.9
X436.88Y-478.79
X436.88Y-483.87
X436.88Y-492.76
X436.88Y-497.84
X436.88Y-506.73
X436.88Y-511.81
X436.88Y-520.7
X436.88Y-525.78
X436.88Y-534.67
X436.88Y-539.75
X436.88Y-548.64
X436.88Y-553.72
X436.88Y-562.61
X436.88Y-567.69
X436.88Y-576.58
X436.88Y-581.66
X436.88Y-590.55
X436.88Y-595.63
X436.88Y-604.52
X436.88Y-609.6
X438.15Y-436.88
X438.15Y-441.96
X438.15Y-450.85
X438.15Y-455.93
X438.15Y-464.82
X438.15Y-469.9
X439.42Y-478.79
X439.42Y-483.87
X439.42Y-492.76
X439.42Y-497.84
X439.42Y-506.73
X439.42Y-511.81
X439.42Y-520.7
X439.42Y-525.78
X439.42Y-534.67
X439.42Y-539.75
X439.42Y-548.64
X439.42Y-553.72
X439.42Y-562.61
X439.42Y-567.69
X439.42Y-576.58
X439.42Y-581.66
X439.42Y-590.55
X439.42Y-595.63
X439.42Y-604.52
X439.42Y-609.6
X441.325Y-436.88
X441.325Y-441.96
X441.325Y-450.85
X441.325Y-455.93
X441.325Y-464.82
X441.325Y-469.9
X441.96Y-478.79
X441.96Y-483.87
X441.96Y-492.76
X441.96Y-497.84
X441.96Y-506.73
X441.96Y-511.81
X441.96Y-520.7
X441.96Y-525.78
X441.96Y-534.67
X441.96Y-539.75
X441.96Y-548.64
X441.96Y-553.72
X441.96Y-562.61
X441.96Y-567.69
X441.96Y-576.58
X441.96Y-581.66
X441.96Y-590.55
X441.96Y-595.63
X441.96Y-604.52
X441.96Y-609.6
X444.5Y-436.88
X444.5Y-441.96
X444.5Y-450.85
X444.5Y-455.93
X444.5Y-464.82
X444.5Y-469.9
X444.5Y-478.79
X444.5Y-483.87
X444.5Y-492.76
X444.5Y-497.84
X444.5Y-506.73
X444.5Y-511.81
X444.5Y-520.7
X444.5Y-525.78
X444.5Y-534.67
X444.5Y-539.75
X444.5Y-548.64
X444.5Y-553.72
X444.5Y-562.61
X444.5Y-567.69
X444.5Y-576.58
X444.5Y-581.66
X444.5Y-590.55
X444.5Y-595.63
X444.5Y-604.52
X444.5Y-609.6
X447.04Y-478.79
X447.04Y-483.87
X447.04Y-492.76
X447.04Y-497.84
X447.04Y-506.73
X447.04Y-511.81
X447.04Y-520.7
X447.04Y-525.78
X447.04Y-534.67
X447.04Y-539.75
X447.04Y-548.64
X447.04Y-553.72
X447.04Y-562.61
X447.04Y-567.69
X447.04Y-576.58
X447.04Y-581.66
X447.04Y-590.55
X447.04Y-595.63
X447.04Y-604.52
X447.04Y-609.6
X447.675Y-436.88
X447.675Y-441.96
X447.675Y-450.85
X447.675Y-455.93
X447.675Y-464.82
X447.675Y-469.9
X449.58Y-478.79
X449.58Y-483.87
X449.58Y-492.76
X449.58Y-497.84
X449.58Y-506.73
X449.58Y-511.81
X449.58Y-520.7
X449.58Y-525.78
X449.58Y-534.67
X449.58Y-539.75
X449.58Y-548.64
X449.58Y-553.72
X449.58Y-562.61
X449.58Y-567.69
X449.58Y-576.58
X449.58Y-581.66
X449.58Y-590.55
X449.58Y-595.63
X449.58Y-604.52
X449.58Y-609.6
X450.85Y-436.88
X450.85Y-441.96
X450.85Y-450.85
X450.85Y-455.93
X450.85Y-464.82
X450.85Y-469.9
X452.12Y-478.79
X452.12Y-483.87
X452.12Y-492.76
X452.12Y-497.84
X452.12Y-506.73
X452.12Y-511.81
X452.12Y-520.7
X452.12Y-525.78
X452.12Y-534.67
X452.12Y-539.75
X452.12Y-548.64
X452.12Y-553.72
X452.12Y-562.61
X452.12Y-567.69
X452.12Y-576.58
X452.12Y-581.66
X452.12Y-590.55
X452.12Y-595.63
X452.12Y-604.52
X452.12Y-609.6
X454.025Y-436.88
X454.025Y-441.96
X454.025Y-450.85
X454.025Y-455.93
X454.025Y-464.82
X454.025Y-469.9
X454.66Y-478.79
X454.66Y-483.87
X454.66Y-492.76
X454.66Y-497.84
X454.66Y-506.73
X454.66Y-511.81
X454.66Y-520.7
X454.66Y-525.78
X454.66Y-534.67
X454.66Y-539.75
X454.66Y-548.64
X454.66Y-553.72
X454.66Y-562.61
X454.66Y-567.69
X454.66Y-576.58
X454.66Y-581.66
X454.66Y-590.55
X454.66Y-595.63
X454.66Y-604.52
X454.66Y-609.6
X457.2Y-436.88
X457.2Y-441.96
X457.2Y-450.85
X457.2Y-455.93
X457.2Y-464.82
X457.2Y-469.9
X457.2Y-478.79
X457.2Y-483.87
X457.2Y-492.76
X457.2Y-497.84
X457.2Y-506.73
X457.2Y-511.81
X457.2Y-520.7
X457.2Y-525.78
X457.2Y-534.67
X457.2Y-539.75
X457.2Y-548.64
X457.2Y-553.72
X457.2Y-562.61
X457.2Y-567.69
X457.2Y-576.58
X457.2Y-581.66
X457.2Y-590.55
X457.2Y-595.63
X457.2Y-604.52
X457.2Y-609.6
X459.74Y-478.79
X459.74Y-483.87
X459.74Y-492.76
X459.74Y-497.84
X459.74Y-506.73
X459.74Y-511.81
X459.74Y-520.7
X459.74Y-525.78
X459.74Y-534.67
X459.74Y-539.75
X459.74Y-548.64
X459.74Y-553.72
X459.74Y-562.61
X459.74Y-567.69
X459.74Y-576.58
X459.74Y-581.66
X459.74Y-590.55
X459.74Y-595.63
X459.74Y-604.52
X459.74Y-609.6
X460.375Y-436.88
X460.375Y-441.96
X460.375Y-450.85
X460.375Y-455.93
X460.375Y-464.82
X460.375Y-469.9
X462.28Y-478.79
X462.28Y-483.87
X462.28Y-492.76
X462.28Y-497.84
X462.28Y-506.73
X462.28Y-511.81
X462.28Y-520.7
X462.28Y-525.78
X462.28Y-534.67
X462.28Y-539.75
X462.28Y-548.64
X462.28Y-553.72
X462.28Y-562.61
X462.28Y-567.69
X462.28Y-576.58
X462.28Y-581.66
X462.28Y-590.55
X462.28Y-595.63
X462.28Y-604.52
X462.28Y-609.6
X463.55Y-436.88
X463.55Y-441.96
X463.55Y-450.85
X463.55Y-455.93
X463.55Y-464.82
X463.55Y-469.9
X464.82Y-478.79
X464.82Y-483.87
X464.82Y-492.76
X464.82Y-497.84
X464.82Y-506.73
X464.82Y-511.81
X464.82Y-520.7
X464.82Y-525.78
X464.82Y-534.67
X464.82Y-539.75
X464.82Y-548.64
X464.82Y-553.72
X464.82Y-562.61
X464.82Y-567.69
X464.82Y-576.58
X464.82Y-581.66
X464.82Y-590.55
X464.82Y-595.63
X464.82Y-604.52
X464.82Y-609.6
X466.725Y-436.88
X466.725Y-441.96
X466.725Y-450.85
X466.725Y-455.93
X466.725Y-464.82
X466.725Y-469.9
X467.36Y-478.79
X467.36Y-483.87
X467.36Y-492.76
X467.36Y-497.84
X467.36Y-506.73
X467.36Y-511.81
X467.36Y-520.7
X467.36Y-525.78
X467.36Y-534.67
X467.36Y-539.75
X467.36Y-548.64
X467.36Y-553.72
X467.36Y-562.61
X467.36Y-567.69
X467.36Y-576.58
X467.36Y-581.66
X467.36Y-590.55
X467.36Y-595.63
X467.36Y-604.52
X467.36Y-609.6
X469.9Y-436.88
X469.9Y-441.96
X469.9Y-450.85
X469.9Y-455.93
X469.9Y-464.82
X469.9Y-469.9
X469.9Y-478.79
X469.9Y-483.87
X469.9Y-492.76
X469.9Y-497.84
X469.9Y-506.73
X469.9Y-511.81
X469.9Y-520.7
X469.9Y-525.78
X469.9Y-534.67
X469.9Y-539.75
X469.9Y-548.64
X469.9Y-553.72
X469.9Y-562.61
X469.9Y-567.69
X469.9Y-576.58
X469.9Y-581.66
X469.9Y-590.55
X469.9Y-595.63
X469.9Y-604.52
X469.9Y-609.6
X472.44Y-478.79
X472.44Y-483.87
X472.44Y-492.76
X472.44Y-497.84
X472.44Y-506.73
X472.44Y-511.81
X472.44Y-520.7
X472.44Y-525.78
X472.44Y-534.67
X472.44Y-539.75
X472.44Y-548.64
X472.44Y-553.72
X472.44Y-562.61
X472.44Y-567.69
X472.44Y-576.58
X472.44Y-581.66
X472.44Y-590.55
X472.44Y-595.63
X472.44Y-604.52
X472.44Y-609.6
X473.075Y-436.88
X473.075Y-441.96
X473.075Y-450.85
X473.075Y-455.93
X473.075Y-464.82
X473.075Y-469.9
X474.98Y-478.79
X474.98Y-483.87
X474.98Y-492.76
X474.98Y-497.84
X474.98Y-506.73
X474.98Y-511.81
X474.98Y-520.7
X474.98Y-525.78
X474.98Y-534.67
X474.98Y-539.75
X474.98Y-548.64
X474.98Y-553.72
X474.98Y-562.61
X474.98Y-567.69
X474.98Y-576.58
X474.98Y-581.66
X474.98Y-590.55
X474.98Y-595.63
X474.98Y-604.52
X474.98Y-609.6
X476.25Y-436.88
X476.25Y-441.96
X476.25Y-450.85
X476.25Y-455.93
X476.25Y-464.82
X476.25Y-469.9
X477.52Y-478.79
X477.52Y-483.87
X477.52Y-492.76
X477.52Y-497.84
X477.52Y-506.73
X477.52Y-511.81
X477.52Y-520.7
X477.52Y-525.78
X477.52Y-534.67
X477.52Y-539.75
X477.52Y-548.64
X477.52Y-553.72
X477.52Y-562.61
X477.52Y-567.69
X477.52Y-576.58
X477.52Y-581.66
X477.52Y-590.55
X477.52Y-595.63
X477.52Y-604.52
X477.52Y-609.6
X479.425Y-436.88
X479.425Y-441.96
X479.425Y-450.85
X479.425Y-455.93
X479.425Y-464.82
X479.425Y-469.9
X480.06Y-478.79
X480.06Y-483.87
X480.06Y-492.76
X480.06Y-497.84
X480.06Y-506.73
X480.06Y-511.81
X480.06Y-520.7
X480.06Y-525.78
X480.06Y-534.67
X480.06Y-539.75
X480.06Y-548.64
X480.06Y-553.72
X480.06Y-562.61
X480.06Y-567.69
X480.06Y-576.58
X480.06Y-581.66
X480.06Y-590.55
X480.06Y-595.63
X480.06Y-604.52
X480.06Y-609.6
X482.6Y-436.88
X482.6Y-441.96
X482.6Y-450.85
X482.6Y-455.93
X482.6Y-464.82
X482.6Y-469.9
X482.6Y-478.79
X482.6Y-483.87
X482.6Y-492.76
X482.6Y-497.84
X482.6Y-506.73
X482.6Y-511.81
X482.6Y-520.7
X482.6Y-525.78
X482.6Y-534.67
X482.6Y-539.75
X482.6Y-548.64
X482.6Y-553.72
X482.6Y-562.61
X482.6Y-567.69
X482.6Y-576.58
X482.6Y-581.66
X482.6Y-590.55
X482.6Y-595.63
X482.6Y-604.52
X482.6Y-609.6
X485.14Y-478.79
X485.14Y-483.87
X485.14Y-492.76
X485.14Y-497.84
X485.14Y-506.73
X485.14Y-511.81
X485.14Y-520.7
X485.14Y-525.78
X485.14Y-534.67
X485.14Y-539.75
X485.14Y-548.64
X485.14Y-553.72
X485.14Y-562.61
X485.14Y-567.69
X485.14Y-576.58
X485.14Y-581.66
X485.14Y-590.55
X485.14Y-595.63
X485.14Y-604.52
X485.14Y-609.6
X485.775Y-436.88
X485.775Y-441.96
X485.775Y-450.85
X485.775Y-455.93
X485.775Y-464.82
X485.775Y-469.9
X487.68Y-478.79
X487.68Y-483.87
X487.68Y-492.76
X487.68Y-497.84
X487.68Y-506.73
X487.68Y-511.81
X487.68Y-520.7
X487.68Y-525.78
X487.68Y-534.67
X487.68Y-539.75
X487.68Y-548.64
X487.68Y-553.72
X487.68Y-562.61
X487.68Y-567.69
X487.68Y-576.58
X487.68Y-581.66
X487.68Y-590.55
X487.68Y-595.63
X487.68Y-604.52
X487.68Y-609.6
X488.95Y-436.88
X488.95Y-441.96
X488.95Y-450.85
X488.95Y-455.93
X488.95Y-464.82
X488.95Y-469.9
X490.22Y-478.79
X490.22Y-483.87
X490.22Y-492.76
X490.22Y-497.84
X490.22Y-506.73
X490.22Y-511.81
X490.22Y-520.7
X490.22Y-525.78
X490.22Y-534.67
X490.22Y-539.75
X490.22Y-548.64
X490.22Y-553.72
X490.22Y-562.61
X490.22Y-567.69
X490.22Y-576.58
X490.22Y-581.66
X490.22Y-590.55
X490.22Y-595.63
X490.22Y-604.52
X490.22Y-609.6
X492.125Y-436.88
X492.125Y-441.96
X492.125Y-450.85
X492.125Y-455.93
X492.125Y-464.82
X492.125Y-469.9
X492.76Y-478.79
X492.76Y-483.87
X492.76Y-492.76
X492.76Y-497.84
X492.76Y-506.73
X492.76Y-511.81
X492.76Y-520.7
X492.76Y-525.78
X492.76Y-534.67
X492.76Y-539.75
X492.76Y-548.64
X492.76Y-553.72
X492.76Y-562.61
X492.76Y-567.69
X492.76Y-576.58
X492.76Y-581.66
X492.76Y-590.55
X492.76Y-595.63
X492.76Y-604.52
X492.76Y-609.6
X495.3Y-436.88
X495.3Y-441.96
X495.3Y-450.85
X495.3Y-455.93
X495.3Y-464.82
X495.3Y-469.9
X495.3Y-478.79
X495.3Y-483.87
X495.3Y-492.76
X495.3Y-497.84
X495.3Y-506.73
X495.3Y-511.81
X495.3Y-520.7
X495.3Y-525.78
X495.3Y-534.67
X495.3Y-539.75
X495.3Y-548.64
X495.3Y-553.72
X495.3Y-562.61
X495.3Y-567.69
X495.3Y-576.58
X495.3Y-581.66
X495.3Y-590.55
X495.3Y-595.63
X495.3Y-604.52
X495.3Y-609.6
X497.84Y-478.79
X497.84Y-483.87
X497.84Y-492.76
X497.84Y-497.84
X497.84Y-506.73
X497.84Y-511.81
X497.84Y-520.7
X497.84Y-525.78
X497.84Y-534.67
X497.84Y-539.75
X497.84Y-548.64
X497.84Y-553.72
X497.84Y-562.61
X497.84Y-567.69
X497.84Y-576.58
X497.84Y-581.66
X497.84Y-590.55
X497.84Y-595.63
X497.84Y-604.52
X497.84Y-609.6
X498.475Y-436.88
X498.475Y-441.96
X498.475Y-450.85
X498.475Y-455.93
X498.475Y-464.82
X498.475Y-469.9
X500.38Y-478.79
X500.38Y-483.87
X500.38Y-492.76
X500.38Y-497.84
X500.38Y-506.73
X500.38Y-511.81
X500.38Y-520.7
X500.38Y-525.78
X500.38Y-534.67
X500.38Y-539.75
X500.38Y-548.64
X500.38Y-553.72
X500.38Y-562.61
X500.38Y-567.69
X500.38Y-576.58
X500.38Y-581.66
X500.38Y-590.55
X500.38Y-595.63
X500.38Y-604.52
X500.38Y-609.6
X501.65Y-436.88
X501.65Y-441.96
X501.65Y-450.85
X501.65Y-455.93
X501.65Y-464.82
X501.65Y-469.9
X502.92Y-478.79
X502.92Y-483.87
X502.92Y-492.76
X502.92Y-497.84
X502.92Y-506.73
X502.92Y-511.81
X502.92Y-520.7
X502.92Y-525.78
X502.92Y-534.67
X502.92Y-539.75
X502.92Y-548.64
X502.92Y-553.72
X502.92Y-562.61
X502.92Y-567.69
X502.92Y-576.58
X502.92Y-581.66
X502.92Y-590.55
X502.92Y-595.63
X502.92Y-604.52
X502.92Y-609.6
X504.825Y-436.88
X504.825Y-441.96
X504.825Y-450.85
X504.825Y-455.93
X504.825Y-464.82
X504.825Y-469.9
X505.46Y-478.79
X505.46Y-483.87
X505.46Y-492.76
X505.46Y-497.84
X505.46Y-502.158
X505.46Y-506.73
X505.46Y-511.81
X505.46Y-520.7
X505.46Y-525.78
X505.46Y-534.67
X505.46Y-539.75
X505.46Y-548.64
X505.46Y-553.72
X505.46Y-562.61
X505.46Y-567.69
X505.46Y-576.58
X505.46Y-581.66
X505.46Y-590.55
X505.46Y-595.63
X505.46Y-604.52
X505.46Y-609.6
X508.0Y-436.88
X508.0Y-441.96
X508.0Y-450.85
X508.0Y-455.93
X508.0Y-464.82
X508.0Y-469.9
X508.0Y-478.79
X508.0Y-483.87
X508.0Y-492.76
X508.0Y-497.84
X508.0Y-502.158
X508.0Y-506.73
X508.0Y-511.81
X508.0Y-520.7
X508.0Y-525.78
X508.0Y-534.67
X508.0Y-539.75
X508.0Y-548.64
X508.0Y-553.72
X508.0Y-562.61
X508.0Y-567.69
X508.0Y-576.58
X508.0Y-581.66
X508.0Y-590.55
X508.0Y-595.63
X508.0Y-604.52
X508.0Y-609.6
X510.54Y-478.79
X510.54Y-483.87
X510.54Y-492.76
X510.54Y-497.84
X510.54Y-502.158
X510.54Y-506.73
X510.54Y-511.81
X510.54Y-520.7
X510.54Y-525.78
X510.54Y-534.67
X510.54Y-539.75
X510.54Y-548.64
X510.54Y-553.72
X510.54Y-562.61
X510.54Y-567.69
X510.54Y-576.58
X510.54Y-581.66
X510.54Y-590.55
X510.54Y-595.63
X510.54Y-604.52
X510.54Y-609.6
X511.175Y-436.88
X511.175Y-441.96
X511.175Y-450.85
X511.175Y-455.93
X511.175Y-464.82
X511.175Y-469.9
X513.08Y-478.79
X513.08Y-483.87
X513.08Y-492.76
X513.08Y-497.84
X513.08Y-502.158
X513.08Y-506.73
X513.08Y-511.81
X513.08Y-520.7
X513.08Y-525.78
X513.08Y-534.67
X513.08Y-539.75
X513.08Y-548.64
X513.08Y-553.72
X513.08Y-562.61
X513.08Y-567.69
X513.08Y-576.58
X513.08Y-581.66
X513.08Y-590.55
X513.08Y-595.63
X513.08Y-604.52
X513.08Y-609.6
X514.35Y-436.88
X514.35Y-441.96
X514.35Y-450.85
X514.35Y-455.93
X514.35Y-464.82
X514.35Y-469.9
X515.62Y-478.79
X515.62Y-483.87
X515.62Y-492.76
X515.62Y-497.84
X515.62Y-502.158
X515.62Y-506.73
X515.62Y-511.81
X515.62Y-520.7
X515.62Y-525.78
X515.62Y-534.67
X515.62Y-539.75
X515.62Y-548.64
X515.62Y-553.72
X515.62Y-562.61
X515.62Y-567.69
X515.62Y-576.58
X515.62Y-581.66
X515.62Y-590.55
X515.62Y-595.63
X515.62Y-604.52
X515.62Y-609.6
X517.525Y-436.88
X517.525Y-441.96
X517.525Y-450.85
X517.525Y-455.93
X517.525Y-464.82
X517.525Y-469.9
X518.16Y-478.79
X518.16Y-483.87
X518.16Y-492.76
X518.16Y-497.84
X518.16Y-502.158
X518.16Y-506.73
X518.16Y-511.81
X518.16Y-520.7
X518.16Y-525.78
X518.16Y-534.67
X518.16Y-539.75
X518.16Y-548.64
X518.16Y-553.72
X518.16Y-562.61
X518.16Y-567.69
X518.16Y-576.58
X518.16Y-581.66
X518.16Y-590.55
X518.16Y-595.63
X518.16Y-604.52
X518.16Y-609.6
X520.7Y-436.88
X520.7Y-441.96
X520.7Y-450.85
X520.7Y-455.93
X520.7Y-464.82
X520.7Y-469.9
X520.7Y-474.218
X520.7Y-478.79
X520.7Y-483.87
X520.7Y-488.315
X520.7Y-492.76
X520.7Y-497.84
X520.7Y-502.158
X520.7Y-506.73
X520.7Y-511.81
X520.7Y-520.7
X520.7Y-525.78
X520.7Y-534.67
X520.7Y-539.75
X520.7Y-548.64
X520.7Y-553.72
X520.7Y-562.61
X520.7Y-567.69
X520.7Y-576.58
X520.7Y-581.66
X520.7Y-590.55
X520.7Y-595.63
X520.7Y-604.52
X520.7Y-609.6
X523.24Y-474.218
X523.24Y-478.79
X523.24Y-483.87
X523.24Y-488.315
X523.24Y-492.76
X523.24Y-497.84
X523.24Y-502.158
X523.24Y-506.73
X523.24Y-511.81
X523.24Y-520.7
X523.24Y-525.78
X523.24Y-534.67
X523.24Y-539.75
X523.24Y-548.64
X523.24Y-553.72
X523.24Y-562.61
X523.24Y-567.69
X523.24Y-576.58
X523.24Y-581.66
X523.24Y-590.55
X523.24Y-595.63
X523.24Y-604.52
X523.24Y-609.6
X523.875Y-436.88
X523.875Y-441.96
X523.875Y-450.85
X523.875Y-455.93
X523.875Y-464.82
X523.875Y-469.9
X525.78Y-474.218
X525.78Y-478.79
X525.78Y-483.87
X525.78Y-488.315
X525.78Y-492.76
X525.78Y-497.84
X525.78Y-502.158
X525.78Y-506.73
X525.78Y-511.81
X525.78Y-516.255
X525.78Y-520.7
X525.78Y-525.78
X525.78Y-534.67
X525.78Y-539.75
X525.78Y-548.64
X525.78Y-553.72
X525.78Y-562.61
X525.78Y-567.69
X525.78Y-576.58
X525.78Y-581.66
X525.78Y-590.55
X525.78Y-595.63
X525.78Y-600.075
X525.78Y-604.52
X525.78Y-609.6
X527.05Y-436.88
X527.05Y-441.96
X527.05Y-450.85
X527.05Y-455.93
X527.05Y-464.82
X527.05Y-469.9
X528.32Y-474.218
X528.32Y-478.79
X528.32Y-483.87
X528.32Y-488.315
X528.32Y-492.76
X528.32Y-497.84
X528.32Y-502.158
X528.32Y-506.73
X528.32Y-511.81
X528.32Y-516.255
X528.32Y-520.7
X528.32Y-525.78
X528.32Y-534.67
X528.32Y-539.75
X528.32Y-548.64
X528.32Y-553.72
X528.32Y-562.61
X528.32Y-567.69
X528.32Y-576.58
X528.32Y-581.66
X528.32Y-590.55
X528.32Y-595.63
X528.32Y-600.075
X528.32Y-604.52
X528.32Y-609.6
X530.225Y-436.88
X530.225Y-441.96
X530.225Y-450.85
X530.225Y-455.93
X530.225Y-464.82
X530.225Y-469.9
X530.86Y-474.218
X530.86Y-478.79
X530.86Y-483.87
X530.86Y-488.315
X530.86Y-492.76
X530.86Y-497.84
X530.86Y-502.158
X530.86Y-506.73
X530.86Y-511.81
X530.86Y-516.255
X530.86Y-520.7
X530.86Y-525.78
X530.86Y-534.67
X530.86Y-539.75
X530.86Y-548.64
X530.86Y-553.72
X530.86Y-562.61
X530.86Y-567.69
X530.86Y-572.135
X530.86Y-576.58
X530.86Y-581.66
X530.86Y-590.55
X530.86Y-595.63
X530.86Y-600.075
X530.86Y-604.52
X530.86Y-609.6
X533.4Y-436.88
X533.4Y-441.96
X533.4Y-450.85
X533.4Y-455.93
X533.4Y-464.82
X533.4Y-469.9
X533.4Y-474.218
X533.4Y-478.79
X533.4Y-483.87
X533.4Y-488.315
X533.4Y-492.76
X533.4Y-497.84
X533.4Y-502.158
X533.4Y-506.73
X533.4Y-511.81
X533.4Y-516.255
X533.4Y-520.7
X533.4Y-525.78
X533.4Y-534.67
X533.4Y-539.75
X533.4Y-548.64
X533.4Y-553.72
X533.4Y-562.61
X533.4Y-567.69
X533.4Y-572.135
X533.4Y-576.58
X533.4Y-581.66
X533.4Y-590.55
X533.4Y-595.63
X533.4Y-600.075
X533.4Y-604.52
X533.4Y-609.6
X535.94Y-474.218
X535.94Y-478.79
X535.94Y-483.87
X535.94Y-488.315
X535.94Y-492.76
X535.94Y-497.84
X535.94Y-502.158
X535.94Y-506.73
X535.94Y-511.81
X535.94Y-516.255
X535.94Y-520.7
X535.94Y-525.78
X535.94Y-530.225
X535.94Y-534.67
X535.94Y-539.75
X535.94Y-544.195
X535.94Y-548.64
X535.94Y-553.72
X535.94Y-558.165
X535.94Y-562.61
X535.94Y-567.69
X535.94Y-572.135
X535.94Y-576.58
X535.94Y-581.66
X535.94Y-585.978
X535.94Y-590.55
X535.94Y-595.63
X535.94Y-600.075
X535.94Y-604.52
X535.94Y-609.6
X536.575Y-436.88
X536.575Y-441.96
X536.575Y-450.85
X536.575Y-455.93
X536.575Y-464.82
X536.575Y-469.9
X538.48Y-474.218
X538.48Y-478.79
X538.48Y-483.87
X538.48Y-488.315
X538.48Y-492.76
X538.48Y-497.84
X538.48Y-502.158
X538.48Y-506.73
X538.48Y-511.81
X538.48Y-516.255
X538.48Y-520.7
X538.48Y-525.78
X538.48Y-530.225
X538.48Y-534.67
X538.48Y-539.75
X538.48Y-544.195
X538.48Y-548.64
X538.48Y-553.72
X538.48Y-558.165
X538.48Y-562.61
X538.48Y-567.69
X538.48Y-572.135
X538.48Y-576.58
X538.48Y-581.66
X538.48Y-585.978
X538.48Y-590.55
X538.48Y-595.63
X538.48Y-600.075
X538.48Y-604.52
X538.48Y-609.6
X539.75Y-436.88
X539.75Y-441.96
X539.75Y-450.85
X539.75Y-455.93
X539.75Y-464.82
X539.75Y-469.9
X540.385Y-446.532
X541.02Y-474.218
X541.02Y-478.79
X541.02Y-483.87
X541.02Y-488.315
X541.02Y-492.76
X541.02Y-497.84
X541.02Y-502.158
X541.02Y-506.73
X541.02Y-511.81
X541.02Y-516.255
X541.02Y-520.7
X541.02Y-525.78
X541.02Y-530.225
X541.02Y-534.67
X541.02Y-539.75
X541.02Y-544.195
X541.02Y-548.64
X541.02Y-553.72
X541.02Y-558.165
X541.02Y-562.61
X541.02Y-567.69
X541.02Y-572.135
X541.02Y-576.58
X541.02Y-581.66
X541.02Y-585.978
X541.02Y-590.55
X541.02Y-595.63
X541.02Y-600.075
X541.02Y-604.52
X541.02Y-609.6
X542.925Y-436.88
X542.925Y-441.96
X542.925Y-446.532
X542.925Y-450.85
X542.925Y-455.93
X542.925Y-464.82
X542.925Y-469.9
X543.56Y-474.218
X543.56Y-478.79
X543.56Y-483.87
X543.56Y-488.315
X543.56Y-492.76
X543.56Y-497.84
X543.56Y-502.158
X543.56Y-506.73
X543.56Y-511.81
X543.56Y-516.255
X543.56Y-520.7
X543.56Y-525.78
X543.56Y-530.225
X543.56Y-534.67
X543.56Y-539.75
X543.56Y-544.195
X543.56Y-548.64
X543.56Y-553.72
X543.56Y-558.165
X543.56Y-562.61
X543.56Y-567.69
X543.56Y-572.135
X543.56Y-576.58
X543.56Y-581.66
X543.56Y-585.978
X543.56Y-590.55
X543.56Y-595.63
X543.56Y-600.075
X543.56Y-604.52
X543.56Y-609.6
X546.1Y-436.88
X546.1Y-441.96
X546.1Y-450.85
X546.1Y-455.93
X546.1Y-464.82
X546.1Y-469.9
X546.1Y-478.79
X546.1Y-483.87
X546.1Y-492.76
X546.1Y-497.84
X546.1Y-506.73
X546.1Y-511.81
X546.1Y-520.7
X546.1Y-525.78
X546.1Y-534.67
X546.1Y-539.75
X546.1Y-548.64
X546.1Y-553.72
X546.1Y-562.61
X546.1Y-567.69
X546.1Y-576.58
X546.1Y-581.66
X546.1Y-590.55
X546.1Y-595.63
X546.1Y-604.52
X546.1Y-609.6
T4
X302.26Y-426.72
X302.26Y-429.26
X304.8Y-426.72
X304.8Y-429.26
X307.34Y-426.72
X307.34Y-429.26
X309.88Y-426.72
X309.88Y-429.26
X312.42Y-426.72
X312.42Y-429.26
X314.96Y-426.72
X314.96Y-429.26
X317.5Y-426.72
X317.5Y-429.26
X320.04Y-426.72
X320.04Y-429.26
X322.58Y-426.72
X322.58Y-429.26
X325.12Y-426.72
X325.12Y-429.26
X327.66Y-426.72
X327.66Y-429.26
X330.2Y-426.72
X330.2Y-429.26
X332.74Y-426.72
X332.74Y-429.26
X335.28Y-426.72
X335.28Y-429.26
X337.82Y-426.72
X337.82Y-429.26
X340.36Y-426.72
X340.36Y-429.26
X342.9Y-426.72
X342.9Y-429.26
X345.44Y-426.72
X345.44Y-429.26
X347.98Y-426.72
X347.98Y-429.26
X350.52Y-426.72
X350.52Y-429.26
X353.06Y-426.72
X353.06Y-429.26
X355.6Y-426.72
X355.6Y-429.26
X358.14Y-426.72
X358.14Y-429.26
X360.68Y-426.72
X360.68Y-429.26
X363.22Y-426.72
X363.22Y-429.26
X396.24Y-426.72
X396.24Y-429.26
X398.78Y-426.72
X398.78Y-429.26
X401.32Y-426.72
X401.32Y-429.26
X403.86Y-426.72
X403.86Y-429.26
X406.4Y-426.72
X406.4Y-429.26
X408.94Y-426.72
X408.94Y-429.26
X411.48Y-426.72
X411.48Y-429.26
X414.02Y-426.72
X414.02Y-429.26
X416.56Y-426.72
X416.56Y-429.26
X419.1Y-426.72
X419.1Y-429.26
X421.64Y-426.72
X421.64Y-429.26
X424.18Y-426.72
X424.18Y-429.26
X426.72Y-426.72
X426.72Y-429.26
X429.26Y-426.72
X429.26Y-429.26
X431.8Y-426.72
X431.8Y-429.26
X434.34Y-426.72
X434.34Y-429.26
X436.88Y-426.72
X436.88Y-429.26
X439.42Y-426.72
X439.42Y-429.26
X441.96Y-426.72
X441.96Y-429.26
X444.5Y-426.72
X444.5Y-429.26
X447.04Y-426.72
X447.04Y-429.26
X449.58Y-426.72
X449.58Y-429.26
X452.12Y-426.72
X452.12Y-429.26
X454.66Y-426.72
X454.66Y-429.26
X457.2Y-426.72
X457.2Y-429.26
X480.06Y-429.26
X482.6Y-429.26
X485.14Y-429.26
X487.68Y-429.26
T5
X172.72Y-426.72
X172.72Y-607.06
X187.96Y-487.68
X187.96Y-510.54
X187.96Y-533.4
X187.96Y-556.26
X198.12Y-447.04
X198.12Y-599.44
X379.73Y-478.79
X379.73Y-596.9
X561.34Y-447.04
X561.34Y-599.44
X574.04Y-487.68
X574.04Y-510.54
X589.28Y-426.72
X589.28Y-607.06
M30
